<svg width="80" height="80" viewBox="0 0 80 80" fill="none" xmlns="http://www.w3.org/2000/svg">
<circle cx="40" cy="40" r="40" fill="#F46720"/>
<path d="M43.6079 26.0492H45.5325C45.4629 26.9385 45.4001 27.8074 45.3288 28.6746C45.115 31.2543 44.8978 33.8356 44.6805 36.4153C44.6619 36.6376 44.6228 36.8599 44.6109 37.0823C44.5736 37.734 44.9826 38.2516 45.5681 38.3076C46.1095 38.3602 46.6204 37.9122 46.6764 37.2774C46.8512 35.3037 47.0056 33.3282 47.1685 31.3527C47.2602 30.2394 47.3552 29.1244 47.4587 27.9109C47.9119 28.1502 48.3192 28.342 48.7061 28.5711C52.8149 30.9929 55.6424 34.4449 57.0917 39.0068C57.6721 40.8346 57.9013 42.7151 57.9284 44.6244C57.9369 45.1522 57.886 45.6851 57.942 46.2061C58.0031 46.7746 57.774 47.0428 57.2699 47.2736C54.9499 48.3377 52.523 49.0488 50.035 49.5732C45.7854 50.4676 41.4814 50.6798 37.1571 50.527C32.4221 50.359 27.7855 49.6343 23.3339 47.9389C22.6499 47.6775 21.9847 47.3619 21.3245 47.0428C21.2023 46.9834 21.075 46.7916 21.0716 46.6575C20.9986 43.8335 21.1293 41.0332 22.1153 38.3415C23.8345 33.6473 26.9488 30.2071 31.4157 27.9805C31.4276 27.9737 31.4462 27.9805 31.526 27.989C31.5871 28.6186 31.6567 29.2584 31.711 29.9017C31.9112 32.3235 32.1081 34.7436 32.3033 37.1654C32.3593 37.8646 32.826 38.3534 33.4064 38.311C34.0462 38.2652 34.4349 37.6983 34.3704 36.9567C34.1481 34.377 33.9393 31.7957 33.7221 29.216C33.6355 28.1808 33.5422 27.1472 33.4472 26.0712H35.3802V26.6041C35.3802 32.091 35.3802 37.5795 35.3802 43.0664C35.3802 43.8657 35.6229 44.2612 36.1948 44.4037C36.6938 44.5276 37.2267 44.2544 37.3709 43.7639C37.4422 43.5229 37.4609 43.2616 37.4609 43.0087C37.466 37.3928 37.4609 31.7787 37.466 26.1629C37.466 24.7916 38.4028 23.8989 39.7011 24.0092C40.6973 24.094 41.4746 24.9036 41.5171 25.9066C41.5255 26.0984 41.5238 26.2901 41.5238 26.4819C41.5238 31.9858 41.5238 37.4879 41.5238 42.9917C41.5238 43.9302 41.8752 44.4326 42.5438 44.4546C43.221 44.475 43.6079 43.9438 43.6079 42.99C43.6079 37.5507 43.6079 32.1113 43.6079 26.672V26.0525V26.0492Z" fill="white"/>
<path d="M19.0338 47.053C18.8947 48.0526 19.4428 48.4056 20.0725 48.7331C22.9865 50.2555 26.1041 51.1584 29.3168 51.7608C33.2932 52.5076 37.312 52.7418 41.3478 52.6179C46.4664 52.4601 51.4984 51.7642 56.3115 49.9126C57.1737 49.5817 58.0036 49.1642 58.8386 48.7671C59.492 48.4565 60.1216 48.1103 59.9536 47.0665C60.6002 47.4484 61.1348 47.725 61.6236 48.0645C62.0767 48.3801 62.1412 48.6822 61.7695 49.1167C61.2536 49.7175 60.7037 50.3166 60.0707 50.785C57.4333 52.735 54.4447 53.9756 51.3338 54.9396C48.4572 55.8323 45.5126 56.3771 42.507 56.5926C35.9356 57.0644 29.6121 56.0495 23.5652 53.4172C21.5965 52.5602 19.7076 51.5521 18.0885 50.1146C17.7457 49.8108 17.4521 49.4425 17.1771 49.0743C16.9073 48.7145 16.9345 48.3428 17.3367 48.0831C17.8441 47.7556 18.3668 47.4552 19.0372 47.0513L19.0338 47.053Z" fill="white"/>
</svg>
