<svg width="18" height="18" viewBox="0 0 18 18" fill="none" xmlns="http://www.w3.org/2000/svg">
<path d="M17.1758 16.5809L12.0262 11.4271C13.1901 10.1077 13.7948 8.38709 13.7124 6.62963C13.6299 4.87216 12.8667 3.21578 11.5843 2.0112C10.302 0.806606 8.60114 0.148377 6.84195 0.175877C5.08277 0.203377 3.40334 0.914445 2.15926 2.15853C0.915177 3.40261 0.204109 5.08204 0.176609 6.84122C0.14911 8.6004 0.807338 10.3012 2.01193 11.5836C3.21652 12.866 4.8729 13.6292 6.63036 13.7116C8.38783 13.7941 10.1084 13.1894 11.4278 12.0255L16.5816 17.175L17.1758 16.5809ZM6.97772 12.8767C5.81087 12.8767 4.67022 12.5307 3.70002 11.8824C2.72982 11.2341 1.97364 10.3127 1.52711 9.23471C1.08057 8.15668 0.963737 6.97044 1.19138 5.82601C1.41902 4.68158 1.98091 3.63036 2.806 2.80527C3.63109 1.98018 4.68232 1.41829 5.82675 1.19065C6.97118 0.963004 8.15741 1.07984 9.23544 1.52637C10.3135 1.97291 11.2349 2.72909 11.8831 3.69929C12.5314 4.66949 12.8774 5.81014 12.8774 6.97699C12.8774 8.54169 12.2559 10.0423 11.1494 11.1487C10.043 12.2551 8.54242 12.8767 6.97772 12.8767Z" fill="white" stroke="white" stroke-width="0.35"/>
</svg>
