<svg width="46" height="33" viewBox="0 0 46 33" fill="none" xmlns="http://www.w3.org/2000/svg">
<path d="M26.6079 2.04915H28.5325C28.4629 2.93845 28.4001 3.80739 28.3288 4.67463C28.115 7.25428 27.8978 9.83564 27.6805 12.4153C27.6619 12.6376 27.6228 12.8599 27.6109 13.0823C27.5736 13.734 27.9826 14.2516 28.5681 14.3076C29.1095 14.3602 29.6204 13.9122 29.6764 13.2774C29.8512 11.3037 30.0056 9.32819 30.1685 7.35272C30.2602 6.23939 30.3552 5.12437 30.4587 3.91092C30.9119 4.15021 31.3192 4.34199 31.7061 4.5711C35.8149 6.99292 38.6424 10.4449 40.0917 15.0068C40.6721 16.8346 40.9013 18.7151 40.9284 20.6244C40.9369 21.1522 40.886 21.6851 40.942 22.2061C41.0031 22.7746 40.774 23.0428 40.2699 23.2736C37.9499 24.3377 35.523 25.0488 33.035 25.5732C28.7854 26.4676 24.4814 26.6798 20.1571 26.527C15.4221 26.359 10.7855 25.6343 6.33389 23.9389C5.64994 23.6775 4.98466 23.3619 4.32447 23.0428C4.20228 22.9834 4.07499 22.7916 4.0716 22.6575C3.99862 19.8335 4.1293 17.0332 5.11534 14.3415C6.83455 9.64725 9.9488 6.20715 14.4157 3.9805C14.4276 3.97371 14.4462 3.9805 14.526 3.98898C14.5871 4.61862 14.6567 5.25845 14.711 5.90166C14.9112 8.32348 15.1081 10.7436 15.3033 13.1654C15.3593 13.8646 15.826 14.3534 16.4064 14.311C17.0462 14.2652 17.4349 13.6983 17.3704 12.9567C17.1481 10.377 16.9393 7.79567 16.7221 5.21602C16.6355 4.18076 16.5422 3.1472 16.4472 2.07122H18.3802V2.60412C18.3802 8.09098 18.3802 13.5795 18.3802 19.0664C18.3802 19.8657 18.6229 20.2612 19.1948 20.4037C19.6938 20.5276 20.2267 20.2544 20.3709 19.7639C20.4422 19.5229 20.4609 19.2616 20.4609 19.0087C20.466 13.3928 20.4609 7.7787 20.466 2.16286C20.466 0.791571 21.4028 -0.101126 22.7011 0.00918866C23.6973 0.0940457 24.4746 0.903582 24.5171 1.90659C24.5255 2.09837 24.5238 2.29015 24.5238 2.48192C24.5238 7.98575 24.5238 13.4879 24.5238 18.9917C24.5238 19.9302 24.8752 20.4326 25.5438 20.4546C26.221 20.475 26.6079 19.9438 26.6079 18.99C26.6079 13.5507 26.6079 8.11134 26.6079 2.672V2.05255V2.04915Z" fill="white"/>
<path d="M2.03382 23.053C1.89465 24.0526 2.44283 24.4056 3.07247 24.7331C5.98646 26.2555 9.10411 27.1584 12.3168 27.7608C16.2932 28.5076 20.312 28.7418 24.3478 28.6179C29.4664 28.4601 34.4984 27.7642 39.3115 25.9126C40.1737 25.5817 41.0036 25.1642 41.8386 24.7671C42.492 24.4565 43.1216 24.1103 42.9536 23.0665C43.6002 23.4484 44.1348 23.725 44.6236 24.0645C45.0767 24.3801 45.1412 24.6822 44.7695 25.1167C44.2536 25.7175 43.7037 26.3166 43.0707 26.785C40.4333 28.735 37.4447 29.9756 34.3338 30.9396C31.4572 31.8323 28.5126 32.3771 25.507 32.5926C18.9356 33.0644 12.6121 32.0495 6.56519 29.4172C4.5965 28.5602 2.70759 27.5521 1.08851 26.1146C0.74569 25.8108 0.452085 25.4425 0.177148 25.0743C-0.0926975 24.7145 -0.0655434 24.3428 0.336679 24.0831C0.844124 23.7556 1.36684 23.4552 2.03721 23.0513L2.03382 23.053Z" fill="white"/>
</svg>
