<svg width="19" height="23" viewBox="0 0 19 23" fill="none" xmlns="http://www.w3.org/2000/svg">
<path d="M18.3206 0H0.678459C0.305359 0 0 0.304408 0 0.676346V22.3237C0 22.6956 0.305359 23 0.678459 23H12.8928C16.2584 23 19 20.2669 19 16.9118V0.676419C19 0.304481 18.6946 7.30991e-05 18.3215 7.30991e-05L18.3206 0ZM1.35709 1.35272H17.6432V16.2344H12.8931C12.52 16.2344 12.2146 16.5388 12.2146 16.9107V21.6461L1.35726 21.647L1.35709 1.35272ZM17.4256 18.3321C17.4256 18.3321 17.4189 18.3587 17.4122 18.373C17.3445 18.5823 17.2633 18.7792 17.1679 18.9752C17.1479 19.0161 17.1336 19.0494 17.1135 19.0903C17.0114 19.2863 16.896 19.4689 16.7738 19.6449C16.7471 19.6791 16.7194 19.7124 16.6927 19.7533C16.5572 19.9293 16.4141 20.1053 16.2585 20.2603C16.102 20.4163 15.9265 20.5581 15.7499 20.6932C15.7156 20.7198 15.6822 20.7474 15.6412 20.774C15.4646 20.9024 15.2747 21.0109 15.0848 21.1127C15.0505 21.1326 15.0104 21.1469 14.9761 21.1669C14.7795 21.262 14.5829 21.3429 14.372 21.4171C14.3586 21.4171 14.3453 21.4304 14.331 21.4304C14.1134 21.4979 13.8901 21.5455 13.6592 21.5864C13.6325 21.5864 13.6048 21.593 13.5847 21.5997V17.5949H17.6021C17.6021 17.5949 17.5954 17.6491 17.5887 17.6691C17.5543 17.8993 17.5009 18.1219 17.4322 18.3388L17.4256 18.3321ZM3.39249 4.73554C3.39249 4.3636 3.69785 4.0592 4.07095 4.0592H14.9283C15.3014 4.0592 15.6068 4.3636 15.6068 4.73554C15.6068 5.10748 15.3014 5.41189 14.9283 5.41189H4.07095C3.69785 5.41189 3.39249 5.10748 3.39249 4.73554ZM3.39249 8.79464C3.39249 8.4227 3.69785 8.1183 4.07095 8.1183H14.9283C15.3014 8.1183 15.6068 8.4227 15.6068 8.79464C15.6068 9.16658 15.3014 9.47099 14.9283 9.47099H4.07095C3.69785 9.47099 3.39249 9.16658 3.39249 8.79464ZM4.07095 13.529C3.69785 13.529 3.39249 13.2246 3.39249 12.8527C3.39249 12.4808 3.69785 12.1763 4.07095 12.1763H14.9283C15.3014 12.1763 15.6068 12.4808 15.6068 12.8527C15.6068 13.2246 15.3014 13.529 14.9283 13.529H4.07095Z" fill="white"/>
</svg>
