<svg width="24" height="28" viewBox="0 0 24 28" fill="none" xmlns="http://www.w3.org/2000/svg">
<path d="M24 7.27058C24 7.21965 24 7.21964 24 7.16871C24 7.11778 23.9498 7.06685 23.9498 7.01592C23.8996 6.96498 23.8996 6.91405 23.8494 6.86312C23.8494 6.86312 23.8494 6.86312 23.7992 6.81219C23.7992 6.81219 23.7992 6.81219 23.749 6.81219L12.251 0.0381992C12.251 0.0381992 12.251 0.0381992 12.2008 0.0381992H12.1506C12.0502 -0.0127331 11.8996 -0.0127331 11.7992 0.0381992H11.749H11.6987L0.251046 6.81219C0.251046 6.81219 0.251046 6.81219 0.200837 6.81219C0.200837 6.81219 0.200837 6.81219 0.150628 6.86312C0.0502098 6.96498 0 7.06685 0 7.16871V7.21964V7.27058V20.7676V20.8186V20.8695C0 20.9204 0.0502094 20.9714 0.0502094 21.0223C0.0502094 21.0732 0.100419 21.0732 0.150628 21.1241L0.200837 21.1751C0.200837 21.1751 0.200837 21.1751 0.251046 21.226L11.749 27.9491C11.749 27.9491 11.749 27.9491 11.7992 27.9491H11.8494C11.8996 27.9491 11.9498 28 12 28C12.0502 28 12.1004 28 12.1506 27.9491H12.2008C12.2008 27.9491 12.2008 27.9491 12.251 27.9491L23.749 21.226C23.749 21.226 23.749 21.226 23.7992 21.1751L23.8494 21.1241C23.8996 21.0732 23.9498 20.9713 24 20.8695V20.8186V20.7676V7.27058ZM1.00418 8.13642L5.72385 10.8868V17.1005L1.00418 19.8508V8.13642ZM6.72803 11.498L11.4979 14.2992V19.9018L6.72803 17.1005V11.498ZM12 7.83083L16.7699 10.6321L12 13.4334L7.23013 10.6321L12 7.83083ZM12.5021 14.2992L17.272 11.498V17.1005L12.5021 19.9018V14.2992ZM17.7741 10.0209L12.5021 6.91405V1.36244L22.4937 7.27058L17.7741 10.0209ZM11.4979 6.91405L6.22594 10.0209L1.50628 7.27058L11.4979 1.36244V6.91405ZM6.22594 18.0173L11.4979 21.0732V26.6248L1.50628 20.7676L6.22594 18.0173ZM12.5021 21.0732L17.7741 18.0173L22.4937 20.7676L12.5021 26.6248V21.0732ZM18.2762 17.1005V10.8868L22.9958 8.13642V19.8508L18.2762 17.1005Z" fill="white"/>
</svg>
