<svg width="35" height="35" viewBox="0 0 35 35" fill="none" xmlns="http://www.w3.org/2000/svg">
<circle cx="17.5" cy="17.5" r="17.0833" stroke="#231F20" stroke-width="0.833333"/>
<mask id="path-2-inside-1_1015_5269" fill="white">
<path fill-rule="evenodd" clip-rule="evenodd" d="M18.8335 25.8818V18.7349H21.1702L21.5519 15.5585H18.8335V14.0114C18.8335 13.1934 18.856 12.3821 20.0868 12.3821H21.3335V10.111C21.3335 10.0769 20.2627 9.99976 19.1793 9.99976C16.9167 9.99976 15.5 11.3157 15.5 13.7322V15.5585H13V18.7349H15.5V25.8818H18.8335Z"/>
</mask>
<path fill-rule="evenodd" clip-rule="evenodd" d="M18.8335 25.8818V18.7349H21.1702L21.5519 15.5585H18.8335V14.0114C18.8335 13.1934 18.856 12.3821 20.0868 12.3821H21.3335V10.111C21.3335 10.0769 20.2627 9.99976 19.1793 9.99976C16.9167 9.99976 15.5 11.3157 15.5 13.7322V15.5585H13V18.7349H15.5V25.8818H18.8335Z" fill="#231F20"/>
<path d="M18.8335 25.8818V29.5468H22.4985V25.8818H18.8335ZM18.8335 18.7349V15.0698H15.1684V18.7349H18.8335ZM21.1702 18.7349V22.3999H24.4212L24.8091 19.1721L21.1702 18.7349ZM21.5519 15.5585L25.1908 15.9957L25.6837 11.8934H21.5519V15.5585ZM18.8335 15.5585H15.1684V19.2235H18.8335V15.5585ZM21.3335 12.3821V16.0471H24.9986V12.3821H21.3335ZM15.5 15.5585V19.2235H19.1651V15.5585H15.5ZM13 15.5585V11.8934H9.33492V15.5585H13ZM13 18.7349H9.33492V22.3999H13V18.7349ZM15.5 18.7349H19.1651V15.0698H15.5V18.7349ZM15.5 25.8818H11.835V29.5468H15.5V25.8818ZM18.8335 25.8818H22.4985V18.7349H18.8335H15.1684V25.8818H18.8335ZM18.8335 18.7349V22.3999H21.1702V18.7349V15.0698H18.8335V18.7349ZM21.1702 18.7349L24.8091 19.1721L25.1908 15.9957L21.5519 15.5585L17.913 15.1212L17.5313 18.2976L21.1702 18.7349ZM21.5519 15.5585V11.8934H18.8335V15.5585V19.2235H21.5519V15.5585ZM18.8335 15.5585H22.4985V14.0114H18.8335H15.1684V15.5585H18.8335ZM18.8335 14.0114H22.4985C22.4985 13.7889 22.5031 13.7787 22.4986 13.8185C22.4939 13.8608 22.4591 14.1814 22.2466 14.5879C21.9975 15.0646 21.581 15.5106 21.0294 15.7904C20.54 16.0386 20.1581 16.0471 20.0868 16.0471V12.3821V8.71698C19.4001 8.71698 18.5538 8.82696 17.7141 9.25283C16.812 9.71028 16.1592 10.4103 15.7505 11.1921C15.0954 12.4453 15.1684 13.8333 15.1684 14.0114H18.8335ZM20.0868 12.3821V16.0471H21.3335V12.3821V8.71698H20.0868V12.3821ZM21.3335 12.3821H24.9986V10.111H21.3335H17.6684V12.3821H21.3335ZM21.3335 10.111H24.9986C24.9986 8.84401 24.3699 7.99073 24.008 7.60424C23.6449 7.2165 23.2821 6.99957 23.1143 6.90607C22.7661 6.71204 22.465 6.62093 22.3777 6.59465C22.1496 6.52597 21.9598 6.49351 21.9041 6.48397C21.7497 6.45754 21.6066 6.44185 21.5232 6.43329C21.3319 6.41367 21.1056 6.39714 20.8764 6.38375C20.4098 6.35649 19.7996 6.33468 19.1793 6.33468V9.99976V13.6648C19.6424 13.6648 20.1093 13.6816 20.4489 13.7014C20.6229 13.7116 20.732 13.7208 20.7753 13.7252C20.8092 13.7287 20.7582 13.7246 20.6667 13.7089C20.6424 13.7048 20.4767 13.6775 20.2648 13.6137C20.1856 13.5898 19.8906 13.5011 19.5465 13.3094C19.3808 13.217 19.0195 13.0012 18.6575 12.6146C18.2966 12.2292 17.6684 11.377 17.6684 10.111H21.3335ZM19.1793 9.99976V6.33468C17.3456 6.33468 15.4021 6.87968 13.9118 8.35609C12.414 9.83989 11.835 11.8074 11.835 13.7322H15.5H19.1651C19.1651 13.4822 19.202 13.3798 19.2018 13.3803C19.2014 13.3814 19.1928 13.4045 19.1695 13.4414C19.146 13.4788 19.1131 13.5215 19.0706 13.5635C19.0283 13.6055 18.9854 13.638 18.9478 13.6612C18.9107 13.6841 18.8866 13.6933 18.883 13.6945C18.88 13.6956 18.9 13.6881 18.9487 13.6804C18.9977 13.6726 19.0735 13.6648 19.1793 13.6648V9.99976ZM15.5 13.7322H11.835V15.5585H15.5H19.1651V13.7322H15.5ZM15.5 15.5585V11.8934H13V15.5585V19.2235H15.5V15.5585ZM13 15.5585H9.33492V18.7349H13H16.6651V15.5585H13ZM13 18.7349V22.3999H15.5V18.7349V15.0698H13V18.7349ZM15.5 18.7349H11.835V25.8818H15.5H19.1651V18.7349H15.5ZM15.5 25.8818V29.5468H18.8335V25.8818V22.2167H15.5V25.8818Z" fill="#231F20" mask="url(#path-2-inside-1_1015_5269)"/>
</svg>
