<svg width="26" height="22" viewBox="0 0 26 22" fill="none" xmlns="http://www.w3.org/2000/svg">
<path d="M24.8079 6.63609H23.2433V5.36823C23.2433 5.25167 23.1945 5.13951 23.1075 5.05703C23.0204 4.97455 22.902 4.92838 22.779 4.92838H22.0396C21.9212 3.60334 21.2839 2.36735 20.2544 1.46251C19.2249 0.558636 17.8761 0.0506075 16.4718 0.0396008L9.63748 1.6035e-05C8.21096 -0.0032829 6.83551 0.502555 5.78384 1.41522C4.73222 2.3279 4.08106 3.58146 3.9592 4.92837H3.21982H3.22098C3.09794 4.92837 2.97955 4.97456 2.89249 5.05703C2.80542 5.1395 2.75668 5.25166 2.75668 5.36823V6.63609H1.19205C0.533936 6.63719 0.00115886 7.14192 0 7.76539V11.1972C0.00116064 11.8207 0.533936 12.3265 1.19205 12.3276H1.29651L1.94072 20.9773H1.94188C1.98599 21.5524 2.49091 21.9989 3.0991 22H22.822C23.4244 22.0033 23.9281 21.5656 23.978 20.9971L24.7859 12.3277C25.1063 12.3321 25.4139 12.2155 25.6425 12.0033C25.8712 11.7911 26 11.5008 26 11.1973V7.76548C25.9988 7.14201 25.466 6.63719 24.8079 6.63609ZM22.3147 6.63609H18.3532V5.80808H22.3147V6.63609ZM8.5742 6.63609L8.57536 5.36823C8.57536 5.25167 8.52544 5.13951 8.43839 5.05703C8.35134 4.97456 8.23411 4.92838 8.11106 4.92838H7.06758C7.29392 3.7001 8.41866 2.80281 9.73491 2.80171H16.0017C17.3168 2.80391 18.4415 3.7001 18.6678 4.92838H17.889C17.766 4.92838 17.6487 4.97456 17.5617 5.05703C17.4746 5.1395 17.4247 5.25167 17.4247 5.36823V6.63609H8.5742ZM6.26323 2.18497C7.15581 1.33936 8.36991 0.869818 9.63164 0.879727L16.4659 0.919312C17.6255 0.928109 18.7409 1.34266 19.5975 2.08271C20.4541 2.82275 20.9939 3.83551 21.1111 4.92842H19.6057C19.3712 3.2108 17.8286 1.92422 16.0016 1.92197H9.73487C7.90675 1.92417 6.36408 3.21072 6.12844 4.92842H4.88763C4.99326 3.88928 5.47975 2.91843 6.26323 2.18497ZM3.68527 5.80819H7.64678V6.63621H3.68527V5.80819ZM23.0531 20.9193C23.0426 21.0336 22.9428 21.1216 22.8221 21.1205H19.4664V18.1118C19.4664 18.1118 19.2587 18.1115 19.0021 18.1115C18.7456 18.1115 19.4646 18.1118 19.4646 18.1118V21.1213L16.4648 21.1202L10.464 21.12V18.1113C10.464 18.1113 10.2528 18.111 9.99973 18.111C9.74669 18.111 10.4622 18.1113 10.4622 18.1113L10.464 21.12L7.46239 21.1197V18.111C7.46239 18.111 7.25463 18.1113 6.99811 18.1113C6.74159 18.1113 7.46239 18.111 7.46239 18.111V21.1197L3.09915 21.1195C2.97727 21.1195 2.87629 21.0304 2.86816 20.915L2.22747 12.3269H5.6562V14.271C5.65736 14.8285 6.13442 15.2804 6.72407 15.2815H9.3972C9.98569 15.2804 10.4627 14.8285 10.4639 14.271V12.3269H15.5361V14.2963C15.5373 14.8395 16.0016 15.2804 16.5761 15.2815H19.3038C19.8772 15.2804 20.3426 14.8395 20.3438 14.2963V12.3269H23.8536L23.0531 20.9193ZM9.53542 14.2721C9.53542 14.3436 9.47274 14.403 9.3973 14.403H6.72417C6.64757 14.403 6.58605 14.3436 6.58489 14.2721V9.79765C6.58605 9.72618 6.64757 9.6668 6.72417 9.6668H9.3973C9.47275 9.6668 9.53542 9.72618 9.53542 9.79765V14.2721ZM19.4154 14.2974C19.4143 14.3557 19.3655 14.4019 19.304 14.403H16.5763C16.5148 14.4019 16.4649 14.3557 16.4649 14.2974V9.77256C16.4649 9.71428 16.5148 9.66699 16.5763 9.66699H19.304C19.3655 9.66699 19.4143 9.71428 19.4154 9.77256V14.2974ZM25.0715 11.1975C25.0715 11.3361 24.9532 11.4482 24.8081 11.4482H20.3441V9.77242C20.3429 9.22921 19.8775 8.78826 19.3041 8.78716H16.5764C16.0018 8.78826 15.5376 9.22921 15.5364 9.77242V11.4482H10.4642V9.7977C10.463 9.24018 9.98595 8.78826 9.39748 8.78716H6.72436C6.13471 8.78826 5.65767 9.24021 5.65648 9.7977V11.4471L1.70092 11.4482H1.19253C1.04744 11.4482 0.929051 11.3361 0.929051 11.1975V7.76572C0.929051 7.62827 1.04744 7.51611 1.19253 7.51611H24.8086C24.9537 7.51611 25.072 7.62827 25.072 7.76572L25.0715 11.1975Z" fill="white"/>
</svg>
