<svg width="18" height="23" viewBox="0 0 18 23" fill="none" xmlns="http://www.w3.org/2000/svg">
<path d="M14.2646 16.5269L14.041 17.1034C13.7582 17.83 13.2195 18.356 12.4824 18.6267C12.1786 18.7375 11.8719 18.7922 11.5667 18.7922C11.1348 18.7922 10.7072 18.68 10.3035 18.4569L10.2697 18.4373L12.9114 23L13.6639 20.2004C13.7413 19.9184 14.0311 19.7501 14.3152 19.8259L17.1229 20.5762L14.5206 16.0836C14.4151 16.2112 14.3293 16.36 14.2646 16.5269ZM5.52099 18.6267C4.78249 18.3559 4.24375 17.83 3.96103 17.1034L3.73737 16.5255C3.67267 16.3586 3.58686 16.2099 3.48136 16.0823L0.879055 20.575L3.68673 19.8246C3.97087 19.7488 4.26206 19.9172 4.33801 20.1991L5.09055 22.9987L7.73221 18.4375L7.69845 18.4571C7.01059 18.8344 6.25808 18.8931 5.52099 18.6267ZM17.6521 8.77199L17.2624 9.25591C16.6857 9.97405 16.5254 10.8844 16.8207 11.7554L17.0205 12.3402C17.1738 12.7905 17.1302 13.2253 16.8939 13.6335C16.6548 14.0444 16.2989 14.2997 15.8333 14.3923L15.2242 14.5129C14.3183 14.691 13.6066 15.2857 13.2732 16.1456L13.0495 16.7221C12.8779 17.1625 12.5642 17.4682 12.1169 17.6324C11.6696 17.7937 11.2336 17.76 10.8158 17.5314L10.2714 17.2326C9.86771 17.0124 9.43307 16.9016 8.99983 16.9016C8.56659 16.9016 8.13192 17.0124 7.72824 17.2326L7.18247 17.53C6.76753 17.76 6.33004 17.7923 5.88413 17.6324C5.43681 17.4683 5.12313 17.1611 4.95154 16.7221L4.72788 16.1442C4.39451 15.2858 3.68416 14.6896 2.77826 14.5115L2.16918 14.3909C1.70357 14.2983 1.34628 14.043 1.10858 13.6335C0.872261 13.2239 0.828654 12.7891 0.98057 12.3402L1.07763 12.0555L1.08185 12.0443L1.18172 11.754C1.47852 10.8815 1.31817 9.97124 0.74002 9.25311L0.35039 8.77059C0.0535869 8.40171 -0.0561279 7.97812 0.0268611 7.51244C0.109854 7.04536 0.357424 6.6835 0.762548 6.43804L1.29287 6.11684C2.08199 5.64136 2.5462 4.84045 2.5673 3.91894L2.57996 3.29897C2.58981 2.82629 2.7783 2.43214 3.14262 2.12779C3.50694 1.82342 3.92894 1.70419 4.39876 1.77714L5.01205 1.87111C5.92354 2.01278 6.79567 1.69579 7.40193 1.00428L7.81407 0.537204C8.12635 0.180939 8.52585 0 9.00129 0C9.47533 0 9.87482 0.180939 10.1857 0.537204L10.1871 0.538607L10.5964 1.00288C11.2027 1.69578 12.0748 2.01277 12.9863 1.87111L13.6024 1.77714C14.0708 1.7042 14.4928 1.82202 14.8571 2.12779C15.2215 2.43216 15.4114 2.82629 15.4198 3.29897L15.4325 3.92034C15.4536 4.84045 15.9178 5.64136 16.7055 6.11544L17.2358 6.43664C17.6437 6.6835 17.8913 7.04397 17.9715 7.51104C18.0573 7.97952 17.9489 8.40172 17.6521 8.77199ZM14.3549 8.86737C14.3549 5.92468 11.9538 3.53052 9.00274 3.53052C6.05019 3.53052 3.64767 5.92479 3.64767 8.86737C3.64767 11.81 6.05023 14.2042 9.00274 14.2042C11.9539 14.2042 14.3549 11.8113 14.3549 8.86737ZM12.6192 7.37076L10.2378 7.37638L9.50634 5.11535C9.47117 5.00594 9.40224 4.91337 9.31362 4.85026C9.22501 4.78574 9.11669 4.74927 9.00135 4.74786C8.77066 4.74786 8.56671 4.89654 8.49498 5.11534L7.7621 7.37776L5.38064 7.37215H5.37923C5.14854 7.37215 4.94459 7.51943 4.87426 7.73822C4.80252 7.95703 4.8813 8.19546 5.06697 8.33151L6.9969 9.72431L6.257 11.9811C6.18526 12.1985 6.26263 12.4384 6.44971 12.5744C6.63539 12.7091 6.8886 12.7091 7.07568 12.573L8.99998 11.1746L10.9243 12.573C11.0171 12.6417 11.1283 12.674 11.238 12.674C11.3477 12.674 11.4574 12.6403 11.5502 12.573C11.7373 12.4384 11.8147 12.1985 11.743 11.9797L11.0003 9.72434L12.9302 8.33155C13.1173 8.19549 13.1946 7.95704 13.1229 7.73826C13.0512 7.51945 12.8486 7.37218 12.6179 7.37218L12.6193 7.36938L12.6192 7.37076Z" fill="white"/>
</svg>
