<svg width="23" height="20" viewBox="0 0 23 20" fill="none" xmlns="http://www.w3.org/2000/svg">
<path d="M19.8676 10.942C19.8729 11.114 19.8423 11.2852 19.7776 11.4456C19.7129 11.606 19.6155 11.7522 19.4911 11.8757C19.3666 11.9991 19.2177 12.0972 19.0532 12.1642C18.8887 12.2311 18.7119 12.2656 18.5333 12.2655H18.1747C18.3994 12.3887 18.582 12.5722 18.7002 12.7937C18.8185 13.0152 18.8673 13.265 18.8407 13.5127C18.7994 13.8339 18.6367 14.129 18.3837 14.3418C18.1306 14.5545 17.805 14.6699 17.4691 14.6658H17.1548C17.3795 14.789 17.5621 14.9725 17.6803 15.194C17.7986 15.4154 17.8474 15.6653 17.8208 15.913C17.7795 16.2341 17.6168 16.5293 17.3637 16.742C17.1107 16.9548 16.7851 17.0701 16.4492 17.066H16.1349C16.3595 17.1892 16.5421 17.3728 16.6604 17.5942C16.7787 17.8157 16.8274 18.0655 16.8008 18.3133C16.7596 18.6344 16.5969 18.9296 16.3438 19.1423C16.0907 19.355 15.7651 19.4704 15.4293 19.4663H14.7587L6.77622 19.556C6.72078 19.5566 6.66578 19.5466 6.61439 19.5266C6.56299 19.5066 6.51624 19.4769 6.47682 19.4394C6.43741 19.4018 6.40611 19.3571 6.38476 19.3078C6.3634 19.2585 6.35241 19.2056 6.35241 19.1522V11.3727C6.34975 11.2863 6.37529 11.2014 6.42542 11.1297C6.47555 11.0581 6.54775 11.0034 6.63185 10.9734L7.56328 10.6594L10.6813 4.27735C10.7404 4.04254 10.8855 3.83618 11.0899 3.69623C11.2944 3.55627 11.5444 3.49213 11.794 3.51561C12.0436 3.53908 12.276 3.64859 12.4485 3.82399C12.621 3.99939 12.7219 4.22889 12.7328 4.47027L12.0039 9.69701H18.4844C18.8369 9.69356 19.1772 9.82096 19.4347 10.0528C19.6922 10.2846 19.8473 10.603 19.8676 10.942ZM5.30687 12.0502V18.6767C5.30687 19.0122 5.16851 19.334 4.92221 19.5713C4.67591 19.8086 4.34186 19.9419 3.99354 19.9419H1.31333C0.965013 19.9419 0.630962 19.8086 0.384665 19.5713C0.138368 19.334 0 19.0122 0 18.6767V12.0502C0 11.7146 0.138368 11.3928 0.384665 11.1555C0.630962 10.9183 0.965013 10.785 1.31333 10.785H3.99587C4.34379 10.7856 4.67724 10.9191 4.92303 11.1563C5.16883 11.3935 5.30687 11.715 5.30687 12.0502ZM22.5641 2.79233L20.0748 2.44463L18.9501 0.270933C18.9084 0.189591 18.8438 0.121118 18.7638 0.0732433C18.6837 0.025369 18.5914 0 18.4972 0C18.403 0 18.3107 0.025369 18.2306 0.0732433C18.1506 0.121118 18.0861 0.189591 18.0443 0.270933L16.9312 2.44463L14.4513 2.79233C14.3581 2.80552 14.2706 2.84355 14.1986 2.90211C14.1267 2.96068 14.0732 3.03745 14.0441 3.12376C14.015 3.21008 14.0116 3.3025 14.0342 3.39059C14.0567 3.47869 14.1044 3.55895 14.1718 3.62233L15.9742 5.31372L15.548 7.70277C15.5319 7.79238 15.5422 7.88454 15.5777 7.96882C15.6132 8.05309 15.6725 8.1261 15.7488 8.17958C15.8252 8.23306 15.9155 8.26486 16.0097 8.27138C16.1039 8.2779 16.198 8.25888 16.2816 8.21647L18.5077 7.09485L20.7338 8.21647C20.8173 8.25888 20.9115 8.2779 21.0057 8.27138C21.0998 8.26486 21.1902 8.23306 21.2666 8.17958C21.3429 8.1261 21.4022 8.05309 21.4377 7.96882C21.4732 7.88454 21.4834 7.79238 21.4673 7.70277L21.0459 5.31372L22.8482 3.62233C22.9157 3.55866 22.9633 3.47804 22.9857 3.38961C23.008 3.30118 23.0042 3.20849 22.9746 3.12206C22.945 3.03563 22.8909 2.95892 22.8183 2.90064C22.7457 2.84235 22.6577 2.80483 22.5641 2.79233Z" fill="white"/>
</svg>
