<svg width="19" height="21" viewBox="0 0 19 21" fill="none" xmlns="http://www.w3.org/2000/svg">
<path fill-rule="evenodd" clip-rule="evenodd" d="M2.73811 0H13.5225C15.0288 0 16.2612 1.23248 16.2612 2.73811V6.82886C15.8988 6.74285 15.5206 6.69623 15.1318 6.69623C12.4528 6.69623 10.2814 8.86767 10.2814 11.5467C10.2814 13.0201 10.9387 14.3393 11.9755 15.229V18.8588H2.73811C1.23182 18.8588 0 17.6263 0 16.1207V2.73877C0 1.23248 1.23248 0.000656636 2.73811 0.000656636V0ZM17.3059 15.8837V20.0447L15.1318 18.4635L12.9578 20.0447V15.8837C13.6118 16.212 14.3498 16.3972 15.1318 16.3972C15.9139 16.3972 16.6519 16.212 17.3059 15.8837ZM15.1318 7.67919C17.2678 7.67919 19 9.4107 19 11.5467C19 13.6827 17.2685 15.4148 15.1318 15.4148C12.9959 15.4148 11.2643 13.6833 11.2643 11.5467C11.2643 9.4107 12.9959 7.67919 15.1318 7.67919ZM3.7828 5.51693C3.51161 5.51693 3.29164 5.29697 3.29164 5.02578C3.29164 4.7546 3.51161 4.53463 3.7828 4.53463H10.3891C10.6602 4.53463 10.8802 4.7546 10.8802 5.02578C10.8802 5.29697 10.6602 5.51693 10.3891 5.51693H3.7828ZM3.7828 14.2684C3.51161 14.2684 3.29164 14.0484 3.29164 13.7772C3.29164 13.506 3.51161 13.2861 3.7828 13.2861H7.735C8.00619 13.2861 8.22615 13.506 8.22615 13.7772C8.22615 14.0484 8.00619 14.2684 7.735 14.2684H3.7828ZM3.7828 9.89266C3.51161 9.89266 3.29164 9.67269 3.29164 9.40151C3.29164 9.13032 3.51161 8.91035 3.7828 8.91035H7.735C8.00619 8.91035 8.22615 9.13032 8.22615 9.40151C8.22615 9.67269 8.00619 9.89266 7.735 9.89266H3.7828Z" fill="white"/>
</svg>
