<svg width="20" height="20" viewBox="0 0 20 20" fill="none" xmlns="http://www.w3.org/2000/svg">
<path d="M19.2216 15.4818L10.5552 6.81427C11.0754 4.94224 10.5579 2.95356 9.17954 1.57509C7.74654 0.141889 5.65444 -0.36084 3.72162 0.264117C3.5985 0.303001 3.50593 0.403917 3.47537 0.529833C3.44481 0.655748 3.48277 0.787206 3.57349 0.877958L6.13574 3.44055L5.70436 5.70422L3.44007 6.13565L0.877827 3.57306C0.787108 3.48233 0.653806 3.44344 0.529748 3.47492C0.404778 3.50455 0.303876 3.59806 0.264068 3.7212C-0.360782 5.65621 0.141876 7.74759 1.57486 9.17986C2.95417 10.5594 4.94261 11.0769 6.81429 10.5566L15.4807 19.2242C15.9806 19.7241 16.6453 20 17.3525 20C18.0597 20 18.7244 19.725 19.2243 19.2242C19.7242 18.7242 20 18.0595 20 17.3521C20 16.6448 19.7251 15.98 19.2243 15.4801L19.2216 15.4818ZM17.2202 18.5185C16.5046 18.5185 15.9242 17.938 15.9242 17.2223C15.9242 16.5066 16.5046 15.9261 17.2202 15.9261C17.9358 15.9261 18.5162 16.5066 18.5162 17.2223C18.5162 17.938 17.9358 18.5185 17.2202 18.5185Z" fill="white"/>
</svg>
