<svg width="35" height="35" viewBox="0 0 35 35" fill="none" xmlns="http://www.w3.org/2000/svg">
<circle cx="17.5" cy="17.5" r="17.0833" stroke="#231F20" stroke-width="0.833333"/>
<path d="M20.3801 24.5191H15.1389C12.8571 24.5191 11 22.662 11 20.3801V15.1389C11 12.8571 12.8571 11 15.1389 11H20.3801C22.662 11 24.5191 12.8571 24.5191 15.1389V20.3801C24.5191 22.662 22.662 24.5191 20.3801 24.5191ZM15.1389 12.011C13.4152 12.011 12.011 13.4135 12.011 15.1389V20.3801C12.011 22.1038 13.4135 23.508 15.1389 23.508H20.3801C22.1038 23.508 23.508 22.1056 23.508 20.3801V15.1389C23.508 13.4152 22.1056 12.011 20.3801 12.011H15.1389Z" fill="#231F20"/>
<path d="M17.7591 21.1788C15.8739 21.1788 14.3398 19.6447 14.3398 17.7596C14.3398 15.8744 15.8739 14.3403 17.7591 14.3403C19.6443 14.3403 21.1784 15.8744 21.1784 17.7596C21.1784 19.6447 19.6443 21.1788 17.7591 21.1788ZM17.7591 15.3742C16.4444 15.3742 15.3755 16.4431 15.3755 17.7578C15.3755 19.0725 16.4444 20.1415 17.7591 20.1415C19.0738 20.1415 20.1428 19.0725 20.1428 17.7578C20.1428 16.4431 19.0738 15.3742 17.7591 15.3742Z" fill="#231F20"/>
<path d="M22.4439 13.9663C22.4439 14.4578 22.0455 14.8563 21.554 14.8563C21.0625 14.8563 20.6641 14.4578 20.6641 13.9663C20.6641 13.4749 21.0625 13.0764 21.554 13.0764C22.0455 13.0764 22.4439 13.4749 22.4439 13.9663Z" fill="#231F20"/>
</svg>
