<svg width="35" height="35" viewBox="0 0 35 35" fill="none" xmlns="http://www.w3.org/2000/svg">
<path d="M20.3779 14.9089C21.2427 14.9089 21.9949 15.2037 22.5312 15.8123C23.0682 16.4217 23.3955 17.3525 23.3955 18.6335V23.3953H20.8389V18.9568C20.8389 18.3874 20.7415 17.8995 20.5156 17.5525C20.2873 17.2018 19.9311 17.0009 19.4307 17.0007C18.662 17.0007 18.2066 17.5432 18.0088 18.0574C17.9339 18.247 17.917 18.5083 17.917 18.7595V23.3953H15.3604C15.3604 23.3865 15.3603 23.3767 15.3604 23.366C15.3606 23.31 15.3609 23.2276 15.3613 23.1228C15.3622 22.9132 15.3639 22.6126 15.3652 22.2498C15.368 21.5237 15.3709 20.5466 15.373 19.5457C15.3772 17.6293 15.3758 15.6198 15.3604 15.1062H17.917V16.2234C17.9138 16.2286 17.9104 16.2339 17.9072 16.239L17.8555 16.324H18.0293V16.2566C18.2014 15.9803 18.4366 15.653 18.792 15.3904C19.1642 15.1154 19.6703 14.909 20.3779 14.9089ZM13.7705 15.1062V23.3953H11.2139V15.1062H13.7705ZM12.5098 11.0554C12.9527 11.0554 13.3066 11.2078 13.5518 11.4558C13.7666 11.6732 13.9006 11.9676 13.9365 12.3054L13.9463 12.4529C13.9459 12.8417 13.8062 13.1897 13.5566 13.4402C13.307 13.6908 12.9439 13.8474 12.4922 13.8474H12.4746C11.6112 13.8473 11.0557 13.2271 11.0557 12.4509C11.0558 12.053 11.2004 11.7053 11.4521 11.4568C11.7039 11.2083 12.0665 11.0555 12.5098 11.0554Z" fill="#231F20" stroke="#231F20" stroke-width="0.112241"/>
<circle cx="17.5" cy="17.5" r="17.0833" stroke="#231F20" stroke-width="0.833333"/>
</svg>
