<svg width="18" height="18" viewBox="0 0 18 18" fill="none" xmlns="http://www.w3.org/2000/svg">
<path d="M17.175 16.5808L12.0255 11.427C13.1894 10.1076 13.7941 8.38704 13.7116 6.62958C13.6292 4.87211 12.866 3.21573 11.5836 2.01115C10.3012 0.806556 8.6004 0.148328 6.84122 0.175827C5.08204 0.203327 3.40261 0.914395 2.15853 2.15848C0.914445 3.40256 0.203377 5.08199 0.175877 6.84117C0.148377 8.60035 0.806606 10.3012 2.0112 11.5835C3.21578 12.8659 4.87216 13.6291 6.62963 13.7116C8.38709 13.7941 10.1077 13.1893 11.4271 12.0254L16.5809 17.175L17.175 16.5808ZM6.97699 12.8766C5.81014 12.8766 4.66949 12.5306 3.69929 11.8824C2.72909 11.2341 1.97291 10.3127 1.52637 9.23466C1.07984 8.15663 0.963004 6.97039 1.19065 5.82596C1.41829 4.68153 1.98018 3.63031 2.80527 2.80522C3.63036 1.98013 4.68158 1.41824 5.82601 1.1906C6.97044 0.962955 8.15668 1.07979 9.23471 1.52632C10.3127 1.97286 11.2341 2.72904 11.8824 3.69924C12.5307 4.66944 12.8767 5.81009 12.8767 6.97694C12.8767 8.54164 12.2551 10.0423 11.1487 11.1487C10.0423 12.2551 8.54169 12.8766 6.97699 12.8766Z" fill="#231F20" stroke="#231F20" stroke-width="0.35"/>
</svg>
