<svg width="17" height="18" viewBox="0 0 17 18" fill="none" xmlns="http://www.w3.org/2000/svg">
<path d="M6.77246 0.780273C7.44604 0.50137 8.18731 0.429059 8.90234 0.571289C9.61749 0.713565 10.2744 1.06448 10.79 1.58008C11.3056 2.09569 11.6566 2.75261 11.7988 3.46777C11.9411 4.18294 11.8679 4.92398 11.5889 5.59766C11.3098 6.27136 10.8378 6.8478 10.2314 7.25293C9.62516 7.65799 8.91176 7.87305 8.18262 7.87305C7.20537 7.87166 6.26821 7.48399 5.57715 6.79297C4.88589 6.10171 4.49726 5.16411 4.49609 4.18652L4.50586 3.91406C4.55283 3.28101 4.76284 2.66906 5.11719 2.13867C5.52231 1.53236 6.09876 1.05933 6.77246 0.780273Z" stroke="#231F20"/>
<path d="M6.68457 10.0694C8.1749 9.77304 9.72016 9.92547 11.124 10.5069C12.5276 11.0884 13.7271 12.073 14.5713 13.336C15.3227 14.4604 15.7619 15.761 15.8496 17.1046H0.517578C0.570261 16.2663 0.758735 15.4413 1.08105 14.6632C1.46723 13.7311 2.03456 12.8844 2.75 12.173L2.75098 12.172C3.82548 11.0977 5.19431 10.3658 6.68457 10.0694Z" stroke="#231F20"/>
</svg>
