<svg width="66" height="66" viewBox="0 0 66 66" fill="none" xmlns="http://www.w3.org/2000/svg">
<g clip-path="url(#clip0_536_723)">
<path d="M32.9899 65.9119C51.187 65.9119 65.9388 51.1602 65.9388 32.963C65.9388 14.7659 51.187 0.0141602 32.9899 0.0141602C14.7927 0.0141602 0.0410156 14.7659 0.0410156 32.963C0.0410156 51.1602 14.7927 65.9119 32.9899 65.9119Z" fill="white"/>
<path d="M32.9891 3.82563C49.0801 3.82563 62.1267 16.8699 62.1267 32.9632C62.1267 49.0565 49.0824 62.1008 32.9891 62.1008C16.8958 62.1008 3.85151 49.0565 3.85151 32.9632C3.85151 16.8699 16.8958 3.82563 32.9891 3.82563ZM32.9891 3.36084C25.0831 3.36084 17.6488 6.44006 12.0574 12.0315C6.46594 17.6229 3.38672 25.0572 3.38672 32.9632C3.38672 40.8693 6.46594 48.3036 12.0574 53.895C17.6488 59.4864 25.0831 62.5656 32.9891 62.5656C40.8952 62.5656 48.3295 59.4864 53.9209 53.895C59.5123 48.3036 62.5915 40.8693 62.5915 32.9632C62.5915 25.0572 59.5123 17.6229 53.9209 12.0315C48.3295 6.44006 40.8952 3.36084 32.9891 3.36084Z" fill="#231F20"/>
<path d="M32.9902 60.5643C48.234 60.5643 60.5916 48.2067 60.5916 32.9628C60.5916 17.7189 48.234 5.36133 32.9902 5.36133C17.7463 5.36133 5.38867 17.7189 5.38867 32.9628C5.38867 48.2067 17.7463 60.5643 32.9902 60.5643Z" fill="#231F20"/>
<path d="M31.3901 14.4179C31.4157 14.0833 31.4413 13.7463 31.4668 13.4117C31.4831 13.2118 31.497 13.012 31.5156 12.8144C31.5203 12.7703 31.5087 12.7401 31.4784 12.7075C31.3832 12.5983 31.2879 12.4867 31.1949 12.3752C31.0113 12.1521 30.8277 11.9267 30.6441 11.7036C30.5837 11.6292 30.5233 11.5572 30.4606 11.4851C30.442 11.4642 30.4513 11.441 30.4861 11.4317C30.5187 11.4224 30.5535 11.4154 30.5884 11.4084C30.6813 11.3875 30.7766 11.3666 30.8696 11.3457C30.9625 11.3248 31.0578 11.3015 31.1508 11.2806C31.2553 11.2574 31.3599 11.2341 31.4645 11.2109C31.5575 11.19 31.6527 11.1667 31.7457 11.1435C31.834 11.1226 31.9223 11.097 32.0129 11.0808C32.0618 11.0715 32.0943 11.0482 32.1199 11.0064C32.1942 10.8832 32.2709 10.7601 32.3476 10.6392C32.4406 10.4882 32.5335 10.3394 32.6241 10.1884C32.7334 10.0071 32.8426 9.82815 32.9541 9.64689C32.982 9.60273 33.0006 9.60273 33.0262 9.64689C33.1261 9.81421 33.2237 9.98153 33.3237 10.1489C33.398 10.2743 33.477 10.3975 33.5537 10.523C33.6304 10.6485 33.7048 10.774 33.7791 10.8995C33.807 10.9436 33.8326 10.9901 33.8651 11.032C33.8791 11.0505 33.9046 11.0691 33.9302 11.0738C34.0557 11.1063 34.1812 11.1342 34.3044 11.1644C34.4461 11.1993 34.5879 11.2341 34.7296 11.2667C34.8179 11.2876 34.9086 11.3062 34.9969 11.3271C35.0922 11.348 35.1851 11.3736 35.2804 11.3945C35.3339 11.4061 35.385 11.4177 35.4384 11.4294C35.4547 11.434 35.4733 11.434 35.4872 11.4433C35.5082 11.4526 35.5128 11.4689 35.4965 11.4898C35.3153 11.7152 35.134 11.9406 34.9527 12.1684C34.797 12.3613 34.6413 12.5565 34.4833 12.7494C34.4624 12.7749 34.4577 12.8005 34.4601 12.8284C34.4763 13.0561 34.4949 13.2839 34.5112 13.5093C34.5228 13.6696 34.5321 13.83 34.5437 13.988C34.553 14.1321 34.5646 14.2739 34.5763 14.4179C34.5809 14.4691 34.5693 14.4784 34.5205 14.4598C34.4461 14.4296 34.3718 14.3947 34.2974 14.3622C34.2253 14.332 34.1533 14.3017 34.0836 14.2715C34.0162 14.2413 33.9488 14.2111 33.8837 14.1832C33.8094 14.1507 33.7373 14.1182 33.663 14.0856C33.5746 14.0461 33.4887 14.0043 33.4027 13.9671C33.3167 13.9276 33.2307 13.8904 33.147 13.8532C33.1075 13.8346 33.0657 13.8207 33.0285 13.7998C32.989 13.7765 32.9565 13.7974 32.9239 13.8114C32.8542 13.8416 32.7845 13.8741 32.7148 13.9067C32.6241 13.9485 32.5312 13.988 32.4382 14.0275C32.3685 14.0577 32.2988 14.0879 32.2314 14.1158C32.1594 14.1484 32.0873 14.1786 32.0153 14.2111C31.9456 14.2413 31.8735 14.2715 31.8038 14.3017C31.7503 14.325 31.6969 14.3482 31.6434 14.3715C31.5923 14.3947 31.5412 14.4156 31.4901 14.4389C31.4715 14.4458 31.4552 14.4551 31.4389 14.4621C31.4041 14.476 31.3878 14.4621 31.3925 14.4272L31.3901 14.4179Z" fill="white"/>
<path d="M37.9897 14.4298C38.0106 14.1718 38.0292 13.9139 38.0501 13.6559C38.0617 13.5025 38.0733 13.3492 38.0873 13.1958C38.0896 13.1632 38.0803 13.1377 38.0594 13.1121C37.985 13.0285 37.913 12.9425 37.8409 12.8565C37.6992 12.6845 37.5574 12.5125 37.418 12.3406C37.3715 12.2848 37.325 12.229 37.2785 12.1732C37.2646 12.157 37.2716 12.1384 37.2971 12.1314C37.3227 12.1244 37.3483 12.1198 37.3761 12.1128C37.4482 12.0966 37.5202 12.0803 37.5923 12.064C37.6643 12.0478 37.7364 12.0292 37.8084 12.0129C37.8897 11.9943 37.9688 11.978 38.0501 11.9594C38.1221 11.9432 38.1942 11.9246 38.2662 11.9083C38.3336 11.892 38.4033 11.8735 38.4707 11.8595C38.5079 11.8525 38.5335 11.8339 38.5544 11.8014C38.6125 11.7061 38.6706 11.6132 38.7287 11.5179C38.8007 11.4017 38.8704 11.2878 38.9425 11.1716C39.0262 11.0322 39.1121 10.8927 39.1958 10.7556C39.2167 10.7208 39.2307 10.7208 39.2516 10.7556C39.3283 10.8835 39.4026 11.0136 39.4816 11.1414C39.5397 11.239 39.6002 11.332 39.6583 11.4296C39.7164 11.5249 39.7745 11.6225 39.8326 11.7201C39.8535 11.7549 39.8744 11.7898 39.8976 11.8223C39.9092 11.8363 39.9278 11.8502 39.9464 11.8549C40.0417 11.8804 40.1393 11.9013 40.2346 11.9246C40.3438 11.9501 40.4531 11.978 40.56 12.0036C40.6273 12.0199 40.6971 12.0338 40.7645 12.0501C40.8365 12.0663 40.9109 12.0849 40.9829 12.1012C41.0224 12.1105 41.0643 12.1198 41.1038 12.1291C41.1154 12.1314 41.1293 12.1337 41.1409 12.1384C41.1572 12.1454 41.1595 12.157 41.1479 12.1732C41.0085 12.3475 40.869 12.5218 40.7296 12.6938C40.6111 12.8425 40.4902 12.9913 40.3694 13.14C40.3531 13.1586 40.3508 13.1795 40.3508 13.2004C40.3647 13.3747 40.3764 13.549 40.3903 13.7233C40.3996 13.8465 40.4066 13.9697 40.4159 14.0928C40.4228 14.202 40.4321 14.3136 40.4414 14.4228C40.4438 14.4623 40.4345 14.4693 40.3996 14.4554C40.3415 14.4321 40.2857 14.4042 40.2276 14.3787C40.1719 14.3554 40.1184 14.3322 40.0626 14.3089C40.0115 14.2857 39.9604 14.2625 39.9093 14.2416C39.8535 14.216 39.7954 14.1927 39.7396 14.1672C39.6722 14.137 39.6048 14.1044 39.5397 14.0742C39.4747 14.044 39.4073 14.0161 39.3422 13.9859C39.312 13.972 39.2795 13.9627 39.2516 13.9464C39.2214 13.9301 39.1958 13.9464 39.1702 13.9557C39.1168 13.9789 39.0633 14.0045 39.0099 14.0277C38.9402 14.058 38.8681 14.0905 38.7984 14.1207C38.745 14.1439 38.6915 14.1672 38.6381 14.1904C38.5823 14.2137 38.5265 14.2392 38.4707 14.2625C38.4173 14.2857 38.3615 14.3089 38.3081 14.3322C38.2662 14.3508 38.2267 14.3694 38.1849 14.3856C38.1454 14.4019 38.1059 14.4205 38.0664 14.4368C38.0524 14.4437 38.0408 14.4507 38.0269 14.4554C37.999 14.4647 37.9873 14.4554 37.992 14.4275L37.9897 14.4298Z" fill="white"/>
<path d="M25.4994 14.4298C25.5204 14.1718 25.5389 13.9139 25.5599 13.6559C25.5715 13.5025 25.5831 13.3492 25.597 13.1958C25.5994 13.1632 25.5901 13.1377 25.5692 13.1121C25.4948 13.0285 25.4227 12.9425 25.3507 12.8565C25.2089 12.6845 25.0672 12.5125 24.9277 12.3406C24.8813 12.2848 24.8348 12.229 24.7883 12.1732C24.7744 12.157 24.7813 12.1384 24.8069 12.1314C24.8325 12.1244 24.858 12.1198 24.8859 12.1128C24.958 12.0966 25.03 12.0803 25.102 12.064C25.1741 12.0478 25.2461 12.0292 25.3182 12.0129C25.3995 11.9943 25.4785 11.978 25.5599 11.9594C25.6319 11.9432 25.7039 11.9246 25.776 11.9083C25.8434 11.892 25.9131 11.8735 25.9805 11.8595C26.0177 11.8525 26.0432 11.8339 26.0642 11.8014C26.1223 11.7061 26.1804 11.6132 26.2385 11.5179C26.3105 11.4017 26.3802 11.2878 26.4523 11.1716C26.5359 11.0322 26.6219 10.8927 26.7056 10.7556C26.7265 10.7208 26.7404 10.7208 26.7613 10.7556C26.838 10.8835 26.9124 11.0136 26.9914 11.1414C27.0495 11.239 27.1099 11.332 27.168 11.4296C27.2261 11.5249 27.2842 11.6225 27.3423 11.7201C27.3632 11.7549 27.3842 11.7898 27.4074 11.8223C27.419 11.8363 27.4376 11.8502 27.4562 11.8549C27.5515 11.8804 27.6491 11.9013 27.7444 11.9246C27.8536 11.9501 27.9628 11.978 28.0697 12.0036C28.1371 12.0199 28.2068 12.0338 28.2742 12.0501C28.3463 12.0663 28.4206 12.0849 28.4927 12.1012C28.5322 12.1105 28.574 12.1198 28.6135 12.1291C28.6251 12.1314 28.6391 12.1337 28.6507 12.1384C28.667 12.1454 28.6693 12.157 28.6577 12.1732C28.5182 12.3475 28.3788 12.5218 28.2394 12.6938C28.1208 12.8425 28 12.9913 27.8792 13.14C27.8629 13.1586 27.8606 13.1795 27.8606 13.2004C27.8745 13.3747 27.8861 13.549 27.9001 13.7233C27.9094 13.8465 27.9163 13.9697 27.9256 14.0928C27.9326 14.202 27.9419 14.3136 27.9512 14.4228C27.9535 14.4623 27.9442 14.4693 27.9094 14.4554C27.8513 14.4321 27.7955 14.4042 27.7374 14.3787C27.6816 14.3554 27.6282 14.3322 27.5724 14.3089C27.5213 14.2857 27.4701 14.2625 27.419 14.2416C27.3632 14.216 27.3051 14.1927 27.2494 14.1672C27.182 14.137 27.1146 14.1044 27.0495 14.0742C26.9844 14.044 26.917 14.0161 26.852 13.9859C26.8218 13.972 26.7892 13.9627 26.7613 13.9464C26.7311 13.9301 26.7056 13.9464 26.68 13.9557C26.6265 13.9789 26.5731 14.0045 26.5196 14.0277C26.4499 14.058 26.3779 14.0905 26.3082 14.1207C26.2547 14.1439 26.2013 14.1672 26.1478 14.1904C26.092 14.2137 26.0363 14.2392 25.9805 14.2625C25.927 14.2857 25.8713 14.3089 25.8178 14.3322C25.776 14.3508 25.7365 14.3694 25.6947 14.3856C25.6551 14.4019 25.6156 14.4205 25.5761 14.4368C25.5622 14.4437 25.5506 14.4507 25.5366 14.4554C25.5087 14.4647 25.4971 14.4554 25.5018 14.4275L25.4994 14.4298Z" fill="white"/>
<path d="M20.6665 14.4716C20.6828 14.2717 20.6967 14.0696 20.713 13.8697C20.7223 13.7512 20.7316 13.6303 20.7409 13.5118C20.7409 13.4863 20.7362 13.4677 20.7199 13.4467C20.6618 13.3817 20.6061 13.3143 20.5503 13.2492C20.4411 13.1168 20.3295 12.982 20.2203 12.8472C20.1831 12.803 20.1482 12.7612 20.1111 12.717C20.0994 12.7031 20.1064 12.6891 20.1273 12.6845C20.1483 12.6798 20.1668 12.6752 20.1878 12.6706C20.2435 12.6589 20.2993 12.645 20.3574 12.6334C20.4132 12.6217 20.469 12.6078 20.5247 12.5939C20.5875 12.5799 20.6502 12.566 20.713 12.552C20.7687 12.5381 20.8245 12.5265 20.8803 12.5125C20.9337 12.4986 20.9872 12.4846 21.0406 12.4753C21.0709 12.4684 21.0894 12.4544 21.1057 12.4312C21.1499 12.3568 21.1963 12.2848 21.2405 12.2104C21.2963 12.1198 21.3521 12.0315 21.4055 11.9408C21.4706 11.8339 21.5356 11.7247 21.603 11.6178C21.6193 11.5922 21.6309 11.5922 21.6472 11.6178C21.7076 11.7177 21.7657 11.8177 21.8261 11.9176C21.8703 11.992 21.9191 12.0663 21.9632 12.1407C22.0097 12.2151 22.0539 12.2917 22.098 12.3661C22.1143 12.394 22.1306 12.4219 22.1492 12.4451C22.1585 12.4568 22.1724 12.466 22.1887 12.4707C22.263 12.4893 22.3374 12.5056 22.4141 12.5241C22.4978 12.5451 22.5837 12.566 22.6674 12.5846C22.7209 12.5962 22.7743 12.6078 22.8278 12.6217C22.8835 12.6357 22.9416 12.6496 22.9974 12.6613C23.0299 12.6682 23.0602 12.6752 23.0927 12.6822C23.102 12.6822 23.1136 12.6845 23.1206 12.6891C23.1322 12.6961 23.1368 12.7054 23.1252 12.717C23.016 12.8518 22.9091 12.9866 22.7999 13.1214C22.7069 13.2376 22.614 13.3538 22.5187 13.4677C22.5071 13.4816 22.5024 13.4979 22.5047 13.5165C22.514 13.6513 22.5256 13.7884 22.5349 13.9232C22.5419 14.0184 22.5466 14.1137 22.5535 14.2113C22.5605 14.2973 22.5675 14.3833 22.5721 14.467C22.5721 14.4972 22.5675 14.5041 22.5396 14.4925C22.4954 14.4739 22.4513 14.453 22.4048 14.4344C22.363 14.4158 22.3188 14.3972 22.277 14.3787C22.2375 14.3624 22.198 14.3438 22.1561 14.3252C22.112 14.3066 22.0678 14.288 22.0237 14.2671C21.9725 14.2439 21.9191 14.2183 21.868 14.1951C21.8168 14.1718 21.7657 14.1486 21.7146 14.1277C21.6913 14.1184 21.6658 14.1091 21.6449 14.0951C21.6216 14.0812 21.603 14.0951 21.5821 14.1021C21.5403 14.1207 21.4985 14.1393 21.4566 14.1579C21.4009 14.1811 21.3474 14.2067 21.2916 14.2299C21.2498 14.2485 21.208 14.2648 21.1685 14.2834C21.1243 14.302 21.0825 14.3206 21.0383 14.3415C20.9965 14.3601 20.9547 14.3763 20.9128 14.3949C20.8803 14.4089 20.8478 14.4228 20.8175 14.4368C20.7873 14.4507 20.7548 14.4623 20.7246 14.4763C20.713 14.4809 20.7037 14.4856 20.6944 14.4902C20.6735 14.4972 20.6642 14.4902 20.6665 14.4693V14.4716Z" fill="white"/>
<path d="M43.4106 14.4716C43.4269 14.2717 43.4408 14.0696 43.4571 13.8697C43.4664 13.7512 43.4757 13.6303 43.485 13.5118C43.485 13.4863 43.4803 13.4677 43.4641 13.4467C43.406 13.3817 43.3502 13.3143 43.2944 13.2492C43.1852 13.1168 43.0737 12.982 42.9644 12.8472C42.9272 12.803 42.8924 12.7612 42.8552 12.717C42.8436 12.7031 42.8506 12.6891 42.8715 12.6845C42.8924 12.6798 42.911 12.6752 42.9319 12.6706C42.9877 12.6589 43.0434 12.645 43.1015 12.6334C43.1573 12.6217 43.2131 12.6078 43.2689 12.5939C43.3316 12.5799 43.3944 12.566 43.4571 12.552C43.5129 12.5381 43.5687 12.5265 43.6244 12.5125C43.6779 12.4986 43.7313 12.4846 43.7848 12.4753C43.815 12.4684 43.8336 12.4544 43.8499 12.4312C43.894 12.3568 43.9405 12.2848 43.9846 12.2104C44.0404 12.1198 44.0962 12.0315 44.1496 11.9408C44.2147 11.8339 44.2798 11.7247 44.3472 11.6178C44.3634 11.5922 44.3751 11.5922 44.3913 11.6178C44.4518 11.7177 44.5099 11.8177 44.5703 11.9176C44.6144 11.992 44.6632 12.0663 44.7074 12.1407C44.7539 12.2151 44.798 12.2917 44.8422 12.3661C44.8584 12.394 44.8747 12.4219 44.8933 12.4451C44.9026 12.4568 44.9165 12.466 44.9328 12.4707C45.0072 12.4893 45.0815 12.5056 45.1582 12.5241C45.2419 12.5451 45.3279 12.566 45.4115 12.5846C45.465 12.5962 45.5184 12.6078 45.5719 12.6217C45.6277 12.6357 45.6858 12.6496 45.7415 12.6613C45.7741 12.6682 45.8043 12.6752 45.8368 12.6822C45.8461 12.6822 45.8577 12.6845 45.8647 12.6891C45.8763 12.6961 45.881 12.7054 45.8694 12.717C45.7601 12.8518 45.6532 12.9866 45.544 13.1214C45.4511 13.2376 45.3581 13.3538 45.2628 13.4677C45.2512 13.4816 45.2465 13.4979 45.2489 13.5165C45.2582 13.6513 45.2698 13.7884 45.2791 13.9232C45.2861 14.0184 45.2907 14.1137 45.2977 14.2113C45.3046 14.2973 45.3116 14.3833 45.3163 14.467C45.3163 14.4972 45.3116 14.5041 45.2837 14.4925C45.2396 14.4739 45.1954 14.453 45.1489 14.4344C45.1071 14.4158 45.063 14.3972 45.0211 14.3787C44.9816 14.3624 44.9421 14.3438 44.9003 14.3252C44.8561 14.3066 44.812 14.288 44.7678 14.2671C44.7167 14.2439 44.6632 14.2183 44.6121 14.1951C44.561 14.1718 44.5099 14.1486 44.4587 14.1277C44.4355 14.1184 44.4099 14.1091 44.389 14.0951C44.3658 14.0812 44.3472 14.0951 44.3263 14.1021C44.2844 14.1207 44.2426 14.1393 44.2008 14.1579C44.145 14.1811 44.0915 14.2067 44.0358 14.2299C43.9939 14.2485 43.9521 14.2648 43.9126 14.2834C43.8684 14.302 43.8266 14.3206 43.7825 14.3415C43.7406 14.3601 43.6988 14.3763 43.657 14.3949C43.6244 14.4089 43.5919 14.4228 43.5617 14.4368C43.5315 14.4507 43.4989 14.4623 43.4687 14.4763C43.4571 14.4809 43.4478 14.4856 43.4385 14.4902C43.4176 14.4972 43.4083 14.4902 43.4106 14.4693V14.4716Z" fill="white"/>
<path d="M19.8472 34.3299C19.6427 34.4322 19.2268 34.5367 18.6946 34.5367C17.4652 34.5367 16.5449 33.7605 16.5449 32.3313C16.5449 30.9021 17.4675 30.0469 18.8224 30.0469C19.3615 30.0469 19.7101 30.1607 19.8565 30.2374L19.7171 30.6953C19.5056 30.5953 19.2012 30.5163 18.8387 30.5163C17.8138 30.5163 17.1375 31.1693 17.1375 32.3127C17.1375 33.3771 17.7534 34.058 18.8084 34.058C19.1547 34.058 19.5033 33.9883 19.7334 33.8791L19.8472 34.3276V34.3299Z" fill="white"/>
<path d="M24.2063 32.2474C24.2063 33.7417 23.2953 34.5388 22.1821 34.5388C21.0689 34.5388 20.2207 33.6441 20.2207 32.3288C20.2207 31.0134 21.0759 30.042 22.2402 30.042C23.4045 30.042 24.2063 30.953 24.2063 32.2474ZM20.818 32.3171C20.818 33.249 21.3246 34.0833 22.2146 34.0833C23.1047 34.0833 23.6113 33.263 23.6113 32.273C23.6113 31.4061 23.1582 30.5021 22.2216 30.5021C21.2851 30.5021 20.818 31.3666 20.818 32.3171Z" fill="white"/>
<path d="M28.6739 32.5567C28.639 31.9525 28.5995 31.2158 28.6042 30.679H28.5856C28.4345 31.1833 28.2556 31.734 28.0371 32.329L27.2679 34.4414H26.8426L26.1315 32.3685C25.9247 31.7526 25.755 31.1949 25.6319 30.679H25.6156C25.5993 31.2205 25.5714 31.9455 25.5296 32.6009L25.4134 34.4693H24.8789L25.1833 30.1143H25.9038L26.6474 32.2221C26.8264 32.7543 26.9728 33.2353 27.0867 33.6885H27.1029C27.2168 33.2469 27.3702 32.7682 27.5654 32.2221L28.3439 30.1143H29.0643L29.3339 34.4693H28.7808L28.6762 32.5567H28.6739Z" fill="white"/>
<path d="M30.2559 30.1675C30.5278 30.1187 30.8833 30.0815 31.3411 30.0815C31.8942 30.0815 32.3033 30.2094 32.5635 30.4441C32.8006 30.6532 32.947 30.967 32.947 31.3551C32.947 31.7432 32.8285 32.0615 32.6077 32.287C32.3079 32.6053 31.8245 32.7634 31.2737 32.7634C31.1018 32.7634 30.9484 32.7564 30.8183 32.7239V34.4715H30.2559V30.1699V30.1675ZM30.8183 32.2637C30.9437 32.3009 31.0994 32.3125 31.2854 32.3125C31.9686 32.3125 32.3823 31.9779 32.3823 31.3829C32.3823 30.788 31.9709 30.5254 31.3528 30.5254C31.1041 30.5254 30.9182 30.5487 30.8206 30.5696V32.2637H30.8183Z" fill="white"/>
<path d="M33.7578 30.1143H34.3249V33.9952H36.191V34.4693H33.7601V30.1143H33.7578Z" fill="white"/>
<path d="M37.4381 30.1143V34.4693H36.8711V30.1143H37.4381Z" fill="white"/>
<path d="M39.1848 33.1005L38.7339 34.4693H38.1506L39.6333 30.1143H40.3119L41.8015 34.4693H41.1996L40.7325 33.1005H39.1871H39.1848ZM40.6187 32.6613L40.1864 31.4087C40.0911 31.1228 40.0261 30.8649 39.961 30.6139H39.9447C39.882 30.8695 39.8146 31.1345 39.7286 31.4017L39.2987 32.6636H40.6163L40.6187 32.6613Z" fill="white"/>
<path d="M42.4961 34.4693V30.1143H43.1166L44.5133 32.315C44.8317 32.8263 45.085 33.2841 45.2918 33.7326L45.3057 33.7257C45.2546 33.1447 45.2453 32.6125 45.2453 31.9386V30.1143H45.7752V34.4693H45.2035L43.8161 32.2616C43.5163 31.7736 43.2235 31.2762 43.005 30.8045L42.9864 30.8114C43.019 31.3622 43.0283 31.8874 43.0283 32.6078V34.4693H42.4984H42.4961Z" fill="white"/>
<path d="M47.6457 30.5903H46.3164V30.1162H49.5467V30.5903H48.2104V34.469H47.6434V30.5903H47.6457Z" fill="white"/>
<path d="M23.52 22.9026H20.1991V26.0586H23.9128V26.9974H19.0859V18.2617H23.7176V19.2006H20.1991V21.9661H23.52V22.9003V22.9026Z" fill="white"/>
<path d="M26.4487 18.2617V23.4395C26.4487 25.3869 27.297 26.2143 28.452 26.2143C29.7139 26.2143 30.5366 25.359 30.5366 23.4395V18.2617H31.6497V23.3581C31.6497 26.0446 30.2646 27.1392 28.4078 27.1392C26.6579 27.1392 25.3379 26.1213 25.3379 23.4069V18.2617H26.4511H26.4487Z" fill="white"/>
<path d="M33.5664 18.3826C34.245 18.2687 35.0491 18.1943 35.9206 18.1943C37.5055 18.1943 38.6419 18.5778 39.3925 19.2912C40.1594 19.9977 40.6056 21.011 40.6056 22.4169C40.6056 23.8229 40.1664 25.0081 39.3739 25.8145C38.5652 26.6279 37.2406 27.0741 35.5813 27.0741C34.7888 27.0741 34.1311 27.0416 33.5687 26.9765V18.3803L33.5664 18.3826ZM34.6773 26.1097C34.9585 26.1562 35.3675 26.1631 35.7904 26.1631C38.1608 26.1678 39.439 24.8222 39.439 22.4588C39.453 20.3951 38.3073 19.0937 35.974 19.0937C35.4023 19.0937 34.9724 19.1472 34.6773 19.2076V26.1074V26.1097Z" fill="white"/>
<path d="M42.0316 18.3826C42.594 18.2664 43.3981 18.1943 44.1604 18.1943C45.3339 18.1943 46.1078 18.4221 46.6423 18.9124C47.0653 19.2959 47.3139 19.8908 47.3139 20.5741C47.3139 21.7221 46.5958 22.4843 45.6988 22.8004V22.8329C46.3518 23.0676 46.7469 23.6974 46.9561 24.6015C47.2373 25.8215 47.4418 26.6581 47.6137 26.9998H46.4657C46.3309 26.7464 46.138 26.0028 45.9033 24.9082C45.65 23.7114 45.1852 23.2489 44.1836 23.2141H43.1355V26.9998H42.0293V18.3849L42.0316 18.3826ZM43.1378 22.3588H44.2696C45.4548 22.3588 46.2031 21.7012 46.2031 20.6996C46.2031 19.5655 45.4013 19.0728 44.2324 19.0705C43.6956 19.0705 43.3237 19.1193 43.1378 19.1704V22.3588Z" fill="white"/>
<path d="M33.6723 59.8627C34.0395 57.4179 35.2247 55.4542 37.1443 53.9134C38.6967 52.6654 40.5605 52.0868 42.3871 51.4221C43.5165 51.0108 44.6739 50.6576 45.7731 50.1765C50.7184 48.0106 53.9511 44.3527 55.2896 39.0866C55.5662 38.0014 55.6034 36.3932 55.4128 35.3521C53.3933 37.7504 50.5465 38.1873 47.7368 38.7125C45.88 39.0588 44.0046 39.3399 42.3011 40.2323C38.2505 42.3564 35.9753 45.8121 34.8622 50.1416C34.732 50.6506 34.6298 51.1642 34.5438 51.6847C38.1343 46.0445 43.2075 42.4796 49.5913 40.7157C42.1245 43.9762 36.6051 49.2702 32.9821 56.6138C29.4102 49.3376 23.9489 44.0878 16.603 40.7971C22.8776 42.5586 27.8508 46.1073 31.3995 51.7033C31.4158 51.2292 31.274 50.8319 31.1764 50.4321C30.5071 47.669 29.3661 45.1382 27.4 43.042C25.2387 40.739 22.5639 39.4259 19.4544 38.9309C18.0113 38.7009 16.5681 38.4476 15.1528 38.0641C13.368 37.5807 11.7482 36.8208 10.5142 35.2847C10.3144 37.4483 10.5653 39.4747 11.4066 41.4106C13.3146 45.8075 16.5193 48.8426 21.0115 50.5135C22.7475 51.1595 24.516 51.7173 26.2241 52.4284C29.4451 53.7693 31.5784 56.0747 32.2501 59.5861C32.2663 59.6768 32.2873 59.7674 32.2942 59.8604C32.343 60.3484 32.357 60.5134 32.1362 60.5576C32.4151 60.5668 32.6963 60.5715 32.9775 60.5715C33.2587 60.5715 33.5468 60.5668 33.8304 60.5576C33.5724 60.5227 33.5933 60.3763 33.67 59.8673L33.6723 59.8627Z" fill="white"/>
</g>
<defs>
<clipPath id="clip0_536_723">
<rect width="66" height="66" fill="white"/>
</clipPath>
</defs>
</svg>
