<svg width="64" height="64" viewBox="0 0 64 64" fill="none" xmlns="http://www.w3.org/2000/svg">
<g clip-path="url(#clip0_536_712)">
<path d="M64 0V64H0V0H64ZM20.096 41.5582C20.6473 41.3184 21.1951 41.0786 21.8001 40.9916C25.9089 40.3977 29.5825 43.0609 33.7417 42.4354C34.915 42.2588 36.1139 41.8295 37.2881 41.6947C39.7764 41.4089 41.6896 42.6103 44.0303 43.0643C47.2047 43.6796 53.0731 44.2402 53.7958 39.9642C54.0723 30.935 53.6269 21.8564 53.8914 12.823L53.8291 6.93419L22.2387 6.90859C18.7921 6.03051 15.5691 7.18592 12.678 8.98987C12.1148 9.34144 10.6564 10.234 10.269 10.6752C10.1129 10.8535 10.0361 11.107 10.0523 11.3408C10.0881 11.8417 10.8928 13.5774 11.2956 13.8761C11.5447 14.0604 12.0124 14.045 12.125 14.1978C12.2103 14.313 12.3179 14.7567 12.4049 14.941C12.5602 15.273 12.8265 15.8805 13.0867 16.1143C13.1575 16.1783 13.1959 16.2654 13.312 16.2406L13.1209 15.1543C13.975 15.3591 14.8531 15.68 15.744 15.5699C15.017 15.1808 13.9563 15.1689 13.568 14.2925C13.6004 14.1201 14.0228 14.342 14.0151 14.1636C14.0023 13.8573 12.4996 13.6337 12.2001 13.4844C11.7222 13.2463 11.3843 12.6473 11.2324 12.1498C11.1147 11.7649 10.9619 11.2188 11.2614 10.8996C11.485 10.6607 12.2129 10.2025 12.5244 9.98741C15.267 8.09557 20.6319 6.17899 23.2303 9.17845C25.3056 11.5738 23.8455 14.4077 26.7324 16.5495C28.5909 17.9285 30.2601 18.7324 31.9616 20.4681C35.974 24.5615 38.3121 32.1024 34.2383 36.9229C33.9866 37.2207 32.9882 38.1158 32.9207 38.3607C32.8098 38.7652 33.6213 39.0869 33.9191 39.162C38.9897 40.4463 43.8921 36.1173 48.867 36.4416C50.7989 36.5679 52.87 37.9725 52.6635 40.1135C52.3614 43.2529 46.7055 42.6615 44.5943 42.3083C42.5617 41.9686 40.6289 40.9924 38.5587 40.8567C36.992 40.7543 35.4449 41.251 33.8867 41.303C30.1491 41.4276 26.7827 39.418 22.9436 39.9616C21.8453 40.1169 20.7377 40.6426 20.0951 41.559L20.096 41.5582ZM19.456 10.4849C19.5277 10.5574 20.1173 10.6223 20.2581 10.6172C20.8333 10.5967 21.9742 10.0412 21.2813 9.39776C20.9655 9.10421 19.4833 8.89088 19.584 9.30219C19.6173 9.43957 20.771 9.73483 19.9373 10.2315C19.8494 10.2844 19.3254 10.3535 19.456 10.4849ZM16.1126 9.35168C14.9001 9.52491 15.1151 10.7477 16.2159 10.2852C16.6289 10.112 16.7569 9.77493 17.0871 9.49419C16.8277 9.30219 16.4181 9.30731 16.1126 9.35083V9.35168ZM24.2406 42.8535C23.3737 42.9807 22.4444 43.7717 22.5434 44.7053C22.726 46.435 25.2681 46.8412 26.2665 45.5168C27.3271 44.1097 25.722 42.6368 24.2406 42.8535ZM14.208 42.9013H10.176C10.1538 43.0234 10.304 43.2384 10.304 43.3169V57.2868H14.208V55.017C14.208 54.9513 14.7294 54.0774 14.8215 53.9674C14.8958 53.8795 14.9675 53.7523 15.1031 53.7702L16.96 57.2868H21.312L17.5991 51.241C17.5881 51.1283 17.641 51.0481 17.699 50.9594C18.2596 50.0966 19.3442 49.0641 20.0294 48.2372C20.3819 47.8123 20.7087 47.3574 21.0551 46.9282H16.5111C16.4335 47.1219 16.297 47.3515 16.1792 47.5238C15.9428 47.8677 14.4239 50.1572 14.2711 50.2221C14.1935 50.2545 14.185 50.199 14.1466 50.1521L14.2071 42.9005L14.208 42.9013ZM53.888 57.2868C53.7148 55.8345 53.7591 54.3676 53.7574 52.905C53.7549 51.0976 54.121 48.314 52.2035 47.302C51.0583 46.697 49.3713 46.6765 48.093 46.7345C47.831 46.7465 46.3804 46.8719 46.2737 46.9632L45.504 49.2314C46.9504 49.2288 50.0651 48.3388 49.8918 50.7068C49.8466 50.7716 49.7673 50.7614 49.699 50.7691C49.1597 50.8356 48.4557 50.7691 47.9053 50.8314C45.7079 51.0814 43.2 51.9578 43.613 54.6697C44.055 57.5752 47.9061 57.9806 50.0087 56.6528C50.1205 56.6716 50.3159 57.2877 50.6564 57.2877H53.8889L53.888 57.2868ZM30.976 46.9291H28.096V50.0301L30.5894 57.2578L34.0403 57.2791L35.7444 51.7239C35.8622 51.7137 35.8733 51.8033 35.9006 51.8878C36.0183 52.253 36.0858 52.678 36.2061 53.0534C36.6507 54.4486 37.1311 55.837 37.5987 57.2245L40.9182 57.2894L44.416 46.9291H40.768L39.3276 52.5542L37.6892 46.9359L34.2682 46.8821C34.2238 46.8907 34.0045 47.529 33.9652 47.6467C33.6324 48.6383 33.3013 49.7118 33.0052 50.7153C32.8602 51.206 32.7697 51.974 32.5803 52.4006C32.547 52.4766 32.5214 52.5696 32.4164 52.5568L30.976 46.9299V46.9291ZM26.432 46.9291H23.4556L22.336 48.2398V57.2868H26.432V46.9291Z" fill="white"/>
<path d="M20.096 41.5584C20.7385 40.6419 21.8462 40.1162 22.9444 39.9609C26.7836 39.4174 30.15 41.427 33.8876 41.3024C35.4457 41.2503 36.9928 40.7537 38.5596 40.8561C40.6297 40.9918 42.5625 41.968 44.5952 42.3076C46.7063 42.66 52.3622 43.2522 52.6643 40.1128C52.8699 37.9718 50.7998 36.5672 48.8678 36.4409C43.8937 36.1167 38.9913 40.4465 33.92 39.1614C33.6213 39.0854 32.8098 38.7646 32.9216 38.3601C32.989 38.1152 33.9874 37.2192 34.2391 36.9222C38.3129 32.1017 35.9748 24.5608 31.9624 20.4674C30.2609 18.7317 28.5918 17.9279 26.7332 16.5489C23.8472 14.4079 25.3073 11.5731 23.2311 9.17779C20.6319 6.17832 15.2678 8.09491 12.5252 9.98675C12.2129 10.2018 11.4858 10.66 11.2623 10.899C10.9628 11.2181 11.1155 11.7642 11.2333 12.1491C11.3852 12.6474 11.7231 13.2456 12.2009 13.4837C12.5005 13.633 14.0032 13.8558 14.016 14.163C14.0237 14.3413 13.6013 14.1203 13.5688 14.2918C13.9562 15.169 15.0178 15.1801 15.7448 15.5693C14.854 15.6793 13.975 15.3585 13.1217 15.1537L13.3128 16.24C13.1968 16.2647 13.1592 16.1777 13.0876 16.1137C12.8273 15.8807 12.561 15.2723 12.4057 14.9404C12.3196 14.756 12.212 14.3123 12.1258 14.1971C12.0124 14.0444 11.5447 14.0597 11.2964 13.8754C10.8936 13.5767 10.0889 11.841 10.0531 11.3401C10.036 11.1063 10.1137 10.8529 10.2698 10.6745C10.6564 10.2334 12.1148 9.34078 12.6788 8.9892C15.569 7.18611 18.7921 6.02984 22.2396 6.90792L53.83 6.93352L53.8922 12.8224C53.6277 21.8566 54.0732 30.9344 53.7967 39.9635C53.0739 44.2396 47.2055 43.6789 44.0311 43.0637C41.6904 42.6097 39.7781 41.409 37.2889 41.6941C36.1148 41.8289 34.9158 42.259 33.7425 42.4348C29.5825 43.0594 25.9097 40.397 21.8009 40.9909C21.1968 41.078 20.6481 41.3177 20.0968 41.5575L20.096 41.5584Z" fill="#231F20"/>
<path d="M30.9757 46.9291L32.4161 52.556C32.5211 52.5697 32.5467 52.4758 32.58 52.3999C32.7694 51.9732 32.8607 51.2052 33.0049 50.7145C33.301 49.711 33.6321 48.6367 33.9649 47.6459C34.0042 47.5282 34.2235 46.8899 34.2679 46.8813L37.6889 46.9351L39.3273 52.5535L40.7677 46.9283H44.4157L40.9179 57.2886L37.5984 57.2237C37.1308 55.8362 36.6504 54.447 36.2058 53.0527C36.0863 52.6772 36.018 52.2522 35.9003 51.887C35.873 51.8017 35.8619 51.7121 35.7441 51.7232L34.04 57.2784L30.5891 57.257L28.0957 50.0293V46.9283H30.9757V46.9291Z" fill="#231F20"/>
<path d="M14.2072 42.9014L14.1466 50.153C14.185 50.1999 14.1936 50.2554 14.2712 50.223C14.424 50.159 15.9429 47.8695 16.1793 47.5247C16.297 47.3524 16.4336 47.1237 16.5112 46.9291H21.0552C20.7088 47.3583 20.3819 47.8132 20.0295 48.2381C19.3434 49.065 18.2597 50.0975 17.6991 50.9602C17.6419 51.049 17.5881 51.1284 17.5992 51.2418L21.3121 57.2877H16.9601L15.1032 53.7711C14.9675 53.7532 14.8959 53.8804 14.8216 53.9682C14.7295 54.0775 14.2081 54.9521 14.2081 55.0178V57.2877H10.3041V43.3178C10.3041 43.2393 10.1539 43.0242 10.1761 42.9022H14.2081L14.2072 42.9014Z" fill="#231F20"/>
<path d="M53.8873 57.2866H50.6548C50.3144 57.2866 50.1189 56.6705 50.0072 56.6517C47.9045 57.9787 44.0534 57.5742 43.6114 54.6686C43.1984 51.9567 45.7064 51.0803 47.9037 50.8303C48.4541 50.7671 49.1589 50.8346 49.6974 50.768C49.7657 50.7595 49.845 50.7706 49.8902 50.7057C50.0635 48.3377 46.9488 49.2277 45.5024 49.2303L46.2721 46.9621C46.3788 46.8708 47.8294 46.7454 48.0914 46.7334C49.3697 46.6754 51.0568 46.6959 52.2019 47.3009C54.1194 48.313 53.7533 51.0965 53.7558 52.9039C53.7584 54.3665 53.7132 55.8342 53.8864 57.2858L53.8873 57.2866ZM49.8553 54.7292V52.7793C49.7494 52.6394 49.5412 52.6743 49.3757 52.6846C48.658 52.7272 47.5854 52.9653 47.5641 53.8656C47.5359 55.0807 49.0326 55.0671 49.8553 54.73V54.7292Z" fill="#231F20"/>
<path d="M26.4319 46.9292V57.287H22.3359V48.2399L23.4564 46.9292H26.4319Z" fill="#231F20"/>
<path d="M24.2415 42.8534C25.7229 42.6366 27.3281 44.1095 26.2674 45.5166C25.269 46.8419 22.726 46.4348 22.5443 44.7051C22.4461 43.7716 23.3746 42.9805 24.2415 42.8534Z" fill="#231F20"/>
<path d="M19.4563 10.485C19.3258 10.3536 19.8497 10.2845 19.9376 10.2316C20.7713 9.73496 19.6176 9.4397 19.5843 9.30232C19.4836 8.89101 20.9659 9.10434 21.2816 9.39789C21.9745 10.0413 20.8328 10.5977 20.2585 10.6173C20.1185 10.6224 19.5289 10.5576 19.4563 10.485Z" fill="#231F20"/>
<path d="M16.1123 9.3515C16.4169 9.30798 16.8274 9.30286 17.0868 9.49486C16.7574 9.77561 16.6286 10.1118 16.2156 10.2859C15.1156 10.7476 14.9006 9.52558 16.1123 9.35236V9.3515Z" fill="#231F20"/>
<path d="M49.856 54.7295C49.0334 55.0666 47.5367 55.0811 47.5648 53.8651C47.5862 52.9648 48.6588 52.7267 49.3765 52.6841C49.542 52.6738 49.7494 52.6397 49.856 52.7788V54.7286V54.7295Z" fill="white"/>
</g>
<defs>
<clipPath id="clip0_536_712">
<rect width="64" height="64" fill="white"/>
</clipPath>
</defs>
</svg>
