<svg width="147" height="54" viewBox="0 0 147 54" fill="none" xmlns="http://www.w3.org/2000/svg">
<g clip-path="url(#clip0_536_650)">
<path d="M40.8264 0L58.3464 23.7065L46.6918 50.7065L17.52 54L0 30.3318L11.6545 3.33184L40.8264 0ZM13.8544 21.1117L1.65947 30.1757L15.5494 36.2174L19.0239 28.159L13.8517 21.109L13.8544 21.1117ZM11.731 5.88827L1.92969 28.6659L13.4286 20.1445L11.731 5.88827ZM2.1999 31.6114L16.9796 51.5614L15.3583 37.3052L2.1999 31.6114ZM26.5489 10.7682L12.6972 4.72651L14.4331 19.7965L23.0771 18.7882L26.5516 10.771L26.5489 10.7682ZM38.7411 1.27958L14.1246 4.14563L27.2449 9.83935L38.7438 1.27958H38.7411ZM19.4879 27.0384L22.6513 19.9089L14.9735 20.7994L19.4879 27.0356V27.0384ZM18.1369 52.4903L30.3291 43.4647L25.1214 36.4147L16.4392 37.3846L18.1369 52.493V52.4903ZM16.7094 36.2968L43.4111 33.2363L27.3977 11.5053L16.7094 36.2968ZM19.6025 52.7204L44.2217 49.8927L31.1015 44.1606L19.6025 52.7204ZM26.3169 36.2585L30.9487 42.4564L33.9974 35.368L26.3169 36.2585ZM41.9072 16.6181L40.2095 1.50974L28.0173 10.5737L33.2659 17.6237L41.9099 16.6154L41.9072 16.6181ZM31.7975 43.2701L45.6874 49.3146L43.9515 34.2062L35.2693 35.2529L31.7975 43.2701ZM33.9565 18.5937L38.5883 24.8683L41.637 17.7388L33.9592 18.5909L33.9565 18.5937ZM39.3197 25.8766L44.5302 32.9266L56.6842 23.8627L42.7915 17.821L39.3197 25.8793V25.8766ZM56.1465 22.4297L41.3668 2.44134L42.988 16.7359L56.1465 22.4297ZM46.6154 48.1117L56.4549 25.3341L44.9559 33.8938L46.6154 48.109" fill="white"/>
<path d="M84.6413 39.9656V23.1529H90.4304V50.268H84.4503L73.6855 33.6498V50.268H67.8965V23.6954L73.762 23.0762L84.6413 39.9656Z" fill="white"/>
<path d="M95.1004 44.0318C96.4132 44.5744 97.7288 44.9991 99.0553 45.3114C100.379 45.621 101.583 45.7772 102.664 45.7772C104.208 45.7772 105.319 45.5334 106.002 45.0402C106.684 44.5497 107.025 43.8263 107.025 42.8701C107.025 41.9138 106.673 41.1466 105.963 40.5657C105.257 39.9848 104.208 39.4478 102.819 38.9573C101.662 38.5436 100.562 38.1189 99.5193 37.6778C98.4767 37.2394 97.5623 36.7078 96.779 36.0913C95.9956 35.4721 95.3706 34.7103 94.9066 33.8061C94.4426 32.9019 94.2133 31.7648 94.2133 30.3976C94.2133 29.0303 94.4754 27.9453 95.0049 26.989C95.5316 26.0327 96.2522 25.2327 97.1666 24.586C98.0782 23.9394 99.1536 23.4626 100.387 23.153C101.624 22.8434 102.947 22.6899 104.361 22.6899C105.852 22.6899 107.295 22.8516 108.682 23.1749C110.071 23.4982 111.253 23.8517 112.23 24.2408L111.111 28.8495C109.902 28.4111 108.698 28.0741 107.503 27.8411C106.307 27.6082 105.218 27.4932 104.241 27.4932C103.005 27.4932 102.009 27.7315 101.25 28.2111C100.491 28.6878 100.112 29.4194 100.112 30.4003C100.112 30.8908 100.245 31.3182 100.516 31.6799C100.786 32.0416 101.16 32.3649 101.635 32.6471C102.109 32.9321 102.683 33.2033 103.351 33.4609C104.02 33.7212 104.765 33.9925 105.589 34.2747C106.67 34.661 107.661 35.0939 108.559 35.5734C109.46 36.0529 110.238 36.6119 110.893 37.2585C111.55 37.9052 112.064 38.6532 112.438 39.5053C112.811 40.3575 112.997 41.3384 112.997 42.4508C112.997 44.9552 112.162 46.9582 110.489 48.4542C108.816 49.953 106.397 50.701 103.234 50.701C102.41 50.701 101.555 50.6489 100.668 50.5476C99.7813 50.4434 98.9243 50.301 98.1027 50.1229C97.2785 49.942 96.4951 49.7283 95.75 49.4844C95.0021 49.2378 94.3607 48.9885 93.8203 48.7282L95.0949 44.0401" fill="white"/>
<path d="M132.646 50.2683L130.678 43.8375H121.84L119.987 50.2683H113.736L122.727 23.7314L129.673 22.9971L138.896 50.2683H132.646ZM123.191 39.2672H129.25L126.163 29.1566L123.191 39.2672Z" fill="white"/>
<path d="M146.999 23.0762V50.268H141.213V23.6954L146.999 23.0762Z" fill="white"/>
</g>
<defs>
<clipPath id="clip0_536_650">
<rect width="147" height="54" fill="white"/>
</clipPath>
</defs>
</svg>
