<svg width="103" height="58" viewBox="0 0 103 58" fill="none" xmlns="http://www.w3.org/2000/svg">
<g clip-path="url(#clip0_536_656)">
<path d="M97.877 57.5062H5.09753V32.4106H97.877V57.5062ZM5.13684 57.4679H97.8388V32.45H5.13684V57.4679Z" fill="white"/>
<path fill-rule="evenodd" clip-rule="evenodd" d="M18.7273 42.8539V42.6903C21.0487 42.3238 21.5416 40.83 21.5416 38.5447C21.5416 34.669 19.42 34.0039 15.8736 34.0039H6.50195V51.8388H15.9777C19.7578 51.8388 21.8104 51.2418 21.8104 46.8646C21.8104 44.609 21.3472 43.0568 18.7273 42.8539ZM11.2733 37.9179H15.2457C16.5759 37.9466 16.7682 38.3429 16.7682 39.4021C16.7682 40.8682 16.3729 41.1285 14.6858 41.1285H11.2722V37.9179H11.2733ZM14.8792 47.9238H11.2733V44.4444H14.9461C16.5079 44.4444 17.038 44.6462 17.038 46.1294C17.038 47.6125 16.4027 47.9227 14.8792 47.9227V47.9238Z" fill="white"/>
<path fill-rule="evenodd" clip-rule="evenodd" d="M34.8363 42.8539V42.6903C37.1885 42.3238 37.6506 40.83 37.6506 38.5447C37.6506 34.669 35.529 34.0039 32.0219 34.0039H22.6035V51.8388H32.1175C35.8594 51.8388 37.9131 51.2418 37.9131 46.8646C37.9131 44.609 37.4892 43.0568 34.8373 42.8539H34.8363ZM27.3738 37.9179H31.3568C32.7146 37.9466 32.909 38.3429 32.909 39.4021C32.909 40.8682 32.4841 41.1285 30.8267 41.1285H27.3738V37.9179ZM30.9914 47.9238H27.3738V44.4444H31.0859C32.6477 44.4444 33.1396 44.6462 33.1396 46.1294C33.1396 47.6125 32.5138 47.9227 30.9914 47.9227V47.9238Z" fill="white"/>
<path fill-rule="evenodd" clip-rule="evenodd" d="M50.2103 34.0049H42.9805L37.5823 51.8388H42.5863L43.4819 48.7832H49.8745L50.8105 51.8388H55.6499L50.2113 34.0049H50.2103ZM44.4764 45.273L46.6639 37.5799H46.6926L48.9184 45.273H44.4753H44.4764Z" fill="white"/>
<path fill-rule="evenodd" clip-rule="evenodd" d="M51.4363 0L0 30.3312H103L90.201 22.8028H25.6023L57.831 3.76205L51.4363 0Z" fill="white"/>
<path fill-rule="evenodd" clip-rule="evenodd" d="M61.2098 5.7666L35.123 20.8445H86.9099L61.2098 5.7666Z" fill="white"/>
<path d="M57.7343 36.558L57.4082 37.5471H56.9885L58.0573 34.4023H58.5471L59.6201 37.5471H59.1867L58.851 36.558H57.7354H57.7343ZM58.7649 36.2414L58.4568 35.3362C58.3867 35.1312 58.3399 34.9442 58.2932 34.7625H58.2836C58.2369 34.9495 58.1859 35.1407 58.1253 35.332L57.8172 36.2414H58.7638H58.7649Z" fill="white"/>
<path d="M60.2483 34.4409C60.4438 34.408 60.7009 34.3804 61.027 34.3804C61.4286 34.3804 61.7219 34.4739 61.9089 34.6417C62.081 34.7915 62.184 35.02 62.184 35.2994C62.184 35.5788 62.1001 35.8083 61.9418 35.9708C61.7272 36.1992 61.3776 36.3161 60.9803 36.3161C60.8592 36.3161 60.7466 36.3119 60.6541 36.2885V37.5485H60.2483V34.4409ZM60.6552 35.957C60.7434 35.9804 60.856 35.9899 60.9909 35.9899C61.4807 35.9899 61.7792 35.752 61.7792 35.3185C61.7792 34.885 61.485 34.7023 61.0377 34.7023C60.8602 34.7023 60.7253 34.7161 60.6552 34.7352V35.9581V35.957Z" fill="white"/>
<path d="M62.8928 34.4409C63.0883 34.408 63.3454 34.3804 63.6716 34.3804C64.0732 34.3804 64.3664 34.4739 64.5534 34.6417C64.7255 34.7915 64.8286 35.02 64.8286 35.2994C64.8286 35.5788 64.7446 35.8083 64.5863 35.9708C64.3717 36.1992 64.0222 36.3161 63.6248 36.3161C63.5037 36.3161 63.3911 36.3119 63.2987 36.2885V37.5485H62.8928V34.4409ZM63.2987 35.957C63.3869 35.9804 63.4995 35.9899 63.6344 35.9899C64.1242 35.9899 64.4227 35.752 64.4227 35.3185C64.4227 34.885 64.1284 34.7023 63.6811 34.7023C63.5037 34.7023 63.3688 34.7161 63.2987 34.7352V35.9581V35.957Z" fill="white"/>
<path d="M65.5384 34.4452C65.7435 34.4027 66.0378 34.3804 66.3172 34.3804C66.7506 34.3804 67.0311 34.4601 67.2266 34.6375C67.3849 34.7777 67.4742 34.9923 67.4742 35.2346C67.4742 35.65 67.2128 35.9251 66.8813 36.0367V36.0505C67.1236 36.1344 67.268 36.3586 67.3435 36.6848C67.4465 37.1236 67.5209 37.4263 67.5857 37.5475H67.1661C67.1151 37.4593 67.0449 37.1884 66.9557 36.7963C66.8622 36.3629 66.6943 36.1992 66.3257 36.1854H65.9432V37.5475H65.5374V34.4452H65.5384ZM65.9443 35.8773H66.3597C66.7931 35.8773 67.0694 35.6393 67.0694 35.2802C67.0694 34.8744 66.7751 34.697 66.3459 34.6927C66.1504 34.6927 66.0101 34.7118 65.9443 34.7299V35.8773Z" fill="white"/>
<path d="M70.8987 35.9431C70.8987 37.0257 70.2411 37.5994 69.4379 37.5994C68.6347 37.5994 68.0238 36.9556 68.0238 36.0036C68.0238 35.005 68.6443 34.3516 69.4846 34.3516C70.325 34.3516 70.8987 35.0092 70.8987 35.9431ZM68.4594 35.9941C68.4594 36.6655 68.8238 37.2679 69.4623 37.2679C70.1008 37.2679 70.4706 36.6751 70.4706 35.9611C70.4706 35.3364 70.1444 34.683 69.4676 34.683C68.7909 34.683 68.4594 35.3035 68.4594 35.9941Z" fill="white"/>
<path d="M72.2842 37.5471L71.2579 34.4023H71.6967L72.1865 35.9514C72.3214 36.3763 72.4383 36.7588 72.5222 37.1275H72.5318C72.621 36.7631 72.7506 36.3668 72.8909 35.9567L73.4232 34.4034H73.8566L72.7326 37.5482H72.2842V37.5471Z" fill="white"/>
<path d="M74.7595 36.558L74.4333 37.5471H74.0137L75.0825 34.4023H75.5722L76.6453 37.5471H76.2118L75.8761 36.558H74.7606H74.7595ZM75.7911 36.2414L75.483 35.3362C75.4129 35.1312 75.3661 34.9442 75.3194 34.7625H75.3098C75.2631 34.9495 75.2121 35.1407 75.1515 35.332L74.8434 36.2414H75.79H75.7911Z" fill="white"/>
<path d="M77.2734 34.4023H77.6793V37.2061H79.0232V37.5471H77.2734V34.4023Z" fill="white"/>
<path d="M57.7984 39.1284V42.2732H57.3926V39.1284H57.7984Z" fill="white"/>
<path d="M58.6699 42.2732V39.1284H59.113L60.1212 40.7199C60.3549 41.0886 60.5366 41.4201 60.6853 41.742L60.6949 41.7377C60.6577 41.3181 60.6482 40.9356 60.6482 40.4458V39.1305H61.0306V42.2753H60.6205L59.6219 40.6796C59.403 40.33 59.1926 39.9699 59.0343 39.6299L59.0205 39.6341C59.0439 40.0304 59.0535 40.4086 59.0535 40.9314V42.2753H58.671L58.6699 42.2732Z" fill="white"/>
<path d="M61.8522 41.7789C62.0338 41.8904 62.3005 41.9839 62.5799 41.9839C62.9953 41.9839 63.2376 41.7651 63.2376 41.4474C63.2376 41.1531 63.0697 40.9853 62.6447 40.8227C62.1316 40.641 61.8139 40.3744 61.8139 39.9313C61.8139 39.4416 62.2198 39.0771 62.8307 39.0771C63.1526 39.0771 63.3863 39.1515 63.5255 39.2312L63.4139 39.5627C63.3109 39.5064 63.1016 39.4129 62.8168 39.4129C62.3876 39.4129 62.224 39.67 62.224 39.8846C62.224 40.1789 62.4152 40.3234 62.8487 40.4912C63.381 40.6963 63.6508 40.9534 63.6508 41.4155C63.6508 41.9011 63.2917 42.3207 62.5502 42.3207C62.2474 42.3207 61.9159 42.2326 61.748 42.1199L61.8511 41.7789H61.8522Z" fill="white"/>
<path d="M64.375 39.1651C64.5705 39.1321 64.8276 39.1045 65.1538 39.1045C65.5554 39.1045 65.8486 39.198 66.0356 39.3658C66.2077 39.5156 66.3107 39.7441 66.3107 40.0235C66.3107 40.3029 66.2268 40.5324 66.0685 40.6949C65.8539 40.9234 65.5044 41.0402 65.107 41.0402C64.9859 41.0402 64.8733 41.036 64.7808 41.0126V42.2726H64.375V39.1651ZM64.7808 40.6822C64.869 40.7056 64.9816 40.7151 65.1166 40.7151C65.6063 40.7151 65.9049 40.4771 65.9049 40.0437C65.9049 39.6102 65.6106 39.4275 65.1633 39.4275C64.9859 39.4275 64.851 39.4413 64.7808 39.4604V40.6833V40.6822Z" fill="white"/>
<path d="M68.6502 40.7986H67.4273V41.9322H68.7894V42.2732H67.0215V39.1284H68.7203V39.4695H67.4284V40.4628H68.6512V40.7986H68.6502Z" fill="white"/>
<path d="M71.6829 42.17C71.5331 42.2443 71.2346 42.3198 70.8521 42.3198C69.966 42.3198 69.2988 41.7599 69.2988 40.7282C69.2988 39.6966 69.966 39.0762 70.9413 39.0762C71.3334 39.0762 71.5809 39.1601 71.6882 39.2164L71.5905 39.5479C71.4364 39.4735 71.2176 39.4172 70.9562 39.4172C70.2189 39.4172 69.7291 39.8889 69.7291 40.7144C69.7291 41.4847 70.1721 41.9787 70.9371 41.9787C71.1846 41.9787 71.4364 41.9277 71.6 41.848L71.684 42.17H71.6829Z" fill="white"/>
<path d="M72.9542 39.4737H71.998V39.1284H74.3258V39.4737H73.3643V42.2732H72.9532V39.4737H72.9542Z" fill="white"/>
<path d="M75.2456 39.1284V42.2732H74.8397V39.1284H75.2456Z" fill="white"/>
<path d="M78.8066 40.6677C78.8066 41.7503 78.1489 42.324 77.3457 42.324C76.5425 42.324 75.9316 41.6802 75.9316 40.7282C75.9316 39.7296 76.5521 39.0762 77.3925 39.0762C78.2329 39.0762 78.8066 39.7338 78.8066 40.6677ZM76.3662 40.7197C76.3662 41.3912 76.7306 41.9936 77.3691 41.9936C78.0076 41.9936 78.3773 41.4008 78.3773 40.6868C78.3773 40.0621 78.0512 39.4087 77.3744 39.4087C76.6977 39.4087 76.3662 40.0292 76.3662 40.7197Z" fill="white"/>
<path d="M79.1289 42.2727V39.1279H79.5719L80.5802 40.7194C80.8139 41.0881 80.9956 41.4196 81.1443 41.7415L81.1539 41.7372C81.1167 41.3176 81.1071 40.9351 81.1071 40.4453V39.1301H81.4896V42.2748H81.0795L80.0808 40.6791C79.862 40.3295 79.6516 39.9694 79.4933 39.6294L79.4795 39.6336C79.5029 40.0299 79.5124 40.4082 79.5124 40.9309V42.2748H79.13L79.1289 42.2727Z" fill="white"/>
<path d="M57.9894 44.2047H57.0332V43.8594H59.361V44.2047H58.3995V47.0042H57.9883V44.2047H57.9894Z" fill="white"/>
<path d="M61.5037 45.5295H60.2808V46.6631H61.6429V47.0042H59.875V43.8594H61.5738V44.2004H60.2819V45.1938H61.5048V45.5295H61.5037Z" fill="white"/>
<path d="M62.2818 46.5089C62.4635 46.6204 62.7302 46.7139 63.0096 46.7139C63.425 46.7139 63.6673 46.4951 63.6673 46.1774C63.6673 45.8831 63.4994 45.7152 63.0744 45.5527C62.5613 45.371 62.2436 45.1044 62.2436 44.6613C62.2436 44.1715 62.6495 43.8071 63.2603 43.8071C63.5823 43.8071 63.816 43.8815 63.9552 43.9612L63.8436 44.2927C63.7406 44.2363 63.5313 44.1429 63.2465 44.1429C62.8173 44.1429 62.6537 44.4 62.6537 44.6146C62.6537 44.9089 62.8449 45.0534 63.2784 45.2212C63.8107 45.4263 64.0805 45.6834 64.0805 46.1455C64.0805 46.6311 63.7214 47.0507 62.9799 47.0507C62.6771 47.0507 62.3456 46.9625 62.1777 46.8499L62.2808 46.5089H62.2818Z" fill="white"/>
<path d="M65.4015 44.2047H64.4453V43.8594H66.7731V44.2047H65.8116V47.0042H65.4004V44.2047H65.4015Z" fill="white"/>
<path d="M67.693 43.8594V47.0042H67.2871V43.8594H67.693Z" fill="white"/>
<path d="M68.5645 47.0042V43.8594H69.0075L70.0157 45.4509C70.2495 45.8195 70.4311 46.151 70.5799 46.4729L70.5894 46.4687C70.5523 46.049 70.5427 45.6666 70.5427 45.1768V43.8615H70.9252V47.0063H70.5151L69.5164 45.4105C69.2975 45.061 69.0872 44.7008 68.9289 44.3608L68.9151 44.3651C68.9384 44.7614 68.948 45.1396 68.948 45.6623V47.0063H68.5655L68.5645 47.0042Z" fill="white"/>
<path d="M74.1959 46.8636C74.0142 46.9295 73.6551 47.0358 73.2301 47.0358C72.7541 47.0358 72.3621 46.9146 72.054 46.6203C71.7831 46.359 71.6152 45.9393 71.6152 45.4496C71.6195 44.5114 72.2633 43.8262 73.3183 43.8262C73.6827 43.8262 73.9664 43.9059 74.1024 43.9707L74.0046 44.3021C73.8368 44.2278 73.6264 44.1672 73.3098 44.1672C72.5449 44.1672 72.0455 44.6432 72.0455 45.4315C72.0455 46.2198 72.5257 46.7011 73.2588 46.7011C73.5244 46.7011 73.7071 46.6639 73.7996 46.6172V45.679H73.16V45.3529H74.1959V46.8647V46.8636Z" fill="white"/>
<path d="M59.5911 51.6265C59.4413 51.7009 59.1428 51.7763 58.7603 51.7763C57.8742 51.7763 57.207 51.2164 57.207 50.1848C57.207 49.1532 57.8742 48.5327 58.8495 48.5327C59.2416 48.5327 59.4891 48.6166 59.5964 48.673L59.4987 49.0044C59.3446 48.9301 59.1258 48.8738 58.8644 48.8738C58.1271 48.8738 57.6373 49.3455 57.6373 50.171C57.6373 50.9412 58.0803 51.4353 58.8453 51.4353C59.0928 51.4353 59.3446 51.3843 59.5082 51.3046L59.5922 51.6265H59.5911Z" fill="white"/>
<path d="M61.8904 50.2546H60.6676V51.3882H62.0296V51.7293H60.2617V48.5845H61.9605V48.9255H60.6686V49.9189H61.8915V50.2546H61.8904Z" fill="white"/>
<path d="M62.671 48.6263C62.876 48.5838 63.1703 48.5615 63.4497 48.5615C63.8832 48.5615 64.1637 48.6412 64.3592 48.8186C64.5175 48.9589 64.6067 49.1735 64.6067 49.4157C64.6067 49.8311 64.3454 50.1063 64.0139 50.2178V50.2317C64.2561 50.3156 64.4006 50.5398 64.476 50.8659C64.5791 51.3047 64.6535 51.6075 64.7183 51.7286H64.2986C64.2476 51.6404 64.1775 51.3695 64.0883 50.9775C63.9948 50.544 63.8269 50.3804 63.4582 50.3666H63.0758V51.7286H62.6699V48.6263H62.671ZM63.0768 50.0585H63.4922C63.9257 50.0585 64.2019 49.8205 64.2019 49.4614C64.2019 49.0556 63.9076 48.8781 63.4784 48.8739C63.2829 48.8739 63.1427 48.893 63.0768 48.9111V50.0585Z" fill="white"/>
<path d="M66.0245 48.9293H65.0684V48.584H67.3961V48.9293H66.4346V51.7288H66.0235V48.9293H66.0245Z" fill="white"/>
<path d="M68.1266 48.5845V51.7293H67.7207V48.5845H68.1266Z" fill="white"/>
<path d="M68.9941 48.5845H70.6876V48.9255H69.4V49.9709H70.5899V50.3067H69.4V51.7293H68.9941V48.5845Z" fill="white"/>
<path d="M71.8355 48.5845V51.7293H71.4297V48.5845H71.8355Z" fill="white"/>
<path d="M74.8997 51.6265C74.7499 51.7009 74.4514 51.7763 74.0689 51.7763C73.1828 51.7763 72.5156 51.2164 72.5156 50.1848C72.5156 49.1532 73.1828 48.5327 74.1581 48.5327C74.5502 48.5327 74.7977 48.6166 74.905 48.673L74.8073 49.0044C74.6532 48.9301 74.4344 48.8738 74.173 48.8738C73.4357 48.8738 72.9459 49.3455 72.9459 50.171C72.9459 50.9412 73.3889 51.4353 74.1539 51.4353C74.4014 51.4353 74.6532 51.3843 74.8168 51.3046L74.9008 51.6265H74.8997Z" fill="white"/>
<path d="M76.0798 50.7392L75.7536 51.7283H75.334L76.4028 48.5835H76.8926L77.9656 51.7283H77.5321L77.1964 50.7392H76.0809H76.0798ZM77.1114 50.4226L76.8033 49.5174C76.7332 49.3123 76.6864 49.1253 76.6397 48.9437H76.6301C76.5834 49.1306 76.5324 49.3219 76.4718 49.5131L76.1637 50.4226H77.1104H77.1114Z" fill="white"/>
<path d="M79.0031 48.9288H78.0469V48.5835H80.3747V48.9288H79.4132V51.7283H79.002V48.9288H79.0031Z" fill="white"/>
<path d="M81.2945 48.5845V51.7293H80.8887V48.5845H81.2945Z" fill="white"/>
<path d="M84.8495 50.1242C84.8495 51.2068 84.1919 51.7805 83.3887 51.7805C82.5855 51.7805 81.9746 51.1367 81.9746 50.1848C81.9746 49.1861 82.5951 48.5327 83.4354 48.5327C84.2758 48.5327 84.8495 49.1904 84.8495 50.1242ZM82.4091 50.1752C82.4091 50.8467 82.7735 51.4491 83.4121 51.4491C84.0506 51.4491 84.4203 50.8562 84.4203 50.1423C84.4203 49.5176 84.0941 48.8642 83.4174 48.8642C82.7406 48.8642 82.4091 49.4846 82.4091 50.1752Z" fill="white"/>
<path d="M85.5391 51.7293V48.5845H85.9821L86.9903 50.176C87.2241 50.5446 87.4057 50.8761 87.5545 51.198L87.564 51.1938C87.5269 50.7741 87.5173 50.3917 87.5173 49.9019V48.5866H87.8998V51.7314H87.4897L86.491 50.1356C86.2721 49.7861 86.0618 49.4259 85.9035 49.0859L85.8897 49.0902C85.913 49.4865 85.9226 49.8647 85.9226 50.3874V51.7314H85.5401L85.5391 51.7293Z" fill="white"/>
</g>
<defs>
<clipPath id="clip0_536_656">
<rect width="103" height="57.5059" fill="white"/>
</clipPath>
</defs>
</svg>
