<svg width="68" height="49" viewBox="0 0 68 49" fill="none" xmlns="http://www.w3.org/2000/svg">
<g clip-path="url(#clip0_536_709)">
<path d="M67.9994 48.4516V41.1133C67.2061 41.2274 66.3958 41.2857 65.5709 41.2857C57.4319 41.2857 50.6295 35.5672 48.9619 27.9286H63.1423V20.6429H48.9619C50.6295 13.0042 57.4319 7.28571 65.5709 7.28571C66.3958 7.28571 67.2061 7.344 67.9994 7.45733V0.11981C67.2004 0.0404762 66.3909 0 65.5709 0C52.1579 0 41.2852 10.8727 41.2852 24.2857C41.2852 37.6987 52.1579 48.5714 65.5709 48.5714C66.3909 48.5714 67.2004 48.531 67.9994 48.4516Z" fill="white"/>
<path d="M0 24.2857C0 37.6987 10.8727 48.5714 24.2857 48.5714C25.1608 48.5714 26.0254 48.5253 26.8762 48.4354V41.0898C26.0319 41.2193 25.1665 41.2857 24.2857 41.2857C14.8969 41.2857 7.28571 33.6746 7.28571 24.2857C7.28571 14.8969 14.8969 7.28571 24.2857 7.28571C25.1665 7.28571 26.0319 7.3521 26.8762 7.48162V0.136C26.0254 0.0461429 25.1608 0 24.2857 0C10.8727 0 0 10.8727 0 24.2857Z" fill="white"/>
</g>
<defs>
<clipPath id="clip0_536_709">
<rect width="68" height="48.5714" fill="white"/>
</clipPath>
</defs>
</svg>
