<svg width="139" height="60" viewBox="0 0 139 60" fill="none" xmlns="http://www.w3.org/2000/svg">
<g clip-path="url(#clip0_697_2152)">
<path d="M9.14468 13.462C10.7655 13.462 12.3623 13.5983 13.9254 13.43C16.1234 13.1911 16.5675 11.7594 16.3511 10.0472C16.3206 9.80352 16.2132 9.55342 16.0817 9.3418C15.5238 8.4424 14.6084 8.13779 13.6048 8.10573C12.2212 8.06244 10.8361 8.0945 9.44929 8.09611C9.35149 8.09611 9.2537 8.11214 9.14468 8.12336V13.4636V13.462ZM9.14468 27.729C10.5812 27.729 11.9759 27.745 13.3707 27.7225C14.0537 27.7113 14.7431 27.6777 15.4148 27.5702C16.412 27.4115 17.2569 26.9578 17.7699 26.076C18.2493 25.2568 18.3519 24.3831 18.113 23.4644C17.9351 22.7815 17.5455 22.2588 16.9331 21.8885C16.1363 21.4059 15.2353 21.2712 14.3246 21.2552C12.7359 21.2264 11.1455 21.2472 9.5567 21.2472H9.14468V27.7306V27.729ZM0 35.8123V0.0111445H0.412024C5.05651 0.0111445 9.70099 -0.0225228 14.3455 0.0271766C16.4216 0.0496214 18.4721 0.349421 20.3623 1.27447C22.307 2.22517 23.8076 3.61034 24.7326 5.53419C25.127 6.35342 25.3547 7.21915 25.4637 8.12336C25.6801 9.93017 25.4637 11.6616 24.6044 13.2889C23.8717 14.6741 22.7992 15.7642 21.3467 16.561C21.8597 16.7839 22.3631 16.9346 22.7896 17.1991C23.5719 17.6865 24.3799 18.169 25.0485 18.7847C26.0296 19.6889 26.6581 20.8448 26.9851 22.1209C27.1423 22.7318 27.2401 23.3634 27.2914 23.9903C27.3427 24.6203 27.3346 25.2616 27.2962 25.8933C27.2 27.4724 26.735 28.9554 25.9318 30.331C25.4829 31.1005 24.9282 31.7979 24.2565 32.4071C22.6597 33.8516 20.8401 34.9065 18.687 35.357C17.9383 35.5141 17.1671 35.6023 16.4008 35.6584C12.0529 35.9726 7.69699 35.7498 3.34429 35.8107C2.24288 35.8267 1.14148 35.8123 0.0016032 35.8123H0Z" fill="#95C11F"/>
<path d="M123.033 29.1415C127.056 29.1976 129.996 26.1034 129.993 22.3775C129.99 18.5058 126.942 15.5527 122.955 15.5559C119.068 15.5591 116.22 18.4737 116.178 22.4321C116.139 26.0104 119.086 29.1751 123.035 29.1399L123.033 29.1415ZM130.023 11.6922V8.95551H138.365V35.7916H130.034V32.8641C129.755 33.2441 129.537 33.5407 129.319 33.8405C128.829 34.5186 128.138 34.9739 127.415 35.3811C126.225 36.0513 124.927 36.4617 123.567 36.614C122.1 36.7775 120.632 36.7519 119.16 36.5002C117.266 36.1747 115.522 35.5222 113.946 34.4737C112.133 33.2665 110.711 31.7162 109.67 29.8308C108.851 28.3447 108.333 26.7671 108.018 25.1238C107.912 24.5723 107.878 24.0048 107.854 23.4437C107.827 22.8104 107.851 22.1755 107.846 21.5407C107.836 20.3335 108.098 19.1647 108.42 18.012C108.827 16.5595 109.462 15.1936 110.336 13.9495C111.147 12.7936 112.09 11.7467 113.242 10.8697C114.578 9.85331 116.038 9.09339 117.645 8.58838C119.371 8.04489 121.162 7.92465 122.955 8.05611C124.694 8.18277 126.339 8.68457 127.8 9.6513C128.579 10.1675 129.284 10.7527 129.778 11.5463C129.821 11.6168 129.874 11.6826 129.924 11.7515C129.957 11.7323 129.99 11.713 130.023 11.6954V11.6922Z" fill="#95C11F"/>
<path d="M45.9752 29.1413C50.0041 29.1942 52.9492 26.0872 52.9283 22.3341C52.9075 18.5201 49.8903 15.5654 45.9191 15.5557C42.0073 15.5461 39.1472 18.4864 39.1119 22.4399C39.0799 26.0263 42.0314 29.1798 45.9736 29.1413H45.9752ZM61.2987 35.7962H52.9684V32.8992C52.683 33.2696 52.4394 33.5694 52.2149 33.8804C51.7131 34.5714 51.0045 35.0235 50.267 35.4275C49.1047 36.0639 47.843 36.4792 46.5219 36.6042C45.4253 36.7068 44.3079 36.6732 43.2049 36.6202C41.3099 36.5289 39.5544 35.9485 37.8951 35.0764C36.4618 34.3229 35.2642 33.3032 34.2093 32.1088C32.9171 30.6483 32.0177 28.9842 31.4759 27.1517C31.1905 26.1882 30.9885 25.1878 30.8811 24.1906C30.7672 23.1261 30.7352 22.0423 30.8025 20.9762C30.8987 19.4676 31.2883 18.0054 31.8558 16.5914C32.4249 15.171 33.2282 13.8804 34.2253 12.7117C35.2883 11.4676 36.566 10.4576 38.0298 9.65916C39.3492 8.94092 40.7488 8.44393 42.2334 8.20345C43.7163 7.96457 45.2121 7.94693 46.7143 8.16818C48.1877 8.38461 49.5327 8.87839 50.7704 9.66557C51.5848 10.1834 52.2598 10.8359 52.7937 11.6247C52.8177 11.6616 52.8594 11.6872 52.9428 11.7626V8.95374H61.2987V35.7946V35.7962Z" fill="#95C11F"/>
<path d="M65.4683 27.8217C65.6526 27.8137 65.7665 27.8041 65.8787 27.8041C68.4069 27.8041 70.9336 27.8057 73.4602 27.7993C73.7296 27.7993 73.8178 27.8538 73.9011 28.1456C74.2266 29.3047 74.9721 30.0053 76.3556 30.1945C77.1829 30.3067 77.938 30.1816 78.6546 29.8097C79.9869 29.1187 80.2033 27.7015 79.1949 26.6931C78.5456 26.0438 77.7071 25.7247 76.8735 25.4201C75.2174 24.8157 73.5244 24.3043 71.8715 23.6903C70.156 23.0538 68.5721 22.1816 67.3456 20.8237C66.4606 19.8442 65.9701 18.6979 65.8771 17.3784C65.8065 16.378 65.9156 15.4129 66.1977 14.459C66.4847 13.4859 66.9705 12.6121 67.623 11.8249C68.9969 10.1672 70.8005 9.13156 72.8831 8.52876C73.9636 8.21613 75.065 8.04619 76.2033 8.02695C77.7632 7.9981 79.2959 8.11994 80.7869 8.56563C81.9123 8.9023 82.9656 9.4025 83.9035 10.0983C85.6751 11.4113 86.7364 13.1556 87.1885 15.2542C87.2719 15.6454 87.2927 16.0494 87.3456 16.4694H79.1516C79.1115 16.2947 79.0827 16.1055 79.0282 15.9227C78.8085 15.2061 78.318 14.7957 77.5596 14.6161C76.5721 14.3821 75.6695 14.4382 74.839 15.065C74.2266 15.5251 74.0967 16.2546 74.3436 16.8831C74.5681 17.4554 75.017 17.8434 75.5749 18.0582C76.7051 18.4911 77.845 18.9223 79.0121 19.2446C80.6121 19.6839 82.2073 20.1295 83.6951 20.8478C85.0402 21.4955 86.2506 22.3356 87.0891 23.578C87.7047 24.4903 88.0222 25.4971 88.1376 26.5905C88.2819 27.9548 88.1312 29.2678 87.663 30.5552C87.3151 31.5075 86.7909 32.3588 86.1079 33.1251C84.5737 34.847 82.5889 35.7993 80.346 36.3428C78.7973 36.7179 77.2214 36.7949 75.6502 36.6907C73.2294 36.5287 70.9624 35.8426 69.0466 34.3516C67.3312 33.0177 66.2314 31.2798 65.7392 29.1973C65.6334 28.7532 65.5629 28.3011 65.4699 27.8249L65.4683 27.8217Z" fill="#95C11F"/>
<path d="M93.8899 0.0336914V8.93949H89.8418V15.0862H93.9236V35.7819H102.292V15.0685H106.255V8.92186H102.273V0.0336914H93.8899Z" fill="#95C11F"/>
<path d="M0 43.9743H138.363V43.1519H0V43.9743Z" fill="#95C11F"/>
<path d="M0 59.7271H138.365V58.9062H0V59.7271Z" fill="#95C11F"/>
<path d="M11.4517 47.6104L8.79035 52.7598V55.3009H6.9162V52.7598L4.25488 47.6104H6.37913L7.87011 50.8312L9.34826 47.6104H11.4517Z" fill="#95C11F"/>
<path d="M13.8566 54.874C13.2538 54.5373 12.7761 54.0692 12.4218 53.4664C12.0675 52.8636 11.8911 52.187 11.8911 51.4351C11.8911 50.6832 12.0675 50.0066 12.4218 49.4087C12.7761 48.8107 13.2538 48.3425 13.8566 48.0059C14.4594 47.6692 15.1216 47.5024 15.8446 47.5024C16.5677 47.5024 17.2298 47.6708 17.8326 48.0059C18.4354 48.3425 18.9099 48.8091 19.2562 49.4087C19.6025 50.0066 19.7757 50.6832 19.7757 51.4351C19.7757 52.187 19.6009 52.8652 19.2498 53.4664C18.8987 54.0692 18.4242 54.5389 17.8262 54.874C17.2266 55.209 16.5661 55.3774 15.843 55.3774C15.12 55.3774 14.4578 55.209 13.855 54.874H13.8566ZM17.318 53.0543C17.6867 52.6455 17.8711 52.1052 17.8711 51.4335C17.8711 50.7618 17.6867 50.2119 17.318 49.8063C16.9492 49.4006 16.4586 49.1986 15.8446 49.1986C15.2306 49.1986 14.7288 49.399 14.36 49.8014C13.9913 50.2038 13.8069 50.7473 13.8069 51.4335C13.8069 52.1197 13.9913 52.6551 14.36 53.0608C14.7288 53.4664 15.2242 53.6684 15.8446 53.6684C16.4651 53.6684 16.9492 53.4632 17.318 53.0543Z" fill="#95C11F"/>
<path d="M22.658 47.6105V52.2117C22.658 52.6718 22.7703 53.0261 22.9979 53.2746C23.224 53.5231 23.5558 53.6466 23.9951 53.6466C24.4344 53.6466 24.7695 53.5231 25.0035 53.2746C25.2376 53.0261 25.3546 52.6718 25.3546 52.2117V47.6105H27.2272V52.2005C27.2272 52.8866 27.0813 53.467 26.7895 53.9415C26.4977 54.4161 26.1049 54.7736 25.6128 55.0157C25.119 55.2562 24.5707 55.3764 23.9647 55.3764C23.3586 55.3764 22.8152 55.2578 22.3374 55.0205C21.8597 54.7832 21.4813 54.4257 21.2039 53.9464C20.9266 53.4686 20.7871 52.885 20.7871 52.1989V47.6089H22.6597L22.658 47.6105Z" fill="#95C11F"/>
<path d="M28.9681 47.6104H30.8855L29.6574 50.5474H28.3989L28.9681 47.6104Z" fill="#95C11F"/>
<path d="M35.9019 55.3009L34.3019 52.3975H33.853V55.3009H31.9805V47.6104H35.1244C35.7304 47.6104 36.2466 47.7162 36.6747 47.9278C37.1027 48.1394 37.4217 48.4296 37.6334 48.7983C37.845 49.1671 37.9508 49.5775 37.9508 50.0312C37.9508 50.5426 37.8065 50.9995 37.5179 51.4003C37.2294 51.8027 36.8045 52.0865 36.2418 52.2548L38.0165 55.3009H35.9019ZM33.853 51.0733H35.0137C35.3568 51.0733 35.6149 50.9899 35.7865 50.8216C35.958 50.6532 36.0446 50.416 36.0446 50.1097C36.0446 49.8035 35.958 49.5871 35.7865 49.4204C35.6149 49.252 35.3568 49.1687 35.0137 49.1687H33.853V51.0749V51.0733Z" fill="#95C11F"/>
<path d="M40.9956 49.1126V50.6677H43.5046V52.1138H40.9956V53.8003H43.8333V55.3009H39.123V47.6104H43.8333V49.1126H40.9956Z" fill="#95C11F"/>
<path d="M49.2441 47.6104V55.3009H47.3716V47.6104H49.2441Z" fill="#95C11F"/>
<path d="M57.4829 55.3009H55.6103L52.4761 50.5586V55.3009H50.6035V47.6104H52.4761L55.6103 52.3767V47.6104H57.4829V55.3009Z" fill="#95C11F"/>
<path d="M66.2684 50.0421C66.1305 49.7872 65.9301 49.5916 65.672 49.457C65.4123 49.3223 65.1077 49.255 64.7566 49.255C64.1505 49.255 63.6648 49.4538 63.2992 49.8514C62.9337 50.249 62.7509 50.7812 62.7509 51.4449C62.7509 52.1536 62.9433 52.7067 63.3265 53.1043C63.7097 53.5018 64.2371 53.7006 64.9089 53.7006C65.369 53.7006 65.7569 53.5836 66.076 53.3495C66.3934 53.1155 66.6259 52.7804 66.7718 52.3411H64.3942V50.9608H68.4696V52.7019C68.3301 53.17 68.096 53.6045 67.7626 54.0053C67.4307 54.4077 67.0091 54.7315 66.4976 54.98C65.9862 55.2285 65.4091 55.352 64.7662 55.352C64.0062 55.352 63.3297 55.1852 62.7349 54.8534C62.1401 54.5215 61.6752 54.0598 61.3433 53.4666C61.0115 52.875 60.8447 52.2 60.8447 51.4401C60.8447 50.6802 61.0115 50.0037 61.3433 49.4073C61.6752 48.8125 62.1385 48.3492 62.7285 48.0157C63.3201 47.6838 63.995 47.5171 64.7549 47.5171C65.6752 47.5171 66.4511 47.7399 67.0828 48.1856C67.7145 48.6313 68.1329 49.2485 68.3365 50.0373H66.2652L66.2684 50.0421Z" fill="#95C11F"/>
<path d="M71.1599 54.874C70.5571 54.5373 70.0793 54.0692 69.725 53.4664C69.3707 52.8636 69.1943 52.187 69.1943 51.4351C69.1943 50.6832 69.3707 50.0066 69.725 49.4087C70.0793 48.8107 70.5571 48.3425 71.1599 48.0059C71.7627 47.6692 72.4248 47.5024 73.1478 47.5024C73.8709 47.5024 74.533 47.6708 75.1358 48.0059C75.7386 48.3425 76.2132 48.8091 76.5595 49.4087C76.9058 50.0066 77.0805 50.6832 77.0805 51.4351C77.0805 52.187 76.9058 52.8652 76.5546 53.4664C76.2035 54.0692 75.729 54.5389 75.131 54.874C74.533 55.209 73.8709 55.3774 73.1478 55.3774C72.4248 55.3774 71.7627 55.209 71.1599 54.874ZM74.6212 53.0543C74.9899 52.6455 75.1743 52.1052 75.1743 51.4335C75.1743 50.7618 74.9899 50.2119 74.6212 49.8063C74.2524 49.4006 73.7619 49.1986 73.1478 49.1986C72.5338 49.1986 72.032 49.399 71.6633 49.8014C71.2945 50.2038 71.1102 50.7473 71.1102 51.4335C71.1102 52.1197 71.2945 52.6551 71.6633 53.0608C72.032 53.4664 72.5274 53.6684 73.1478 53.6684C73.7683 53.6684 74.2524 53.4632 74.6212 53.0543Z" fill="#95C11F"/>
<path d="M79.7707 54.874C79.1679 54.5373 78.6901 54.0692 78.3358 53.4664C77.9815 52.8636 77.8052 52.187 77.8052 51.4351C77.8052 50.6832 77.9815 50.0066 78.3358 49.4087C78.6901 48.8107 79.1679 48.3425 79.7707 48.0059C80.3735 47.6692 81.0356 47.5024 81.7587 47.5024C82.4817 47.5024 83.1438 47.6708 83.7467 48.0059C84.3495 48.3425 84.824 48.8091 85.1703 49.4087C85.5166 50.0066 85.6913 50.6832 85.6913 51.4351C85.6913 52.187 85.5166 52.8652 85.1655 53.4664C84.8144 54.0692 84.3398 54.5389 83.7418 54.874C83.1422 55.209 82.4817 55.3774 81.7587 55.3774C81.0356 55.3774 80.3719 55.209 79.7707 54.874ZM83.232 53.0543C83.6008 52.6455 83.7851 52.1052 83.7851 51.4335C83.7851 50.7618 83.6008 50.2119 83.232 49.8063C82.8633 49.4006 82.3727 49.1986 81.7587 49.1986C81.1447 49.1986 80.6428 49.399 80.2741 49.8014C79.9054 50.2038 79.721 50.7473 79.721 51.4335C79.721 52.1197 79.9054 52.6551 80.2741 53.0608C80.6428 53.4664 81.1382 53.6684 81.7587 53.6684C82.3791 53.6684 82.8633 53.4632 83.232 53.0543Z" fill="#95C11F"/>
<path d="M91.7387 48.0929C92.3448 48.4152 92.8145 48.8657 93.1464 49.446C93.4782 50.0264 93.645 50.6965 93.645 51.4564C93.645 52.2164 93.4782 52.8769 93.1464 53.4604C92.8145 54.0456 92.3432 54.4977 91.7323 54.8184C91.1231 55.139 90.4161 55.3009 89.6129 55.3009H86.7319V47.6104H89.6129C90.4241 47.6104 91.1311 47.7707 91.7387 48.0929ZM91.1472 53.0997C91.5416 52.7134 91.7387 52.1651 91.7387 51.4564C91.7387 50.7478 91.5416 50.1963 91.1472 49.8019C90.7528 49.4075 90.2013 49.2104 89.4927 49.2104H88.6045V53.6801H89.4927C90.2013 53.6801 90.7528 53.4861 91.1472 53.0997Z" fill="#95C11F"/>
<path d="M103.679 47.6104V55.3009H101.805V52.1362H98.8922V55.3009H97.0181V47.6104H98.8922V50.6228H101.805V47.6104H103.679Z" fill="#95C11F"/>
<path d="M109.813 53.943H106.943L106.483 55.3009H104.522L107.306 47.6104H109.475L112.258 55.3009H110.275L109.815 53.943H109.813ZM109.33 52.4969L108.378 49.6817L107.435 52.4969H109.33Z" fill="#95C11F"/>
<path d="M119.979 55.3009H118.106L114.972 50.5586V55.3009H113.1V47.6104H114.972L118.106 52.3767V47.6104H119.979V55.3009Z" fill="#95C11F"/>
<path d="M126.344 48.0929C126.95 48.4152 127.419 48.8657 127.751 49.446C128.083 50.0264 128.25 50.6965 128.25 51.4564C128.25 52.2164 128.083 52.8769 127.751 53.4604C127.419 54.0456 126.948 54.4977 126.337 54.8184C125.728 55.139 125.021 55.3009 124.218 55.3009H121.337V47.6104H124.218C125.029 47.6104 125.736 47.7707 126.344 48.0929ZM125.752 53.0997C126.147 52.7134 126.344 52.1651 126.344 51.4564C126.344 50.7478 126.147 50.1963 125.752 49.8019C125.358 49.4075 124.806 49.2104 124.098 49.2104H123.211V53.6801H124.098C124.806 53.6801 125.358 53.4861 125.752 53.0997Z" fill="#95C11F"/>
<path d="M130.573 55.1034C130.127 54.9206 129.771 54.6513 129.505 54.2922C129.239 53.9346 129.098 53.5034 129.083 53H131.076C131.105 53.2853 131.205 53.5018 131.373 53.6525C131.541 53.8016 131.759 53.8769 132.03 53.8769C132.301 53.8769 132.527 53.8128 132.688 53.6845C132.848 53.5579 132.928 53.3799 132.928 53.1539C132.928 52.9647 132.864 52.8076 132.736 52.6825C132.607 52.5591 132.45 52.4565 132.264 52.3763C132.078 52.2962 131.814 52.2048 131.471 52.1022C130.974 51.9483 130.57 51.796 130.254 51.6421C129.94 51.4881 129.67 51.2621 129.443 50.9623C129.217 50.6625 129.103 50.2729 129.103 49.7904C129.103 49.0753 129.362 48.5142 129.88 48.1086C130.398 47.703 131.075 47.501 131.907 47.501C132.739 47.501 133.436 47.7046 133.956 48.1086C134.475 48.5126 134.751 49.0785 134.788 49.8016H132.761C132.747 49.5531 132.655 49.3575 132.487 49.2148C132.319 49.0721 132.104 49.0016 131.841 49.0016C131.615 49.0016 131.432 49.0625 131.293 49.1827C131.153 49.303 131.084 49.4777 131.084 49.7038C131.084 49.9523 131.201 50.1463 131.435 50.2841C131.669 50.4236 132.033 50.5727 132.53 50.733C133.027 50.9014 133.43 51.0617 133.741 51.2156C134.052 51.3695 134.32 51.5924 134.546 51.8841C134.772 52.1759 134.885 52.5527 134.885 53.0128C134.885 53.4729 134.773 53.8497 134.55 54.2072C134.328 54.5647 134.005 54.8501 133.58 55.0617C133.157 55.2733 132.657 55.3791 132.08 55.3791C131.503 55.3791 131.014 55.2877 130.568 55.105L130.573 55.1034Z" fill="#95C11F"/>
</g>
<defs>
<clipPath id="clip0_697_2152">
<rect width="138.365" height="59.7274" fill="white"/>
</clipPath>
</defs>
</svg>
