<svg width="148" height="74" viewBox="0 0 148 74" fill="none" xmlns="http://www.w3.org/2000/svg">
<g clip-path="url(#clip0_697_2261)">
<path d="M37.2075 0.0302274C39.1277 -0.149786 41.4801 0.439639 41.5678 2.73521C41.3716 6.76083 41.8325 11.0397 41.571 15.0351C41.4418 17.0089 40.1564 17.8181 38.2904 17.9376C36.013 18.0842 34.5824 17.4039 34.4022 14.9698C34.1152 11.0955 34.6175 6.88509 34.399 2.97576C34.5107 1.19633 35.4086 0.197497 37.2075 0.0302274ZM38.8534 2.66193C38.4084 2.29235 36.9284 2.33377 36.9173 3.16852L36.9125 14.7882C36.9938 15.5098 37.7003 15.5512 38.2904 15.4907C38.7641 15.4429 39.0113 15.2613 39.1133 14.7818L39.0623 2.97417C39.0416 2.91682 38.8965 2.69698 38.855 2.66193H38.8534Z" fill="#DE0C18"/>
<path d="M43.4067 0.777323C43.4498 0.640322 43.9091 0.680148 44.0495 0.68652C44.3541 0.700857 44.8995 0.766172 45.2073 0.815556C45.3604 0.839452 45.6762 0.877685 45.7639 0.993977L48.3714 9.49604L48.3188 1.39861L48.3666 1.32374C48.432 1.27754 49.381 1.4018 49.5564 1.42888C49.7382 1.45755 50.5165 1.55313 50.5675 1.70447L50.5803 16.3127C50.5516 16.4178 48.7032 16.6743 48.4384 16.6488L45.7511 7.80105L45.614 7.72299L45.7288 16.9849C45.6634 17.1745 44.5949 17.1841 44.3589 17.208C44.2073 17.2239 43.4083 17.4405 43.4083 17.2382V0.777323H43.4067Z" fill="#DE0C18"/>
<path d="M23.8047 0.439453V14.6653C23.8047 15.1862 23.4108 16.2775 23.0408 16.6566C21.5129 18.2242 16.6487 17.4085 16.8178 14.608V1.26465C16.8561 1.07508 17.2946 1.03844 17.4812 1.00658C18.0267 0.915773 18.596 0.869575 19.1494 0.867982V13.9931C19.1494 14.0249 19.2371 14.3786 19.2579 14.4359C19.5529 15.2356 21.3343 15.4125 21.3487 14.2926L21.3614 0.630618C22.1557 0.455384 22.9898 0.450604 23.8047 0.441046V0.439453Z" fill="#DE0C18"/>
<path d="M25.7646 17.6938V0.348795C26.1028 0.165596 26.6211 0.280295 27.023 0.259585C29.3642 0.135328 32.2636 -0.310724 32.7931 2.7511C32.7006 4.80931 32.9701 7.06506 32.8106 9.10097C32.683 10.7179 31.5299 11.7183 29.9527 11.876C29.3865 11.9334 28.7071 11.7438 28.2143 12.0369V17.7273C28.2143 17.9169 27.1713 17.705 27.0198 17.697C26.6035 17.6747 26.1809 17.7114 25.7646 17.697V17.6938ZM28.2303 9.41958C29.2318 9.58525 30.2318 9.66331 30.3514 8.41596C30.4694 7.19728 30.4423 5.07376 30.3625 3.83278C30.3115 3.049 30.1456 2.62047 29.2796 2.52808C29.1058 2.50896 28.4424 2.48666 28.3164 2.52808C28.2031 2.56631 28.1856 2.75748 28.1601 2.86262C28.2765 4.87941 27.9831 7.10967 28.1521 9.10097C28.1617 9.21248 28.1617 9.32559 28.2303 9.42117V9.41958Z" fill="#DE0C18"/>
<path d="M8.38277 2.96142C10.5836 2.44368 14.0954 1.07844 14.9694 4.15779C14.9551 7.07625 15.2517 10.2958 15.046 13.1967C14.8195 16.3939 11.885 15.9129 9.62993 15.3027C9.40346 15.2406 8.3748 15.0048 8.31738 14.8391L8.38118 2.96142H8.38277ZM10.4608 13.2811C11.1594 13.5185 12.6457 13.9454 12.826 12.8765L12.8403 5.18212C12.7957 4.78226 12.5883 4.5003 12.1816 4.43179C11.8754 4.37922 10.5182 4.44773 10.4497 4.81413L10.4592 13.2796L10.4608 13.2811Z" fill="#DE0C18"/>
<path d="M57.5558 3.43783V5.51835C56.9609 5.41321 56.39 5.14398 55.7792 5.15195V15.0336C55.1285 15.3538 54.288 15.5035 53.5735 15.615V4.63102C53.0711 4.25028 52.2929 4.47012 51.7969 4.14196V1.96905C51.9867 1.96905 52.1733 1.96108 52.363 1.98498C53.1636 2.08693 54.3279 2.42784 55.1301 2.64768C55.9498 2.8723 56.7632 3.13038 57.5542 3.43783H57.5558Z" fill="#DE0C18"/>
<path d="M60.251 13.4116V4.63074L60.3754 4.56543C61.278 4.97166 62.227 5.47824 62.9781 6.1282C65.4724 8.28678 65.0482 10.259 62.5364 12.1149C61.8554 12.6183 61.0484 13.128 60.251 13.4116Z" fill="#DE0C18"/>
<path d="M4.38774 4.54004V13.4117C3.50899 13.0596 2.57123 12.4925 1.82006 11.9079C-1.05222 9.67282 -0.283515 7.40114 2.44364 5.56755C3.02416 5.17726 3.73386 4.7551 4.38614 4.54163L4.38774 4.54004Z" fill="#DE0C18"/>
<path d="M147.267 62.7928C146.063 63.927 144.067 63.4666 143.492 61.923C142.849 60.1961 144.35 58.4469 146.154 58.8197C147.989 59.1989 148.637 61.5024 147.267 62.7928ZM145.522 59.2164C144.077 59.3215 143.286 61.0006 144.131 62.1858C144.887 63.2452 146.461 63.25 147.214 62.1858C148.141 60.8763 147.112 59.1001 145.522 59.2164Z" fill="#1B3E78"/>
<path d="M144.7 59.9045C144.71 59.8885 144.723 59.8885 144.74 59.8869C144.935 59.8646 145.29 59.879 145.496 59.8869C145.869 59.9029 146.356 59.9761 146.467 60.4015C146.584 60.8443 146.349 61.19 145.923 61.3095L146.633 62.3084L146.107 62.302L145.45 61.3716H145.147V62.3084H144.718L144.7 62.2908V59.9045ZM145.147 60.9957H145.598C145.679 60.9957 145.872 60.9304 145.935 60.8746C146.067 60.7583 146.078 60.4827 145.941 60.3664C145.882 60.3171 145.73 60.2645 145.655 60.2645H145.147V60.9957Z" fill="#1B3E78"/>
<path d="M64.5032 14.2798V15.6976H64.2177V14.6828L63.7919 15.1066L63.366 14.6828V15.6976H63.0806V14.2798H63.3676L63.7919 14.7035L64.2161 14.2798H64.5032Z" fill="#DE0C18"/>
<path d="M62.9639 14.2798V14.5618H62.511V15.6976H62.2255V14.5665L62.2207 14.5618H61.771V14.2798H62.9639Z" fill="#DE0C18"/>
<path d="M124.872 25.7018V48.2497C129.127 45.7805 132.275 41.5669 132.889 36.6125H139.886C139.86 40.1124 138.25 43.3224 136.092 45.9908C135.274 47.004 134.256 47.8626 133.495 48.8774L141.926 62.7974H134.274L128.508 52.911C128.35 52.8632 128.224 52.9221 128.083 52.981C127.135 53.3729 125.853 54.6569 124.871 55.1587V62.7958H117.874V26.1367L124.871 25.7002L124.872 25.7018Z" fill="#1B3E78"/>
<path d="M41.2027 36.6128C41.4499 42.8894 42.8533 49.1389 45.4497 54.8483L46.2296 56.1069L52.4255 36.6128H59.5687L47.397 73.9999H40.4738L43.9729 62.7992C43.4259 62.7498 42.9522 62.984 42.5312 62.565C42.0623 62.0983 40.8024 59.6259 40.3989 58.874C36.6877 51.9586 34.4151 44.5079 34.061 36.6128H41.2043H41.2027Z" fill="#1B3E78"/>
<path d="M96.229 51.4504C95.91 51.5285 96.2067 52.3648 96.2609 52.5831C97.8254 58.9329 105.543 57.9787 110.224 55.9635L111.445 61.5392C111.314 62.0123 107.356 62.9315 106.681 63.0462C94.682 65.0789 85.751 57.2125 89.2676 44.9397C92.6805 33.0253 110.525 32.7258 112.316 45.5801C112.582 47.4885 112.41 49.1803 112.337 51.0872L112.118 51.4504H96.2306H96.229ZM105.632 47.232C105.892 43.8612 104.356 41.4461 100.742 41.6978C97.8685 41.8985 96.111 44.5302 96.0105 47.232H105.631H105.632Z" fill="#1B3E78"/>
<path d="M34.935 27.0117V33.0494L34.7165 33.2676H25.315V62.7978H18.0266V33.2676H8.55176V27.0117H34.935Z" fill="#1B3E78"/>
<path d="M68.0247 36.6128C68.2831 43.6684 69.9959 50.7638 73.3451 56.9767C76.8696 50.7909 78.4023 43.6923 78.8105 36.6128H85.807C85.209 45.9799 82.0225 54.748 77.3289 62.7737L69.4792 62.7259C64.4858 54.9376 61.2339 45.9512 60.8799 36.6128H68.0231H68.0247Z" fill="#1B3E78"/>
</g>
<defs>
<clipPath id="clip0_697_2261">
<rect width="148" height="74" fill="white"/>
</clipPath>
</defs>
</svg>
