<svg width="368" height="57" viewBox="0 0 368 57" fill="none" xmlns="http://www.w3.org/2000/svg">
<g clip-path="url(#clip0_697_2189)">
<path d="M26.7885 14.5882C23.9653 14.5882 21.8995 17.2528 21.8995 20.1275V27.6257H36.6539V31.1547H21.8995V45.7108H18.3705L18.3149 19.8539C18.3149 17.4114 19.1278 15.294 20.702 13.6088C22.2801 11.9236 24.346 11.0513 26.7885 11.0513H37.8989V14.5842H26.7885V14.5882Z" fill="#EF7900"/>
<path d="M87.6781 9.13573C84.0024 9.13573 81.314 12.6013 81.314 16.3444V26.1027H100.517V30.6944H81.314V49.6399H76.7183L76.647 15.9915C76.647 12.8114 77.7057 10.0556 79.7557 7.86291C81.8057 5.67017 84.498 4.53613 87.6741 4.53613H102.135V9.13176H87.6741L87.6781 9.13573Z" fill="#EF7900"/>
<path d="M139.189 46.1823C137.266 48.3196 134.701 49.6043 131.493 49.6043H115.458C112.25 49.6043 109.684 48.5337 107.547 46.3965C105.41 44.2592 104.339 41.4796 104.339 38.2718V27.1535C104.339 20.7378 108.828 16.0352 115.458 16.0352H131.065C134.272 16.0352 136.838 17.1058 138.975 19.243C141.112 21.3802 142.183 23.9457 142.183 27.1535V38.2718C142.397 41.2655 141.326 43.831 139.189 46.1823ZM137.694 27.5817C137.694 23.7315 135.129 20.3136 131.279 20.3136H115.672C111.822 20.3136 109.256 23.7355 109.256 27.5817V37.6295C109.256 41.4797 111.822 44.8976 115.672 44.8976H131.279C135.129 44.8976 137.694 41.4757 137.694 37.6295V27.5817Z" fill="#EC7803"/>
<path d="M156.938 20.3136C153.302 20.3136 150.522 23.7355 150.522 27.5817V49.3902H145.819V27.1535C145.819 23.9457 146.89 21.1661 149.027 19.0289C151.164 16.8916 153.73 15.6069 156.938 15.6069H171.478V20.3096H156.938V20.3136Z" fill="#EC7803"/>
<path d="M226.641 20.3136C222.791 20.3136 220.44 23.5214 220.44 27.1575V37.6334C220.44 41.4836 223.005 44.9016 226.855 44.9016H250.587V49.3902H226.855C223.433 49.3902 220.868 48.3196 218.945 46.1824C216.808 44.0451 215.951 41.2655 215.951 38.0577V26.9394C215.951 20.3096 220.226 15.6069 226.855 15.6069H245.884C248.45 15.6069 250.373 16.4634 251.872 18.3865C253.367 20.0955 254.223 22.4468 254.223 24.8022C254.223 27.3676 253.581 29.5049 251.872 31.2178C249.306 33.7833 246.098 34.4256 243.961 34.4256H227.069V29.7229H243.319C247.807 29.7229 248.878 27.3716 248.878 24.8061C248.878 21.8124 246.527 20.3176 242.248 20.3176H226.641V20.3136Z" fill="#EC7803"/>
<path d="M281.372 34.6361H265.123C262.557 34.6361 260.634 33.7796 259.136 31.8565C257.641 29.9334 256.784 27.7922 256.784 25.2267C256.784 22.6613 257.641 20.524 259.136 18.597C260.63 16.6739 262.772 15.8174 265.123 15.8174H289.069V20.306H266.19C263.196 20.306 261.701 21.8008 261.701 25.0086C261.701 27.7882 262.986 29.9255 265.761 29.9255H282.011C284.576 29.9255 286.499 30.7819 287.998 32.705C289.497 34.6281 290.349 36.7693 290.349 39.3348C290.349 42.1144 289.707 44.4657 288.212 46.3888C286.717 48.5261 284.576 49.5967 282.011 49.5967H258.065V44.894H280.944C283.938 44.894 285.433 43.185 285.433 39.5489C285.433 36.7693 284.148 34.6321 281.368 34.6321" fill="#EC7803"/>
<path d="M318.15 34.6361H301.9C299.335 34.6361 297.412 33.7796 295.913 31.8565C294.418 29.9334 293.562 27.7922 293.562 25.2267C293.562 22.6613 294.418 20.524 295.913 18.597C297.412 16.6739 299.549 15.8174 301.9 15.8174H325.846V20.306H302.967C299.973 20.306 298.478 21.8008 298.478 25.0086C298.478 27.7882 299.763 29.9255 302.539 29.9255H318.788C321.353 29.9255 323.277 30.7819 324.775 32.705C326.27 34.6281 327.127 36.7693 327.127 39.3348C327.127 42.1144 326.484 44.4657 324.989 46.3888C323.491 48.5261 321.353 49.5967 318.788 49.5967H294.842V44.894H317.721C320.715 44.894 322.21 43.185 322.21 39.5489C322.21 36.7693 320.925 34.6321 318.146 34.6321" fill="#EC7803"/>
<path d="M367.968 49.3902H363.265V30.3614H341.028C336.754 30.3614 334.399 33.5692 334.399 37.8437C334.399 41.4797 337.392 44.6836 341.028 44.6836H356.849V49.3863H341.028C337.606 49.3863 334.827 48.1016 332.69 45.7502C330.766 43.3989 329.696 40.6193 329.696 36.9832C329.696 33.7754 330.766 31.2099 332.904 29.0727C335.041 26.9355 337.606 25.8649 340.814 25.8649H362.837C362.194 22.6571 359.629 20.3057 356.635 20.3057H335.041V15.603H356.635C359.843 15.603 362.408 16.6736 364.546 19.025C366.683 21.1622 367.754 23.9418 367.754 27.1496L367.968 49.3863V49.3902Z" fill="#EC7803"/>
<path d="M196.704 20.3136V49.6043H192.002V20.3136H174.472V15.6069H214.238V20.3136H196.704Z" fill="#EC7803"/>
<path d="M28.2241 0C12.6132 0 0 12.6132 0 28.2241V28.4382C0 43.831 12.6132 56.4481 28.2241 56.4481C43.8349 56.4481 56.234 43.8349 56.4481 28.4382C56.234 12.6132 43.6169 0 28.2241 0ZM28.2241 51.3133C15.3968 51.3133 5.13093 41.0514 5.13093 28.2201C5.13093 15.3928 15.3928 5.12696 28.2241 5.12696C41.0554 5.12696 51.3172 15.3888 51.3172 28.2201C51.3172 41.0474 40.8412 51.3133 28.2241 51.3133Z" fill="#8A898D"/>
</g>
<defs>
<clipPath id="clip0_697_2189">
<rect width="367.968" height="56.4442" fill="white"/>
</clipPath>
</defs>
</svg>
