<svg width="236" height="57" viewBox="0 0 236 57" fill="none" xmlns="http://www.w3.org/2000/svg">
<g clip-path="url(#clip0_697_2213)">
<path d="M10.6603 15.1409C14.3863 15.1409 16.7113 13.053 16.7113 10.1209V10.0421C16.7113 6.74888 14.3457 5.02216 10.6603 5.02216H4.93165V15.1434H10.6603V15.1409ZM0 0.520996H11.0613C17.5945 0.520996 21.7191 4.25671 21.7191 9.91749V9.99887C21.7191 16.303 16.6707 19.5963 10.5004 19.5963H4.93165V28.6316H0V0.520996Z" fill="#12110C"/>
<path d="M39.1105 16.5474C38.7907 13.4144 36.9454 10.9655 33.7397 10.9655C30.7751 10.9655 28.6913 13.2542 28.2522 16.5474H39.1105ZM23.4424 18.1139V18.0326C23.4424 11.9674 27.7293 6.99072 33.7803 6.99072C40.5141 6.99072 43.9177 12.2904 43.9177 18.3962C43.9177 18.8387 43.8771 19.2812 43.8391 19.7618H28.2903C28.8131 23.2152 31.2548 25.1429 34.3819 25.1429C36.7474 25.1429 38.4277 24.2579 40.113 22.6126L42.9583 25.1429C40.9532 27.5537 38.1916 29.1176 34.3032 29.1176C28.1735 29.1176 23.4449 24.6597 23.4449 18.1139" fill="#12110C"/>
<path d="M47.4077 7.43078H52.2556V12.2117C53.578 9.03798 56.0222 6.86877 59.7483 7.03153V12.1735H59.4691C55.2227 12.1735 52.2556 14.9429 52.2556 20.5681V28.6396H47.4077V7.43078Z" fill="#12110C"/>
<path d="M62.5581 7.43077H67.406V10.6426C68.769 8.75569 70.6117 6.98828 73.858 6.98828C76.9038 6.98828 79.0282 8.47595 80.1501 10.724C81.8735 8.47595 84.1173 6.98828 87.323 6.98828C91.9323 6.98828 94.7369 9.92039 94.7369 15.1005V28.6345H89.889V16.5857C89.889 13.2136 88.3255 11.4055 85.6021 11.4055C82.8786 11.4055 81.0765 13.2518 81.0765 16.6671V28.6345H76.2261V16.545C76.2261 13.2518 74.6245 11.4055 71.9392 11.4055C69.2538 11.4055 67.4111 13.412 67.4111 16.7077V28.6345H62.5632V7.43077H62.5581Z" fill="#12110C"/>
<path d="M112.293 19.7594C111.052 19.2787 109.329 18.9151 107.445 18.9151C104.4 18.9151 102.597 20.1612 102.597 22.2083V22.2897C102.597 24.2987 104.4 25.4227 106.684 25.4227C109.89 25.4227 112.293 23.6172 112.293 20.9622V19.7568V19.7594ZM112.174 28.6346V26.0254C110.73 27.7521 108.527 29.077 105.321 29.077C101.313 29.077 97.7876 26.7883 97.7876 22.5313V22.4499C97.7876 17.7504 101.432 15.5023 106.364 15.5023C108.928 15.5023 110.57 15.8635 112.215 16.3873V15.9855C112.215 13.0534 110.369 11.4462 107.004 11.4462C104.641 11.4462 102.877 11.9675 100.953 12.7711L99.6303 8.87776C101.955 7.83257 104.237 7.11035 107.684 7.11035C113.935 7.11035 116.981 10.4036 116.981 16.0669V28.6371H112.174V28.6346Z" fill="#12110C"/>
<path d="M133.736 21.5264C135.779 21.5264 136.82 20.6821 136.82 19.4793V19.4004C136.82 18.1951 135.817 17.3533 133.777 17.3533H129.048V21.529H133.736V21.5264ZM133.134 11.5654C135.137 11.5654 136.099 10.8838 136.099 9.63776V9.55638C136.099 8.3103 135.096 7.62876 133.094 7.62876H129.048V11.5654H133.137H133.134ZM119.911 0.520996H135.619C139.505 0.520996 141.95 1.40597 143.594 3.05131C144.594 4.05581 145.318 5.50025 145.318 7.42786V7.50924C145.318 10.8432 143.312 12.8903 140.31 13.9355C143.914 14.9807 146.239 16.9083 146.239 20.7635V20.8449C146.239 25.3435 142.554 28.6367 135.459 28.6367H119.913V0.520996H119.911Z" fill="#12110C"/>
<path d="M163.191 18.1927L160.625 11.3647L158.062 18.1927H163.191ZM156.059 0.320312H165.354L177.174 28.6344H166.996L165.514 24.858H155.696L154.254 28.6344H144.236L156.059 0.320312Z" fill="#12110C"/>
<path d="M175.618 24.4183L180.626 18.4345C183.672 20.7639 187.159 21.7277 190.444 21.7277C192.129 21.7277 192.85 21.2853 192.85 20.5223V20.441C192.85 19.6374 191.966 19.1949 188.964 18.5922C182.672 17.308 177.144 15.4999 177.144 9.55681V9.47543C177.144 4.13252 181.311 -0.00244141 189.045 -0.00244141C194.456 -0.00244141 198.462 1.28179 201.708 3.85279L197.139 10.1976C194.494 8.27003 191.327 7.42829 188.723 7.42829C187.319 7.42829 186.679 7.90892 186.679 8.593V8.67437C186.679 9.43728 187.441 9.92046 190.406 10.4825C197.578 11.8074 202.388 13.8952 202.388 19.5585V19.6399C202.388 25.5423 197.54 29.1585 190.007 29.1585C184.316 29.1585 179.187 27.5513 175.621 24.4183" fill="#12110C"/>
<path d="M203.753 0.520996H227.676V8.234H212.969V11.0847H226.673V17.8721H212.969V20.9237H227.876V28.6367H203.753V0.520996Z" fill="#12110C"/>
<path d="M101.301 51.0006V50.97C101.301 47.8625 103.638 45.3169 106.989 45.3169C109.047 45.3169 110.278 46.0035 111.291 47.0029L109.763 48.7678C108.923 48.0049 108.065 47.5344 106.974 47.5344C105.133 47.5344 103.808 49.0653 103.808 50.9395V50.97C103.808 52.8443 105.103 54.4057 106.974 54.4057C108.22 54.4057 108.984 53.9072 109.842 53.124L111.37 54.6702C110.245 55.873 109.002 56.6232 106.897 56.6232C103.684 56.6232 101.301 54.1412 101.301 51.0006Z" fill="#12110C"/>
<path d="M112.816 45.5024H121.048V47.6437H115.202V49.8612H120.345V51.9999H115.202V54.2937H121.124V56.4349H112.816V45.5024Z" fill="#12110C"/>
<path d="M122.791 45.5024H125.377L128.246 50.1257L131.114 45.5024H133.703V56.4349H131.317V49.2966L128.246 53.9682H128.182L125.144 49.345V56.4349H122.791V45.5024Z" fill="#12110C"/>
<path d="M135.848 45.5024H144.079V47.6437H138.234V49.8612H143.378V51.9999H138.234V54.2937H144.155V56.4349H135.848V45.5024Z" fill="#12110C"/>
<path d="M145.823 45.5024H148.033L153.148 52.2338V45.5024H155.519V56.4349H153.478L148.191 49.4848V56.4349H145.823V45.5024Z" fill="#12110C"/>
<path d="M160.204 47.72H156.884V45.5024H165.925V47.72H162.607V56.4349H160.204V47.72Z" fill="#12110C"/>
<path d="M176.694 54.3242C177.753 54.3242 178.392 53.9504 178.392 53.1392V53.1086C178.392 52.3737 177.847 51.921 176.616 51.921H173.842V54.3268H176.694V54.3242ZM176.055 49.9222C177.116 49.9222 177.786 49.5789 177.786 48.7677V48.7372C177.786 48.0175 177.225 47.6132 176.212 47.6132H173.842V49.9248H176.055V49.9222ZM171.504 45.5024H176.57C177.816 45.5024 178.799 45.8458 179.423 46.4713C179.923 46.9698 180.172 47.5801 180.172 48.3303V48.3608C180.172 49.5942 179.517 50.2808 178.738 50.7182C179.999 51.2014 180.778 51.9363 180.778 53.4036V53.4342C180.778 55.4355 179.159 56.4349 176.694 56.4349H171.504V45.5024Z" fill="#12110C"/>
<path d="M190.89 51.0006V50.97C190.89 49.0958 189.519 47.5344 187.585 47.5344C185.651 47.5344 184.311 49.0653 184.311 50.9395V50.97C184.311 52.8443 185.682 54.4057 187.616 54.4057C189.55 54.4057 190.89 52.8748 190.89 51.0006ZM181.803 51.0006V50.97C181.803 47.8625 184.25 45.3169 187.616 45.3169C190.981 45.3169 193.4 47.832 193.4 50.9395V50.97C193.4 54.0776 190.953 56.6232 187.588 56.6232C184.222 56.6232 181.806 54.1081 181.806 51.0006" fill="#12110C"/>
<path d="M200.627 51.8602L199.177 48.3153L197.726 51.8602H200.627ZM198.101 45.4238H200.314L204.99 56.4326H202.48L201.482 53.9811H196.87L195.87 56.4326H193.423L198.099 45.4238H198.101Z" fill="#12110C"/>
<path d="M211.035 50.8123C212.205 50.8123 212.875 50.1892 212.875 49.2687V49.2382C212.875 48.2082 212.157 47.6767 210.99 47.6767H208.604V50.8148H211.035V50.8123ZM206.203 45.5024H211.19C212.579 45.5024 213.655 45.8915 214.37 46.6112C214.98 47.2215 215.307 48.0785 215.307 49.111V49.1415C215.307 50.9064 214.355 52.0151 212.967 52.5314L215.634 56.4375H212.83L210.49 52.9383H208.604V56.4375H206.203V45.505V45.5024Z" fill="#12110C"/>
<path d="M221.257 54.2632C223.221 54.2632 224.546 52.9357 224.546 50.9979V50.9674C224.546 49.0322 223.221 47.6742 221.257 47.6742H219.401V54.2632H221.257ZM217.003 45.5024H221.257C224.686 45.5024 227.057 47.8598 227.057 50.9369V50.9674C227.057 54.0445 224.686 56.4349 221.257 56.4349H217.003V45.5024Z" fill="#12110C"/>
<path d="M227.866 39.1578H0V34.7686H227.866V39.1578Z" fill="#197FC3"/>
<path d="M232.759 2.56344C232.638 2.51766 232.465 2.49223 232.244 2.49223H232.028V3.47638H232.374C232.579 3.47638 232.742 3.43569 232.858 3.35177C232.975 3.26785 233.034 3.13307 233.034 2.94743C233.034 2.76179 232.942 2.6321 232.759 2.56089M231.143 5.28956V1.89462C231.351 1.89462 231.668 1.89462 232.087 1.89716C232.506 1.89716 232.739 1.8997 232.785 1.90225C233.051 1.92259 233.277 1.98108 233.452 2.07517C233.752 2.24047 233.904 2.51258 233.904 2.8864C233.904 3.17122 233.825 3.37975 233.666 3.50436C233.508 3.63151 233.31 3.7078 233.077 3.73323C233.29 3.779 233.45 3.84258 233.559 3.92904C233.757 4.0918 233.856 4.34356 233.856 4.68941V4.99457C233.856 5.02763 233.858 5.06069 233.864 5.09629C233.869 5.12935 233.876 5.16241 233.886 5.19547L233.917 5.29211H233.069C233.041 5.1853 233.023 5.02763 233.013 4.82419C233.003 4.6182 232.985 4.48088 232.957 4.40713C232.912 4.28761 232.831 4.20369 232.709 4.15792C232.643 4.12994 232.541 4.11214 232.404 4.10197L232.209 4.08925H232.021V5.28956H231.135H231.143ZM230.686 1.8107C230.198 2.30913 229.955 2.90166 229.955 3.58573C229.955 4.26981 230.201 4.89794 230.696 5.39383C231.188 5.88972 231.785 6.13893 232.48 6.13893C233.176 6.13893 233.767 5.88972 234.26 5.39128C234.752 4.88776 234.998 4.28761 234.998 3.58573C234.998 2.88386 234.752 2.31422 234.262 1.8107C233.767 1.29955 233.173 1.04525 232.48 1.04525C231.787 1.04525 231.178 1.29955 230.683 1.8107M234.622 5.78545C234.029 6.36272 233.315 6.65008 232.483 6.65008C231.65 6.65008 230.896 6.35509 230.308 5.76511C229.719 5.17513 229.424 4.45036 229.424 3.58573C229.424 2.7211 229.744 1.94548 230.379 1.3555C230.978 0.801116 231.678 0.523926 232.483 0.523926C233.287 0.523926 234.046 0.824003 234.643 1.42162C235.242 2.02177 235.539 2.74399 235.539 3.58828C235.539 4.43256 235.232 5.19293 234.62 5.788" fill="#12110C"/>
</g>
<defs>
<clipPath id="clip0_697_2213">
<rect width="235.541" height="56.6205" fill="white"/>
</clipPath>
</defs>
</svg>
