<svg width="204" height="58" viewBox="0 0 204 58" fill="none" xmlns="http://www.w3.org/2000/svg">
<g clip-path="url(#clip0_697_2242)">
<mask id="mask0_697_2242" style="mask-type:luminance" maskUnits="userSpaceOnUse" x="0" y="0" width="204" height="58">
<path d="M0 0V57.753H203.456V0H0Z" fill="white"/>
</mask>
<g mask="url(#mask0_697_2242)">
<path d="M174.649 57.753H28.8079C12.9637 57.753 0 44.7584 0 28.8765C0 12.9945 12.9637 0 28.8079 0H174.651C190.495 0 203.456 12.9945 203.456 28.8765C203.456 44.7584 190.493 57.753 174.651 57.753" fill="#C31822"/>
</g>
<path d="M82.3718 21.6765H76.8125V16.7373H93.6681V21.6765H88.0737V41.4311H82.3718V21.6765Z" fill="white"/>
<path d="M110.725 31.6231H102.209V41.4289H96.5068V16.7373H102.209V26.7213H110.725V16.7373H116.39V41.4289H110.725V31.6231Z" fill="white"/>
<path d="M132.063 36.4919V41.4289H119.358V16.7373H125.06V36.4919H132.063Z" fill="white"/>
<path d="M140.525 21.3224V26.9324H149.851V31.4119H140.525V36.8437H149.851V41.4289H134.825V16.7373H149.851V21.3224H140.525Z" fill="white"/>
<path d="M162.495 41.4289H156.196L160.735 32.153L152.008 16.7373H158.66L163.903 26.4376L168.407 16.7373H174.706L162.495 41.4289Z" fill="white"/>
<path d="M29.0625 16.7373H39.4089C44.8629 16.7373 48.3818 20.865 48.3818 25.6613C48.3818 29.1183 46.5521 32.1882 43.4895 33.633L48.417 41.4289H41.8002L37.4366 34.5853H34.7622V41.4289H29.0625V16.7373ZM42.6097 25.6613C42.6097 23.3676 41.0609 21.3928 38.6695 21.3928H34.7622V29.9298H38.6695C41.0609 29.9298 42.6097 27.955 42.6097 25.6613Z" fill="white"/>
<path d="M49.9966 29.0834C49.9966 22.3101 54.8516 16.1021 63.0524 16.1021C71.2531 16.1021 76.0731 22.3101 76.0731 29.0834C76.0731 35.8566 71.2158 42.0647 63.0524 42.0647C54.8889 42.0647 49.9966 35.8566 49.9966 29.0834ZM70.2659 29.0834C70.2659 25.026 67.5213 21.2524 63.0524 21.2524C58.5834 21.2524 55.8389 25.026 55.8389 29.0834C55.8389 33.1407 58.5505 36.9144 63.0524 36.9144C67.5542 36.9144 70.2659 33.1407 70.2659 29.0834Z" fill="white"/>
</g>
<defs>
<clipPath id="clip0_697_2242">
<rect width="203.456" height="57.753" fill="white"/>
</clipPath>
</defs>
</svg>
