<svg width="80" height="83" viewBox="0 0 80 83" fill="none" xmlns="http://www.w3.org/2000/svg">
<path d="M39.7462 0.57656C39.6152 0.594023 39.4912 0.632443 39.3742 0.688326L1.38798 18.7597C1.37026 18.7666 1.35255 18.7771 1.33483 18.7876L1.29941 18.8016C1.26752 18.8225 1.23918 18.847 1.20729 18.8679C1.10455 18.9273 1.00535 18.9972 0.920323 19.0775C0.895523 19.1089 0.874266 19.1439 0.853009 19.1753C0.775066 19.2696 0.70775 19.3744 0.658157 19.4861V19.4896C0.59793 19.6363 0.566046 19.7935 0.5625 19.9542V62.928V62.9245C0.5625 63.417 0.849472 63.8641 1.29941 64.0771L39.3709 82.1798C39.3957 82.1868 39.4205 82.1972 39.4418 82.2042C39.5268 82.2392 39.6189 82.2671 39.7075 82.2846C39.7358 82.288 39.7606 82.2915 39.789 82.2915C39.835 82.302 39.8882 82.309 39.9378 82.3125C40.1716 82.3125 40.4019 82.2496 40.6038 82.1309L78.5756 64.0774C79.0255 63.8644 79.3125 63.4173 79.3125 62.9283V19.9544C79.3125 19.4201 78.9795 18.9451 78.4729 18.7565L40.5011 0.68873C40.2673 0.576963 40.0016 0.538542 39.7429 0.576963L39.7462 0.57656ZM39.9376 3.26245L75.0361 19.9506L63.6455 25.3643L28.5507 8.67616L39.9376 3.26245ZM25.5677 10.0942L60.6698 26.7787L54.314 29.7999L19.2191 13.1154L25.5677 10.0942ZM16.2359 14.5334L51.3308 31.2179L39.9403 36.6316L4.84178 19.9542L16.2359 14.5334ZM3.15573 21.9833L38.6479 38.86V79.0022L3.15573 62.1254V21.9833ZM76.7185 21.9833V62.1254L41.2372 78.995V38.8565L53.0205 33.2542V44.5283V44.5248C53.0205 44.6017 53.024 44.675 53.0347 44.7484C53.0559 44.8706 53.0913 44.9859 53.1445 45.0976C53.2082 45.2234 53.2933 45.3421 53.396 45.4434C53.3996 45.4469 53.4066 45.4539 53.4102 45.4574C53.4492 45.4958 53.4952 45.5342 53.5377 45.5656C53.5519 45.5761 53.5661 45.5831 53.5767 45.5901C53.6192 45.6215 53.6653 45.646 53.7113 45.6704C53.7219 45.6774 53.7326 45.6844 53.7432 45.6914C54.101 45.866 54.5191 45.873 54.8769 45.7054L64.1914 41.2766V41.2731C64.1985 41.2696 64.2056 41.2661 64.2127 41.2627C64.2268 41.2592 64.2375 41.2522 64.2516 41.2452C64.2941 41.2207 64.3367 41.1963 64.3756 41.1684C64.3933 41.1579 64.4111 41.1439 64.4288 41.1299C64.4394 41.1229 64.45 41.116 64.4571 41.109C64.4642 41.102 64.4713 41.0985 64.4784 41.0915C64.4819 41.088 64.4855 41.088 64.489 41.0845C64.4996 41.0706 64.5138 41.0601 64.528 41.0496C64.5315 41.0461 64.5315 41.0426 64.5351 41.0391C64.5492 41.0286 64.5599 41.0182 64.5705 41.0042C64.574 41.0007 64.5811 40.9972 64.5847 40.9902C64.5953 40.9832 64.6059 40.9728 64.6165 40.9623C64.6378 40.9378 64.6591 40.9134 64.6768 40.8889C64.6839 40.8785 64.6909 40.8715 64.698 40.8645C64.7051 40.854 64.7157 40.84 64.7228 40.8296C64.7264 40.8226 64.7335 40.8156 64.737 40.8121C64.7441 40.7981 64.7547 40.7841 64.7618 40.7702H64.7653C64.7653 40.7667 64.7653 40.7632 64.7689 40.7597C64.9035 40.5327 64.9673 40.2707 64.9425 40.0053V27.5884L76.7185 21.9833ZM62.345 28.8185V39.3067L55.61 42.5095V32.0213L62.345 28.8185Z" fill="white" stroke="#F2682A" stroke-width="1.125"/>
</svg>
