<svg width="80" height="84" viewBox="0 0 80 84" fill="none" xmlns="http://www.w3.org/2000/svg">
<path d="M67.3158 64.2089C67.2882 64.1932 67.2606 64.1854 67.233 64.1696C67.2252 64.1657 67.2133 64.1618 67.2054 64.1578C65.0018 63.0417 62.6168 62.2989 60.1097 61.957L50.073 60.5775V55.5626C54.0703 53.2753 57.2359 49.7421 59.0256 45.5015C60.0939 42.9862 60.6458 40.3177 60.6773 37.5627H62.0019C65.0098 37.5627 67.4538 35.122 67.4538 32.1273V31.0701C67.4538 28.2522 65.2935 25.9334 62.5419 25.6622C62.1871 15.9312 55.7142 7.49283 46.4182 4.60428C46.2486 3.76716 45.8623 2.98504 45.2513 2.3523C44.3762 1.44051 43.2015 0.9375 41.936 0.9375H37.2172C35.9518 0.9375 34.7731 1.44056 33.9019 2.3523C33.2908 2.99291 32.9006 3.77504 32.731 4.59251C23.4157 7.47331 16.9272 15.9153 16.576 25.6615C13.8204 25.9327 11.6602 28.2554 11.6602 31.0733V32.1305C11.6602 35.1293 14.1082 37.5659 17.1121 37.5659H18.4327C18.4642 40.3288 19.0201 43.0012 20.0884 45.5047C21.878 49.7414 25.0476 53.2707 29.0409 55.5619V60.5925L21.1961 61.6654H21.1922L19.0122 61.9641C16.5128 62.306 14.1199 63.0527 11.8927 64.1767C11.8887 64.1767 11.8848 64.1807 11.8808 64.1846C11.8493 64.2003 11.8178 64.2121 11.7862 64.2278C5.09645 67.6628 0.9375 74.1475 0.9375 81.1587C0.9375 82.0037 1.62343 82.6875 2.47095 82.6875H76.654C77.5016 82.6875 78.1875 82.0037 78.1875 81.1587C78.1875 74.1355 74.0246 67.6466 67.3226 64.2158L67.3158 64.2089ZM10.9438 79.6186H4.07662C4.54572 75.1579 7.04896 71.0627 10.9438 68.3038V79.6186ZM19.9595 79.6186H14.0148V66.5552C15.7256 65.781 17.5351 65.2425 19.4273 64.9871L19.9634 64.9124V79.6188L19.9595 79.6186ZM36.1145 4.45888C36.4022 4.15626 36.7925 3.9912 37.2103 3.9912H41.9291C42.3469 3.9912 42.7372 4.15626 43.025 4.45888C43.3127 4.75757 43.4625 5.15058 43.4468 5.56721L43.4428 5.64582C43.4389 5.67333 43.4389 5.70084 43.4389 5.72442L42.9264 17.0784C42.8476 18.8705 41.3732 20.2736 39.5677 20.2736C37.7622 20.2736 36.2879 18.8706 36.2091 17.0745L35.6927 5.75168V5.58662C35.6729 5.16216 35.8228 4.76522 36.1145 4.46259L36.1145 4.45888ZM32.7203 7.8034L33.1421 17.2082C33.2919 20.6432 36.1144 23.3314 39.5678 23.3314C43.0211 23.3314 45.8437 20.6431 45.9934 17.2082L46.4113 7.81527C53.9368 10.5585 59.1321 17.5698 59.4792 25.6265H19.6124C19.9593 17.554 25.1708 10.5348 32.7116 7.8032L32.7203 7.8034ZM19.9521 34.4966H19.9363H17.1059C15.7931 34.4966 14.7209 33.4315 14.7209 32.1189V31.0616C14.7209 29.7529 15.7892 28.6839 17.1059 28.6839H18.0441C18.052 28.6839 18.0599 28.6878 18.0677 28.6878H61.0408C61.0487 28.6878 61.0566 28.6839 61.0645 28.6839H61.9987C63.3115 28.6839 64.3838 29.7489 64.3838 31.0616V32.1189C64.3838 33.4276 63.3154 34.4966 61.9987 34.4966H59.1604H59.1446H19.9521ZM22.9087 44.2984C21.9981 42.1721 21.5211 39.9045 21.4896 37.5582H57.6073C57.5757 39.9005 57.1027 42.1682 56.196 44.3101C54.56 48.1892 51.5916 51.3883 47.8229 53.3219C45.3196 54.6306 42.4616 55.3223 39.5642 55.3223C36.6194 55.3223 33.8323 54.6464 31.2739 53.3062C27.517 51.3686 24.5486 48.1734 22.9126 44.2984H22.9087ZM38.0232 79.618H23.0318V64.4911L29.5954 63.5911C31.0501 66.1338 35.0986 69.1325 38.0237 71.0779L38.0232 79.618ZM32.114 61.8067C32.11 61.7714 32.1021 61.736 32.0943 61.7006C32.0943 61.6888 32.0943 61.6731 32.0903 61.6613C32.0982 61.6967 32.1021 61.7321 32.1021 61.736V57.0277C34.4595 57.9159 36.9983 58.3836 39.5606 58.3836C42.1191 58.3836 44.6539 57.9199 46.9994 57.0356V61.74V61.7518C46.9994 61.7675 46.9915 61.7833 46.9915 61.8029C46.8181 62.8208 43.4397 65.8117 39.5606 68.4291C35.6776 65.8076 32.2953 62.8247 32.11 61.8108L32.114 61.8067ZM56.0659 79.618H41.0896V71.0895C46.4115 67.5564 48.6073 65.1118 49.4864 63.583L56.0618 64.487V79.6179L56.0659 79.618ZM65.0816 79.618H59.1369V64.9076L59.6927 64.9823C61.5889 65.2416 63.3944 65.7761 65.0856 66.5425V79.614L65.0816 79.618ZM68.1525 79.618V68.2871C72.0552 71.0461 74.5664 75.1491 75.0355 79.618H68.1525Z" fill="white" stroke="#F46720" stroke-width="1.875"/>
</svg>
