<svg width="75" height="76" viewBox="0 0 75 76" fill="none" xmlns="http://www.w3.org/2000/svg">
<path d="M72.4905 63.4568L51.8997 38.9616L50.2964 37.7377L56.5797 32.2038C61.1035 33.8895 66.0752 32.9637 69.7124 29.713C73.4851 26.3428 75.0309 20.9992 73.6505 16.1011C73.5425 15.7182 73.2473 15.4178 72.8684 15.3052C72.4882 15.1927 72.0805 15.2844 71.7854 15.5489L65.3987 21.2475C64.6074 21.9563 63.5922 22.316 62.5414 22.2429C61.4813 22.1756 60.5086 21.6895 59.8034 20.8774C59.1028 20.0641 58.7572 19.0293 58.8318 17.9504C58.8961 16.8795 59.3727 15.8923 60.1686 15.1765L66.5541 9.48018C66.8481 9.21798 66.9894 8.82122 66.9285 8.43025C66.8676 8.03928 66.6127 7.70516 66.252 7.54738C61.6318 5.51366 56.211 6.38492 52.4475 9.75977C48.8654 12.949 47.2909 17.9388 48.3268 22.6478L41.1121 29.003L33.4312 20.0305L34.8381 18.7915C35.2354 18.4411 35.3434 17.8715 35.1114 17.3946C34.0089 15.1277 34.1501 11.6566 36.2989 9.76441C39.6363 6.82346 42.9221 5.77933 46.0655 6.66684C46.5513 6.80373 47.0704 6.60303 47.3426 6.17262C47.6136 5.74105 47.5745 5.18186 47.2461 4.79437C45.211 2.39636 42.1457 0.983313 38.3822 0.706039C33.159 0.319713 27.3489 2.2061 23.5831 5.51134C23.5808 5.5125 13.1424 14.7101 13.1424 14.7101C12.7427 15.0616 12.6359 15.6475 12.8794 16.122C12.892 16.1463 14.1347 18.6047 12.8358 19.6221C11.515 20.6604 9.34212 19.2288 9.32489 19.2161C8.89307 18.9237 8.32113 18.9585 7.92836 19.3042L1.83804 24.6676C0.407054 25.9379 0.255457 28.148 1.4935 29.5877L8.24763 37.5706C8.85287 38.2841 9.6947 38.7412 10.6227 38.7783C11.716 38.8224 12.4889 38.4883 13.1125 37.9338L19.1994 32.5739C19.5853 32.234 19.7001 31.6725 19.4831 31.2026C19.4716 31.1783 18.3633 28.6863 19.5646 27.612C20.8888 26.4205 22.8665 27.9508 22.9445 28.0134C23.3787 28.3626 23.9977 28.3464 24.4146 27.9774L25.6722 26.8695L33.3496 35.8339L18.2301 49.1546C13.7063 47.4689 8.73458 48.3947 5.09739 51.6455C1.32468 55.0145 -0.220008 60.3581 1.1593 65.2574C1.26726 65.6414 1.56241 65.9418 1.9414 66.0532C2.31925 66.1658 2.72925 66.0741 3.02441 65.8096L9.41103 60.111C10.2035 59.4021 11.2256 59.046 12.2684 59.1156C13.3284 59.1829 14.3023 59.669 15.0064 60.4811C15.7069 61.2943 16.0526 62.3292 15.978 63.4081C15.9136 64.4789 15.437 65.4662 14.6411 66.182L8.25567 71.8783C7.96166 72.1405 7.8204 72.5372 7.88127 72.9282C7.94214 73.3192 8.1971 73.6533 8.55657 73.8111C10.215 74.5408 11.9767 74.8958 13.7281 74.8958C16.8554 74.8958 19.9493 73.7612 22.3611 71.5987C25.9432 68.4095 27.5166 63.4197 26.4818 58.7107L40.5746 46.296L41.5049 48.0119L62.0992 72.5106C63.4073 74.0327 65.3023 74.9062 67.296 74.9062C68.9383 74.9062 70.5301 74.3076 71.7773 73.2217C73.1647 72.0152 74.003 70.3353 74.1374 68.4907C74.2718 66.6426 73.6838 64.8525 72.4894 63.458L72.4905 63.4568ZM50.3665 23.9309C50.7018 23.6362 50.8373 23.1733 50.7167 22.7417C49.566 18.6174 50.8109 14.311 53.9692 11.4988C56.5923 9.1449 60.1916 8.27015 63.5417 9.07297L58.6435 13.4432C57.3882 14.5743 56.6405 16.1255 56.5395 17.8019C56.4223 19.4887 56.9667 21.1222 58.0727 22.4065C59.1855 23.6896 60.721 24.4553 62.3955 24.562C64.0654 24.6745 65.6686 24.1084 66.9204 22.9877L71.798 18.636C72.1414 22.1106 70.8218 25.6258 68.1895 27.9786C65.0427 30.7908 60.6831 31.4903 56.8071 29.8012C56.4005 29.6248 55.9308 29.6991 55.5977 29.9914L48.4221 36.3107L45.3706 33.9823L42.6143 30.7618L50.3665 23.9309ZM38.2145 3.02052C39.5043 3.11565 41.0892 3.39756 42.5948 4.10873C39.9935 4.42429 37.3819 5.7306 34.7887 8.01608C31.9657 10.5034 31.6269 14.6057 32.7019 17.593L31.0596 19.0339H31.0585C31.0585 19.0339 31.0585 19.0362 31.0573 19.0362L25.0428 24.3404C25.0428 24.3404 25.0348 24.3439 25.0313 24.3474C25.0279 24.3508 25.0267 24.3555 25.0221 24.359L23.776 25.4576L15.5094 15.702L24.2056 8.03928L28.4158 13.0082C28.6432 13.2762 28.9648 13.4142 29.2887 13.4142C29.5528 13.4142 29.8181 13.3226 30.0352 13.1358C30.5164 12.7193 30.5727 11.9861 30.1604 11.5L25.9811 6.56823C29.2703 4.12613 34.0204 2.7154 38.2134 3.01936L38.2145 3.02052ZM18.0394 25.8764C17.3469 26.4948 16.984 27.2396 16.8198 27.9972L14.1599 24.859C13.7488 24.3729 13.023 24.316 12.5406 24.7325C12.0594 25.149 12.0031 25.8822 12.4154 26.3683L16.8313 31.5797L11.5989 36.1878C11.3738 36.3873 11.0809 36.4905 10.7834 36.4639C10.4745 36.4418 10.192 36.298 9.99215 36.0613L3.23343 28.0726C2.81539 27.5865 2.87051 26.8405 3.35172 26.4136L8.83105 21.5874C10.0232 22.1709 12.3385 22.9494 14.2438 21.4551C14.9914 20.8704 15.3968 20.1372 15.5875 19.3634L20.2571 24.8741C19.4992 24.9576 18.7343 25.2511 18.0394 25.8764ZM31.7004 21.5561L42.9612 34.7121L38.6475 38.4744L35.8476 35.2051C35.8418 35.1982 35.8407 35.1889 35.8349 35.1831C35.8292 35.1761 35.8211 35.1738 35.8154 35.168L27.4017 25.3439L31.7004 21.5561ZM24.4421 57.4276C24.1079 57.7223 23.9713 58.1852 24.0919 58.6167C25.2415 62.741 23.9977 67.0486 20.8406 69.8596C18.2152 72.2124 14.617 73.086 11.2669 72.2855L16.1652 67.9152C17.4204 66.7841 18.1681 65.233 18.2691 63.5566C18.3863 61.8709 17.8419 60.2363 16.7359 58.952C15.6231 57.6689 14.0876 56.9032 12.4131 56.7965C10.7524 56.6909 9.13999 57.2501 7.88816 58.3708L3.01063 62.7225C2.66838 59.2478 3.98682 55.7315 6.61911 53.3799C9.7659 50.5677 14.1266 49.8693 18.0016 51.5573C18.4081 51.7359 18.879 51.6605 19.2109 51.367L34.853 37.5869L37.5817 40.7738L39.4457 44.2101L24.4433 57.4264L24.4421 57.4276ZM70.2797 71.4618C69.4482 72.1857 68.3893 72.5837 67.2971 72.5837C65.9684 72.5837 64.7074 72.0024 63.8437 70.9966L43.4091 46.6882L39.9843 40.3747L44.631 36.3212L50.3125 40.6566L70.7471 64.9662C71.5465 65.9001 71.9381 67.0904 71.8485 68.319C71.7589 69.5441 71.2019 70.6601 70.2797 71.4618Z" fill="white" stroke="#F2682A" stroke-width="1.3125"/>
</svg>
