<svg width="63" height="46" viewBox="0 0 63 46" fill="none" xmlns="http://www.w3.org/2000/svg">
<path d="M36.9804 2.84792H39.6552C39.5585 4.08387 39.4712 5.29152 39.3721 6.49681C39.0749 10.082 38.773 13.6696 38.4711 17.2548C38.4452 17.5638 38.3909 17.8728 38.3744 18.1818C38.3225 19.0875 38.891 19.8069 39.7047 19.8847C40.4571 19.9579 41.1671 19.3352 41.2449 18.453C41.4879 15.7099 41.7025 12.9643 41.9289 10.2188C42.0563 8.67152 42.1884 7.12186 42.3323 5.4354C42.9621 5.76797 43.5281 6.03451 44.0659 6.35293C49.7763 9.71878 53.7059 14.5164 55.7202 20.8565C56.5269 23.3968 56.8453 26.0103 56.883 28.6638C56.8948 29.3973 56.8241 30.138 56.9019 30.8621C56.9868 31.6522 56.6684 32.0249 55.9679 32.3457C52.7435 33.8246 49.3706 34.8129 45.9128 35.5417C40.0066 36.7848 34.025 37.0796 28.015 36.8673C21.4343 36.6338 14.9903 35.6266 8.8035 33.2703C7.85295 32.9071 6.92834 32.4683 6.01081 32.0249C5.84099 31.9424 5.66409 31.6758 5.65937 31.4895C5.55795 27.5646 5.73957 23.6728 7.10996 19.9319C9.49932 13.4078 13.8275 8.62671 20.0356 5.53211C20.0521 5.52267 20.078 5.5321 20.1889 5.5439C20.2738 6.41897 20.3705 7.3082 20.446 8.20214C20.7243 11.568 20.9979 14.9315 21.2692 18.2973C21.347 19.2691 21.9957 19.9484 22.8023 19.8895C23.6916 19.8258 24.2317 19.038 24.1421 18.0072C23.8331 14.422 23.543 10.8344 23.241 7.24923C23.1208 5.81043 22.991 4.37399 22.8589 2.87858H25.5455V3.61921C25.5455 11.2449 25.5455 18.8729 25.5455 26.4985C25.5455 27.6094 25.8828 28.159 26.6777 28.3572C27.3711 28.5293 28.1117 28.1496 28.3122 27.4679C28.4113 27.133 28.4372 26.7698 28.4372 26.4183C28.4443 18.6134 28.4372 10.8109 28.4443 3.00595C28.4443 1.10013 29.7463 -0.140544 31.5507 0.0127704C32.9353 0.130705 34.0155 1.2558 34.0745 2.64979C34.0863 2.91632 34.0839 3.18285 34.0839 3.44938C34.0839 11.0986 34.0839 18.7455 34.0839 26.3947C34.0839 27.6991 34.5722 28.3972 35.5015 28.4279C36.4426 28.4562 36.9804 27.7179 36.9804 26.3924C36.9804 18.8328 36.9804 11.2732 36.9804 3.71356V2.85263V2.84792Z" fill="white"/>
<path d="M2.82661 32.039C2.63319 33.4283 3.39505 33.9189 4.27013 34.3741C8.32 36.4898 12.6529 37.7447 17.1179 38.582C22.6443 39.6198 28.2297 39.9453 33.8387 39.7731C40.9525 39.5538 47.946 38.5867 54.6352 36.0134C55.8335 35.5534 56.9869 34.9732 58.1473 34.4213C59.0554 33.9896 59.9305 33.5084 59.697 32.0578C60.5956 32.5886 61.3386 32.973 62.0179 33.4448C62.6477 33.8835 62.7373 34.3033 62.2208 34.9071C61.5037 35.7421 60.7395 36.5747 59.8597 37.2257C56.1943 39.9359 52.0407 41.6601 47.7172 42.9998C43.7192 44.2405 39.6269 44.9976 35.4496 45.2972C26.3168 45.9529 17.5283 44.5424 9.12431 40.8841C6.38823 39.6929 3.76301 38.2919 1.51282 36.2941C1.03636 35.8719 0.628308 35.36 0.246201 34.8482C-0.128831 34.3481 -0.0910924 33.8316 0.467917 33.4707C1.17317 33.0155 1.89964 32.598 2.83132 32.0366L2.82661 32.039Z" fill="white"/>
</svg>
