<svg width="69" height="31" viewBox="0 0 69 31" fill="none" xmlns="http://www.w3.org/2000/svg">
<g clip-path="url(#clip0_563_484)">
<path d="M59.7566 30.0786L30.4424 5.01103L34.3729 0.581543L68.4142 30.105L59.7566 30.0786Z" fill="white"/>
<path d="M68.4118 30.8718L59.7542 30.8454L59.2652 30.6627L29.951 5.59514L29.8771 4.50159L33.8052 0.0696989L34.8689 0L68.9102 29.5259L68.4118 30.8718ZM60.0356 29.3144L66.3583 29.3336L34.442 1.65114L31.5275 4.9342L60.0356 29.3144Z" fill="white"/>
<path d="M9.1537 30.0786L38.4679 5.01103L34.5374 0.581543L0.496094 30.105L9.1537 30.0786Z" fill="white"/>
<path d="M0.498468 30.8718L0 29.5259L34.0413 0L35.105 0.0696989L39.0355 4.49918L38.9616 5.59273L9.64739 30.6627L9.15846 30.8454L0.500853 30.8718H0.498468ZM34.4682 1.65114L2.55197 29.3336L8.87464 29.3144L37.3827 4.9342L34.4682 1.65114Z" fill="white"/>
<path d="M7.53418 19.8738V5.37402H17.0289V11.7791L7.53418 19.8738Z" fill="white"/>
</g>
<defs>
<clipPath id="clip0_563_484">
<rect width="68.9103" height="30.8718" fill="white"/>
</clipPath>
</defs>
</svg>
