<svg width="52" height="49" viewBox="0 0 52 49" fill="none" xmlns="http://www.w3.org/2000/svg">
<g clip-path="url(#clip0_563_511)">
<path d="M38.9748 44.6831C35.1488 46.8824 30.7177 48.1369 25.9838 48.1369C21.25 48.1369 16.8108 46.8824 12.9849 44.6831L22.5687 28.2101C23.5728 28.7837 24.7413 29.1132 25.9818 29.1132C27.2224 29.1132 28.3848 28.7837 29.3889 28.2021L38.9728 44.6831H38.9748Z" fill="white"/>
<path d="M51.9657 22.3425H32.804C32.804 19.8335 31.4331 17.6481 29.3909 16.4809L38.9748 0C46.7409 4.45619 51.9657 12.7909 51.9657 22.3425Z" fill="white"/>
<path d="M22.5688 16.4809C20.5326 17.6481 19.1618 19.8335 19.1618 22.3425H0C0 12.7909 5.21883 4.45619 12.9849 0L22.5688 16.4809Z" fill="white"/>
<path d="M30.6876 22.3425C30.6876 24.0773 29.7417 25.5819 28.3348 26.3838C27.6413 26.7848 26.8417 27.015 25.9819 27.015C25.1221 27.015 24.3144 26.7848 23.629 26.3838C22.2221 25.5819 21.2761 24.0773 21.2761 22.3425C21.2761 20.6076 22.2221 19.103 23.629 18.3011C24.3144 17.9002 25.1221 17.6699 25.9819 17.6699C26.8417 17.6699 27.6413 17.9002 28.3348 18.3011C29.7417 19.103 30.6876 20.6156 30.6876 22.3425Z" fill="white"/>
</g>
<defs>
<clipPath id="clip0_563_511">
<rect width="51.9658" height="48.1368" fill="white"/>
</clipPath>
</defs>
</svg>
