<svg width="40" height="50" viewBox="0 0 40 50" fill="none" xmlns="http://www.w3.org/2000/svg">
<path d="M16.5804 17.2182C16.1424 19.7738 14.5067 27.2321 14.2837 30.0285L3.57561 30.6543C2.99288 24.0205 0.461046 21.8841 0.0651954 15.166C-0.571783 4.31759 3.54346 0.496167 8.7076 0.0287692C13.0037 -0.358388 19.0098 3.0478 16.5804 17.2162V17.2182Z" fill="white"/>
<path d="M14.601 35.46C14.7256 37.5804 13.9962 40.2824 9.041 40.5713C4.08584 40.8622 3.65181 36.4991 3.75027 33.6566L14.4583 33.0308C14.4583 33.0308 14.4764 33.3397 14.601 35.46Z" fill="white"/>
<path d="M38.7376 25.7955C37.3993 32.3913 34.5922 34.1505 33.0791 40.6359L22.566 38.5095C22.7408 35.7092 22.1721 28.0964 22.0998 25.5047C21.6919 11.1337 28.1199 8.60614 32.3176 9.5951C37.3632 10.7827 40.8997 15.1457 38.7376 25.7955Z" fill="white"/>
<path d="M21.9691 41.4604L32.4822 43.5868C32.1788 46.4153 31.136 50.672 26.2692 49.6891C21.4045 48.7061 21.0629 45.9278 21.4848 43.8456C21.9068 41.7634 21.9691 41.4604 21.9691 41.4604Z" fill="white"/>
</svg>
