<svg width="38" height="50" viewBox="0 0 38 50" fill="none" xmlns="http://www.w3.org/2000/svg">
<path d="M25.1083 31.5941C22.6043 37.1655 22.3044 37.5642 19.1033 39.7537C19.5045 36.6699 20.5072 33.8823 19.6077 30.9979C19.2065 29.5073 18.9047 28.0128 18.4043 26.621C17.0043 23.2391 16.206 23.2391 13.9025 26.2222C9.60129 31.9949 9.90115 40.7487 14.6016 47.013C15.2013 47.7118 16.0015 48.3081 16.1047 49.6999C11.1999 49.6012 6.7974 48.3081 3.49505 44.6281C-0.90744 39.3568 -0.30772 33.1873 0.790469 26.621C2.49422 27.6141 2.69477 29.2092 3.69366 30.2023C4.9963 31.7935 5.89588 31.6929 6.79546 29.9042C7.79434 27.7147 7.69893 25.5272 6.79546 23.5372C5.29616 20.0547 5.89588 16.7715 7.09532 13.4883C8.89837 8.81329 11.6964 4.7345 15.1993 1.15321C15.7017 0.655705 16.2021 -0.238648 17.0024 0.0594697C17.8027 0.25886 17.5028 1.25194 17.5028 1.84818C17.6021 4.63577 19.302 6.82519 20.7058 9.11141C23.4046 13.4883 25.7081 18.0666 23.609 23.6359C26.0079 21.946 26.6115 20.8483 28.2101 15.579C32.2115 20.3547 34.1119 25.2311 32.0129 31.3967C34.4157 30.2042 35.1147 28.1135 36.0143 26.2241C42.0193 36.1704 33.7108 49.2044 20.406 50C26.1092 44.8275 27.108 38.8574 25.1083 31.5961V31.5941Z" fill="white"/>
</svg>
