<svg width="80" height="80" viewBox="0 0 80 80" fill="none" xmlns="http://www.w3.org/2000/svg">
<circle cx="40" cy="40" r="40" fill="#3D5CAA"/>
<g clip-path="url(#clip0_1835_10633)">
<path d="M56.8636 49.6586L37.5273 33.1236L40.12 30.2018L62.5743 49.676L56.8636 49.6586Z" fill="white"/>
<path d="M62.5725 50.1819L56.8618 50.1644L56.5393 50.0439L37.2031 33.5089L37.1543 32.7876L39.7454 29.8642L40.447 29.8182L62.9013 49.2941L62.5725 50.1819ZM57.0474 49.1546L61.218 49.1673L40.1654 30.9074L38.243 33.0729L57.0474 49.1546Z" fill="white"/>
<path d="M23.4842 49.6586L42.8204 33.1236L40.2278 30.2018L17.7734 49.676L23.4842 49.6586Z" fill="white"/>
<path d="M17.7702 50.1819L17.4414 49.2941L39.8957 29.8182L40.5974 29.8642L43.19 32.786L43.1412 33.5073L23.805 50.0439L23.4825 50.1644L17.7718 50.1819H17.7702ZM40.1773 30.9074L19.1247 49.1673L23.2953 49.1546L42.0998 33.0729L40.1773 30.9074Z" fill="white"/>
<path d="M22.416 42.9274V33.363H28.6789V37.588L22.416 42.9274Z" fill="white"/>
</g>
<defs>
<clipPath id="clip0_1835_10633">
<rect width="45.4545" height="20.3636" fill="white" transform="translate(17.4492 29.8182)"/>
</clipPath>
</defs>
</svg>
